<?xml version="1.0" encoding="utf-8"?>
<!-- Generator: Adobe Illustrator 22.1.0, SVG Export Plug-In . SVG Version: 6.00 Build 0)  -->
<svg version="1.1" id="Layer_1" xmlns="http://www.w3.org/2000/svg" xmlns:xlink="http://www.w3.org/1999/xlink" x="0px" y="0px"
	 viewBox="0 0 60 60" style="enable-background:new 0 0 60 60;" xml:space="preserve">
<style type="text/css">
	.st0{fill:#375186;}
	.st1{fill:#FFFFFE;}
</style>
<title>Group 22</title>
<desc>Created with Sketch.</desc>
<g id="Page-1">
	<g id="About" transform="translate(-1013.000000, -1204.000000)">
		<g id="Group-22" transform="translate(1013.000000, 1204.000000)">
			<polygon id="Fill-261" class="st0" points="0,60 60,60 60,0 0,0 			"/>
			<path id="Fill-262" class="st1" d="M44.8,13.5H15.2c-1,0-1.8,0.8-1.8,1.8v29.4c0,1,0.8,1.8,1.8,1.8h16V33.7h-4.3v-5h4.3v-3.7
				c0-4.3,2.6-6.6,6.5-6.6c1.8,0,3.4,0.1,3.9,0.2v4.5l-2.7,0c-2.1,0-2.5,1-2.5,2.4v3.2h5l-0.6,5h-4.3v12.8h8.5c1,0,1.8-0.8,1.8-1.8
				V15.3C46.7,14.3,45.8,13.5,44.8,13.5"/>
		</g>
	</g>
</g>
</svg>
