<?xml version="1.0" encoding="utf-8"?>
<!-- Generator: Adobe Illustrator 22.1.0, SVG Export Plug-In . SVG Version: 6.00 Build 0)  -->
<svg version="1.1" id="Layer_1" xmlns="http://www.w3.org/2000/svg" xmlns:xlink="http://www.w3.org/1999/xlink" x="0px" y="0px"
	 viewBox="0 0 60 60" style="enable-background:new 0 0 60 60;" xml:space="preserve">
<style type="text/css">
	.st0{fill:#DEDACD;}
	.st1{filter:url(#Adobe_OpacityMaskFilter);}
	.st2{fill:#FFFFFF;}
	.st3{mask:url(#mask-2_1_);fill:#FFFFFF;}
</style>
<title>Group 2</title>
<desc>Created with Sketch.</desc>
<g id="Page-1">
	<g id="About" transform="translate(-1013.000000, -1273.000000)">
		<g id="Group-2" transform="translate(1013.000000, 1273.000000)">
			<g id="Group-19-Copy">
				<polygon id="Fill-229" class="st0" points="0,60 60,60 60,0 0,0 				"/>
			</g>
			<g id="ic_email" transform="translate(14.000000, 17.000000)">
				<g id="Clip-2">
				</g>
				<defs>
					<filter id="Adobe_OpacityMaskFilter" filterUnits="userSpaceOnUse" x="0" y="0.5" width="33" height="26">
						<feColorMatrix  type="matrix" values="1 0 0 0 0  0 1 0 0 0  0 0 1 0 0  0 0 0 1 0"/>
					</filter>
				</defs>
				<mask maskUnits="userSpaceOnUse" x="0" y="0.5" width="33" height="26" id="mask-2_1_">
					<g class="st1">
						<polygon id="path-1_1_" class="st2" points="0,0.5 33,0.5 33,26.5 0,26.5 						"/>
					</g>
				</mask>
				<path id="Fill-1" class="st3" d="M29.7,7l-13.2,8.1L3.3,7V3.8l13.2,8.1l13.2-8.1V7z M29.7,0.5H3.3C1.5,0.5,0.1,2,0.1,3.8l0,19.5
					c0,1.8,1.5,3.2,3.3,3.2h26.4c1.8,0,3.3-1.5,3.3-3.2V3.8C33,2,31.6,0.5,29.7,0.5z"/>
			</g>
		</g>
	</g>
</g>
</svg>
