<?xml version="1.0" encoding="utf-8"?>
<!-- Generator: Adobe Illustrator 22.1.0, SVG Export Plug-In . SVG Version: 6.00 Build 0)  -->
<svg version="1.1" id="Layer_1" xmlns="http://www.w3.org/2000/svg" xmlns:xlink="http://www.w3.org/1999/xlink" x="0px" y="0px"
	 viewBox="0 0 60 60" style="enable-background:new 0 0 60 60;" xml:space="preserve">
<style type="text/css">
	.st0{fill:#5FA0CA;}
	.st1{fill:#FFFFFE;}
</style>
<g id="Page-1">
	<g id="About" transform="translate(-1093.000000, -1204.000000)">
		<g id="Group-19" transform="translate(1093.000000, 1204.000000)">
			<polygon id="Fill-229" class="st0" points="0,60 60,60 60,0 0,0 			"/>
			<path id="Fill-230" class="st1" d="M46.8,19.7c-1.2,0.5-2.6,0.9-4,1.1c1.4-0.8,2.5-2.2,3-3.8c-1.3,0.8-2.8,1.4-4.4,1.7
				c-1.3-1.3-3-2.2-5-2.2c-3.8,0-6.9,3.1-6.9,6.8c0,0.5,0.1,1.1,0.2,1.6c-5.7-0.3-10.8-3-14.2-7.1c-0.6,1-0.9,2.2-0.9,3.4
				c0,2.4,1.2,4.5,3.1,5.7c-1.1,0-2.2-0.3-3.1-0.9c0,0,0,0.1,0,0.1c0,3.3,2.4,6.1,5.5,6.7c-0.6,0.2-1.2,0.2-1.8,0.2
				c-0.4,0-0.9,0-1.3-0.1c0.9,2.7,3.4,4.7,6.4,4.7c-2.4,1.8-5.3,2.9-8.6,2.9c-0.6,0-1.1,0-1.6-0.1c3.1,1.9,6.7,3.1,10.6,3.1
				c12.7,0,19.6-10.4,19.6-19.4c0-0.3,0-0.6,0-0.9C44.7,22.2,45.9,21,46.8,19.7"/>
		</g>
	</g>
</g>
</svg>
