<svg version="1" xmlns="http://www.w3.org/2000/svg" width="346.667" height="346.667" viewBox="0 0 260.000000 260.000000"><path d="M111.9 22.9C96.2 25.8 79 32.8 67.1 41.3 52.6 51.5 37.9 69 31.1 84.1c-7.6 17-10.7 32.8-9.8 51.3 2.3 50.4 38.2 91.8 88.2 101.7 9 1.8 31 1.8 40 0 50-9.9 85.9-51.3 88.2-101.7.9-18.2-2.3-34.2-10.1-51.7-9.2-20.8-30.7-41.9-52.9-52.2-14-6.5-24.1-8.6-42.2-9-8.8-.2-18.1 0-20.6.4zm24.4.8c-3.4.2-9.3.2-13 0-3.7-.2-.9-.3 6.2-.3 7.2 0 10.2.1 6.8.3zM107.7 26c-4.9 1-10.3 2.3-12 2.9-1.6.6-3.2.9-3.5.7-.9-1 16.6-5.4 21.3-5.4 1.7 0-1 .8-5.8 1.8zm48.2 0c4.6 1.1 9.1 2.5 10 3.1 1.4.9 1.3 1-.4.4-2.5-.8-17.1-4.2-20.5-4.8l-2.5-.4 2.5-.2c1.4 0 6.3.8 10.9 1.9zM82 34.8C55.4 47.9 37.3 69.1 27.9 97.9c-1.6 4.7-2.8 7.9-2.9 7 0-2.6 4.8-15.8 8.7-23.8 9.9-20 29.1-38.7 49.6-48.1 10-4.7 9-3.4-1.3 1.8zm93.4-1.9c18.7 8.5 35.6 23.8 46.9 42.6 3.8 6.5 9.2 19.1 10.1 24 .4 1.6-.5 0-1.8-3.6-10.2-28.3-27.9-48.4-53.6-61.1-10.5-5.3-11.5-6.4-1.6-1.9zm-32.2 27.5c4 1.8 8.2 4.3 9.2 5.4 1.9 2.2 1.9 2.3-.9 8.8-2.8 6.6-6.8 12.4-8.6 12.4-2.2 0-6-5-5.4-7 .8-2.5.4-2.5-4.6 0-8.3 4.3-13.7 10.6-16.5 19.5-.7 2.2-1.3 3.1-1.3 2-.1-3.7 4.6-12 9.3-16.3 4.2-3.9 14.4-9.7 15.4-8.7.2.2-.1 1.2-.7 2.3-1.3 2.5-.5 4.9 2.2 6.4 2.7 1.4 5.4-1.6 9.2-10.5 3.4-8.1 3.1-8.6-7.4-13.4-7-3.2-7.5-3.3-9.2-1.7-2.2 2-2.4 4.4-.6 6.4 1 1.2.9 1.2-.5.1-2.4-1.8-2.3-4 .4-6.8 1.2-1.3 2.3-2.3 2.4-2.3.2 0 3.6 1.5 7.6 3.4zm.2 2.1c4.2 1.9 7.9 4.1 8.2 4.8.5 1.5-5.7 16.1-7.4 17.1-1.4.8-3.9-.2-4.6-2-.3-.9.1-2.9 1-4.6.8-1.6 1.4-3.1 1.2-3.3-.2-.2-3.5 1.1-7.4 3-12.3 5.6-19.6 15.3-21.2 28-.8 6.8-3.3 9.4-5.8 6-1.1-1.5-1.3-3.3-.8-7 2.1-15.6 11.8-27.8 27.3-34.1l5.4-2.2-3.2-1.6c-3.2-1.7-4-4.3-1.9-6.4 1.5-1.5.3-1.8 9.2 2.3zm-7.4 5c0 .3-2.6 1.8-5.9 3.4-7.8 4-16.2 11.9-19.7 18.5-1.6 3-3 5.3-3.2 5.1-1.1-1.1 6-11.4 11-16 6.4-5.9 17.8-13 17.8-11zM93.2 85c6.2 8.1 6.6 9.4 4.1 12.2-2 2.2-5.1 2.3-7.5.1-1.7-1.5-1.8-1.3-1.8 5.4 0 12.6 4.4 22.1 13.1 27.9 6.3 4.3 6.9 5.8 3.8 9-3.2 3.2-4.9 2.8-12-2.7-4.7-3.8-12.9-14.8-12.9-17.3 0-.6 1.4 1.3 3.1 4.3 3.7 6.4 11.4 14.2 15.8 16.1 2.8 1.1 3.4 1 5.2-.6 2.8-2.5 2.1-4.2-3.1-7.9-9.6-6.7-14-16-14-29.1 0-7.5 1.1-9.9 3-6.4.7 1.3 2 1.9 3.8 1.9 2.7-.2 2.7-.2.2-.6-1.4-.2-3.5-1.8-4.7-3.5l-2.1-3-.7 4.7c-1.1 7-.1 17.4 2.2 22.6 2.5 5.5 7.5 11.3 12.5 14.5 4.1 2.6 4.7 4.4 2.2 6.5-1.3 1.1-2.1 1-5.1-.6-5.6-3.1-13.9-12.7-16.3-19.2-2.6-6.8-3.6-19-2.2-25.1 1-4.3 1-4.3-1.1-2.7-1.2.8-2.8 1.8-3.5 2.1-1.5.8-4.2-1.3-4.2-3.2C71 88.9 83.7 79 85.6 79c.6 0 3.5 3.2 6.3 7.1 3.8 5.2 5 7.6 4.5 9.1-.4 1.4-.2 1.8.5 1.4.6-.4 1.1-1.4 1.1-2.2C98 92.3 87.3 78 85.7 78c-2.3 0-15.2 10-15.9 12.3l-.6 2.2-.1-2.2c-.1-1.6 1.9-3.6 7.7-7.8 4.2-3 8.4-5.4 9.2-5.3.8.2 4.1 3.7 7.2 7.8zM79 93.6c0 .8-.4 1.3-.9.9-.5-.3-1.2-.1-1.6.5-.9 1.4-2.8 1.2-5.1-.5-1.8-1.4-1.7-1.4.9-.3 2.3 1 3 .9 4.5-.5 2-2.1 2.2-2.1 2.2-.1zm85-.5c2.8.6 5 1.3 4.7 1.5-.2.2-3-.1-6.1-.8-7.1-1.4-16.5.1-23.7 3.7-5.8 3-7.2 6-3.9 8.7 1.2 1 1.8 1.8 1.3 1.8-.6 0-1.8-.9-2.8-2-3.8-4.2 2.4-9.7 14-12.6 6.4-1.6 10.2-1.7 16.5-.3zm-1 1.9c6.8 1.3 14.2 4.7 20.3 9.3l4.7 3.7v-3.9c0-4.1 1.6-5.6 4.7-4.4 1.2.5 1.4.3.8-.8-.5-.9-.2-.8 1 .3s2 4 2.5 9.5c1.2 11.7 0 12.9-12.5 13.5-6.6.2-8 0-8-1.2 0-.8-.7-1.5-1.5-1.5-2.7 0-2.1-3.2 1-5.9 3.4-2.8 4.5-3.2 5.5-1.6.3.6-.4 1-1.6 1-2.7 0-5.9 2.7-5.9 4.9 0 1 .5.7 1.3-.9.9-1.9 2.3-2.6 5.2-3l3.9-.5-4.1-3.3c-10.6-8.4-23.2-11.1-33.8-7.2-10.7 3.9-13.5 3.7-12-.9.9-3 13.1-7.6 21.1-8 1.2-.1 4.5.4 7.4.9zm12.3 2.1c2.3 1.2 5.7 3.3 7.5 4.7 3.1 2.4 3.2 2.4 3.2.4s3.4-5.2 5.5-5.2c.5.1-.2.8-1.7 1.6-2.1 1.1-2.8 2.2-2.8 4.5v3.1l-3.7-3c-2.1-1.6-6-4.1-8.8-5.5-2.7-1.4-4.6-2.6-4.2-2.7.4 0 2.7 1 5 2.1zm-97.6 9.6c-.2 2.1-.4.4-.4-3.7 0-4.1.2-5.8.4-3.8.2 2.1.2 5.5 0 7.5zm28.4-6.1c-.5 2.1-.9 3-1 1.9-.1-2.4 1-6.7 1.5-6.2.3.2 0 2.2-.5 4.3zm48.8 2.4c-3.7.5-8.8 1.8-11.4 2.9-5.6 2.5-7.2 2.7-3 .4 4.9-2.7 10.7-4.2 16-4.1 4.7.1 4.7.1-1.6.8zm15.6 2.4c2.8 1.3 5.9 3.1 7 4.1 1.1.9-.2.4-2.8-1.1-2.6-1.4-6.7-3.2-9-3.9-2.3-.8-3.3-1.4-2.2-1.4 1.1-.1 4.3 1 7 2.3zm65.3 10.6c0 2.2-.5 1-1.3-3.5-1.7-8.8-1.7-11.6 0-5 .7 2.7 1.3 6.6 1.3 8.5zm-121.1-6.8c-.2 1.3-.4.5-.4-1.7-.1-2.2.1-3.2.4-2.3.2 1 .2 2.8 0 4zm-7.3 3.6c1.3 1.3 2 1.3 4.3.4 2.6-1.1 2.7-1.1.9.3-1.1.8-2.5 1.5-3.2 1.5-2 0-5.4-5.1-5.3-7.9.1-2.3.2-2.2.9.8.4 1.8 1.5 4 2.4 4.9zm-83 .6c-.4 3.1-.9 5.4-1.2 5.2-.2-.3-.1-3 .3-6.1.3-3.1.9-5.5 1.1-5.2.3.2.2 3-.2 6.1zm55.4 3.6c0 .9-.3.7-.8-.5-.5-1.1-.8-2.9-.8-4 0-1.6.2-1.5.8.5.4 1.4.8 3.2.8 4zm75 3.1c-1 .5-1.8 1.5-1.8 2.1 0 .7.5.6 1.5-.2 2.3-1.9 5.9-.4 11.9 5.1 3.7 3.3 6.7 7.3 8.8 11.7 3.2 6.4 3.3 7.1 3.3 18.8v12.2l2.6-1.5c3.2-1.9 5.9-1.1 5.9 1.7 0 1.2.4 1.8 1.1 1.5 1.5-1-1.3-4.8-4.2-5.6-2.3-.7-2.3-.7-.2-.8 1.2-.1 3 1 4.2 2.6 2 2.5 2.1 2.7.4 4.6-2.9 3.2-13.6 10.7-15.3 10.7-1.9 0-5.1-3.3-10.5-10.8l-3.8-5.3 2-2.7c2-2.6 5.8-3.7 5.8-1.7.1 1.5 3.7 6.6 4.3 6.1 1.4-1.5 2.1-11.7 1.1-17.6-1.3-8-5-15.1-10.8-20.1-4.3-3.9-6.9-5.1-5.5-2.7.4.7-.6.1-2.1-1.4-2.7-2.6-2.8-2.7-1.1-5.2.9-1.4 2.2-2.6 2.9-2.6.6 0 .4.5-.5 1.1zM26.4 157.2c6.2 24.2 20.8 45.7 40.6 59.7 9.3 6.6 15 9.5 26.5 13.7 5 1.8 8.5 3.3 7.8 3.4-.6 0-4.5-1.2-8.5-2.6-26.4-9.5-46.8-27.7-59.3-52.9-7.7-15.4-10.5-27.1-11-45l-.4-14 .9 14c.6 9.1 1.8 17.4 3.4 23.7zm142-30.6c5.4 5.3 9.2 11.6 11.1 17.9 1.6 5.1 2.2 22.8.9 23.2-.5.2-.9-4.8-.9-11 0-10.7-.2-11.6-3.3-17.9-2.2-4.6-5.3-8.5-9.9-12.8-3.6-3.5-5.7-5.8-4.6-5.1 1.2.6 4.2 3.1 6.7 5.7zm67.7 16.4l-1 5.5.4-5.5c.3-3 .6-9.6.7-14.5l.2-9 .3 9c.2 4.9-.1 11.5-.6 14.5zm-73.5-9.8c2.7 2.8 6.4 8.9 6.4 10.3-.1.5-1-.7-2.1-2.8-1.1-2.1-3.9-5.6-6.2-7.9-2.3-2.3-3.3-3.6-2.2-3 1.1.5 3 2.1 4.1 3.4zm-79.4 6.5c1 .9 1.8 2.3 1.8 3.1 0 2.1-3 5.2-4.9 5.2-1 0-.7-.5.9-1.3 2.9-1.5 3.7-4.2 1.9-6.4-1.1-1.3-2.8-1.5-9.7-1-4.6.4-9 1.1-9.8 1.8-.9.7-1.5 3.4-1.6 7.3l-.2 6.1-.3-5.9c-.6-8.9 1.1-10 14.6-10.4 3.8-.2 6 .3 7.3 1.5zm-.7 3.3c0 2-.7 2.6-3.9 3.5l-4 1.1 4.8 3.7c7.5 5.7 14.6 7.9 24.1 7.5 5.7-.2 9.3-1 12.6-2.6 5.1-2.5 7.6-2.1 8.2 1.1l.4 2.2.2-2.2c.2-3.9-3.3-4.8-8.7-2.1-6.2 3-18.1 3.7-24.8 1.4-4.9-1.6-14.8-7.5-14-8.3.2-.2 2.3.9 4.6 2.6 9.3 6.7 24.3 8.1 34.3 3.2 4.5-2.2 4.9-2.2 7.3-.6 2.8 1.8 3 6 .4 6-.8.1-1.4.6-1.3 1.3.3 1.4-3.1 3.7-6.7 4.6-1.4.3-.5-.3 1.9-1.4 2.4-1.1 4.2-2.3 3.9-2.5-.3-.3-2.7.5-5.4 1.7-13 5.7-30.8 2.3-42.9-8.4-3.5-3-3.5-3-3.5-.7 0 1.3.5 3.1 1.1 3.9.8 1.1.9.8.4-1.4-.5-2.6-.4-2.8.9-1.7 1.2 1 1.3 1.8.5 3.2-.5 1-1.3 1.8-1.7 1.7-.4-.1-1.5.2-2.4.6-3.4 1.5-4.6 0-5.3-6.6-1.1-10.3-.6-12.2 3.5-12.9 1.9-.4 6.2-.6 9.5-.5 5.7.1 6 .2 6 2.6zm88.4 8.9c.1 4.8-.5 3.5-1.2-2.4-.4-3.2-.3-4.3.3-3 .5 1.1.9 3.5.9 5.4zm-18.3-3.4c4.1 6.3-1.6 22.7-11.4 32.4-5 5.1-14.4 11.2-16.9 11.1-.4-.1 1.9-1.5 5.1-3.1 12-6.2 21.6-19.3 23.2-31.6.9-7.1-.5-10.4-4.3-10.2l-2.8.2 2.7.4c3.4.5 4.2 2.9 3.3 9.8-1.6 13-10.7 24.6-24.6 31.4l-7.9 3.8 3 1.3c2.2.9 3 1.9 3 3.7 0 3.6-2.6 3.9-8.6 1-5.5-2.7-9.3-3.7-6.4-1.6 1 .7 1.1.9.2.7-.8-.2-1.2-.6-1-1 .2-.3-.5-1.5-1.5-2.5-1.6-1.9-1.6-2.3 1.3-8.7 1.7-3.8 2.9-7 2.7-7.2-.2-.2-1.8 2.8-3.5 6.7-2.5 5.5-2.9 7.5-2.1 9 .5 1 .7 1.9.5 1.9-.3 0-1-.9-1.6-1.9-.8-1.6-.3-3.6 2.4-9.6 2.1-4.4 4-7.4 4.8-7.3.7.2 1.2-.3 1-1-.3-1.8 2.3-2.6 4.5-1.3 1.5.9 1.3 1-1.2.6-3-.5-3-.5-.5.6 1.4.7 3 1.3 3.5 1.3 1.5.2 1.3 6.6-.3 6.6-1 0-1-.5-.2-2.1.6-1.1 1-2.4.8-2.9-.2-.5-1.1.9-2 3.1-1.7 4-1.7 4 .5 3.3 13.4-4 24.7-15.9 26.2-27.6.3-2.4.8-5.6 1-7.1.3-2 .1-2.6-.8-2.1-.8.5-.7.2.2-.9 2-2.5 5.8-2.1 7.7.8zm80.4 11.2c-6 22.5-22.9 46.2-42 59-9.9 6.6-9.2 5.2 1-1.9 19.2-13.5 34.8-36.1 40.3-58.6 1.2-5 2.3-8.4 2.5-7.7.2.8-.6 4.9-1.8 9.2zm-90 .3l-1.1 2.5.6-2.5c.2-1.4.6-4.3.7-6.5l.1-4 .4 4c.2 2.3-.1 5.2-.7 6.5zm-78.8.7c.6.7 2 1.4 3.2 1.4 1.8.1 1.8.2.3.6-2.6.7-5.7-2.5-5.6-5.6l.2-2.6.4 2.5c.3 1.4 1 3.1 1.5 3.7zm21.8 3.1c3.9 1.8 8 2.8 14.5 3.3l9 .7-9.1-.2c-8-.2-9.9-.6-15.5-3.4-3.5-1.7-7.5-4.1-8.9-5.3-2.4-2.1-2.4-2.1 1 .1 1.9 1.2 6 3.3 9 4.8zm84.8 1.4c-.3 2.1-.4 2.1-1.8.3-.9-1.1-1-1.6-.2-1.1s1.2-.2 1.3-2.6c.1-2.3.3-2.6.6-1.1.2 1.3.3 3.3.1 4.5zm-30.3 2c-2.3 4.4-8.3 10.6-12 12.4l-3 1.4 2.5-1.7c5.6-4 9.8-8.5 11.5-12.3 1-2.2 2-3.8 2.2-3.6.3.2-.3 1.9-1.2 3.8zm-27.8-.6c-.3.3-1.2.4-1.9.1-.8-.3-.5-.6.6-.6 1.1-.1 1.7.2 1.3.5zM124 182c-.8.5-1.9 1-2.5 1-.5 0-.3-.5.5-1s2-1 2.5-1c.6 0 .3.5-.5 1zm1.9 12.7c1.9 2.3 2 2.9.8 4.7-2.6 3.9-4.2 4.2-9.6 1.6-2.8-1.3-4.9-2.5-4.7-2.7.2-.3 2.2.5 4.5 1.6 5.1 2.6 6.6 2.6 8.5 0 1.8-2.6 1.1-4.5-2.3-6.4-1.8-1-2.1-1.4-.9-1.5.9 0 2.6 1.2 3.7 2.7zm57.1 28.9c0 2-29 12.5-34.4 12.4-1.1-.1 2-1.2 7-2.4 8.3-2.2 21.8-7.3 25.4-9.6 1.8-1.1 2-1.2 2-.4zM109.5 235c2.7.7 2.7.8.5.8-1.4 0-3.6-.4-5-.8-2-.6-2.1-.8-.5-.8 1.1 0 3.4.4 5 .8zm9.8 1.7c-1.3.2-3.3.2-4.5 0-1.3-.2-.3-.4 2.2-.4s3.5.2 2.3.4zm25 0c-1.3.2-3.3.2-4.5 0-1.3-.2-.3-.4 2.2-.4s3.5.2 2.3.4zm-10.5 1c-2.1.2-5.7.2-8 0-2.4-.2-.7-.4 3.7-.4s6.3.2 4.3.4z"/><path d="M194.5 104.6c.3 2.7.8 6.6 1 8.6.6 4.8-1.4 6.8-6.8 6.9-2.3 0-6 .4-8.2.9-3.1.7-2.3.8 3.5.4 9.2-.7 10.8-1.1 11.9-3.2.9-1.8-.1-16.8-1.3-17.9-.3-.4-.4 1.6-.1 4.3zM152 123.9c0 .5.7 1.5 1.7 2.2 1.5 1.3 1.5 1.2.4-.9-1.2-2.3-2.1-2.8-2.1-1.3zM161.4 164.5c-1.6 2.5-1.5 2.7 4 10 3.3 4.4 6.4 7.5 7.4 7.5 1.6 0 14.2-8.4 14.2-9.5 0-.2-2.9 1.6-6.4 4-3.5 2.5-7.1 4.5-8 4.5-2.1 0-11.7-13.7-10.9-15.7.3-.8 1.5-1.9 2.7-2.3 1.7-.7 1.7-.9.4-.9-1-.1-2.5 1-3.4 2.4z"/></svg>