<?xml version="1.0" encoding="utf-8"?>
<!-- Generator: Adobe Illustrator 22.1.0, SVG Export Plug-In . SVG Version: 6.00 Build 0)  -->
<svg version="1.1" id="Layer_2" xmlns="http://www.w3.org/2000/svg" xmlns:xlink="http://www.w3.org/1999/xlink" x="0px" y="0px"
	 viewBox="0 0 499.9 31.8" style="enable-background:new 0 0 499.9 31.8;" xml:space="preserve">
<style type="text/css">
	.st0{fill:#BDBCBC;}
	.st1{fill:#FFFFFF;}
</style>
<g>
	<path class="st0" d="M3.3,3c1.9-2,4.4-3,7.4-3c4,0,6.9,1.3,8.7,4c1,1.5,1.6,3,1.6,4.5h-5c-0.3-1.1-0.7-2-1.2-2.6
		c-0.9-1-2.2-1.6-4-1.6c-1.8,0-3.2,0.7-4.2,2.2c-1,1.5-1.5,3.5-1.5,6.2s0.5,4.7,1.6,6c1.1,1.3,2.5,2,4.1,2c1.7,0,3-0.6,3.9-1.7
		c0.5-0.6,0.9-1.5,1.2-2.8h5c-0.4,2.6-1.5,4.7-3.3,6.4c-1.8,1.6-4,2.5-6.8,2.5c-3.4,0-6.1-1.1-8-3.3C1,19.6,0,16.6,0,12.7
		C0,8.5,1.1,5.3,3.3,3z"/>
	<path class="st0" d="M31.1,13.7c0.9-0.1,1.5-0.2,1.9-0.4c0.7-0.3,1-0.7,1-1.3c0-0.7-0.3-1.2-0.8-1.5s-1.3-0.4-2.2-0.4
		c-1.1,0-1.9,0.3-2.4,0.8c-0.3,0.4-0.5,0.9-0.7,1.6h-4.5c0.1-1.5,0.5-2.8,1.3-3.8C25.9,7.1,28,6.4,31,6.4c1.9,0,3.7,0.4,5.2,1.2
		c1.5,0.8,2.3,2.2,2.3,4.4V20c0,0.6,0,1.2,0,2c0,0.6,0.1,1,0.3,1.2c0.2,0.2,0.4,0.4,0.7,0.5v0.7h-5c-0.1-0.4-0.2-0.7-0.3-1
		c-0.1-0.3-0.1-0.7-0.1-1.1c-0.6,0.7-1.4,1.3-2.2,1.8c-1,0.6-2.1,0.9-3.4,0.9c-1.6,0-2.9-0.5-4-1.4s-1.6-2.2-1.6-3.9
		c0-2.2,0.8-3.8,2.5-4.7c0.9-0.5,2.3-0.9,4.1-1.1L31.1,13.7z M33.9,15.9c-0.3,0.2-0.6,0.3-0.9,0.4c-0.3,0.1-0.7,0.2-1.2,0.3
		l-1.1,0.2c-1,0.2-1.7,0.4-2.1,0.6c-0.7,0.4-1.1,1.1-1.1,2c0,0.8,0.2,1.4,0.7,1.7c0.4,0.4,1,0.5,1.6,0.5c1,0,1.9-0.3,2.8-0.9
		c0.9-0.6,1.3-1.7,1.3-3.2V15.9z"/>
	<path class="st0" d="M64,6.9c0.8,0.3,1.4,0.8,2.1,1.6c0.5,0.6,0.8,1.4,1,2.3c0.1,0.6,0.2,1.5,0.2,2.6l0,11.2h-4.7V13.2
		c0-0.7-0.1-1.2-0.3-1.7c-0.4-0.8-1.2-1.2-2.3-1.2c-1.3,0-2.2,0.5-2.6,1.6c-0.2,0.6-0.4,1.2-0.4,2v10.5h-4.7V14
		c0-1.1-0.1-1.8-0.3-2.3c-0.4-0.9-1.2-1.3-2.3-1.3c-1.3,0-2.2,0.4-2.7,1.3c-0.2,0.5-0.4,1.2-0.4,2.2v10.7h-4.7V6.8h4.5v2.6
		c0.6-0.9,1.1-1.6,1.6-2c0.9-0.7,2.1-1,3.5-1c1.4,0,2.4,0.3,3.3,0.9c0.7,0.6,1.2,1.3,1.5,2.1c0.6-1,1.4-1.8,2.3-2.3
		c1-0.5,2-0.7,3.2-0.7C62.5,6.4,63.2,6.5,64,6.9z"/>
	<path class="st0" d="M85.9,8.9c1.3,1.7,2,3.8,2,6.5c0,2.8-0.7,5-2,6.8S82.8,25,80.5,25c-1.5,0-2.7-0.3-3.5-0.9
		c-0.5-0.3-1.1-1-1.7-1.8v2.2h-4.6V0.6h4.6v8.5c0.6-0.8,1.2-1.5,1.9-1.9c0.8-0.5,1.9-0.8,3.2-0.8C82.8,6.4,84.6,7.2,85.9,8.9z
		 M82.1,19.7c0.7-1,1-2.2,1-3.8c0-1.3-0.2-2.3-0.5-3.1c-0.6-1.6-1.8-2.3-3.4-2.3c-1.7,0-2.9,0.8-3.5,2.3c-0.3,0.8-0.5,1.9-0.5,3.2
		c0,1.5,0.3,2.8,1,3.8c0.7,1,1.7,1.5,3.1,1.5C80.5,21.2,81.4,20.7,82.1,19.7z"/>
	<path class="st0" d="M100.3,6.4c0.1,0,0.2,0,0.4,0v4.7c-0.3,0-0.6-0.1-0.8-0.1c-0.2,0-0.4,0-0.6,0c-1.9,0-3.1,0.6-3.8,1.8
		c-0.4,0.7-0.5,1.7-0.5,3.2v8.5h-4.7V6.8h4.4v3.1c0.7-1.2,1.3-2,1.9-2.4c0.9-0.7,2-1.1,3.4-1.1C100.2,6.4,100.3,6.4,100.3,6.4z"/>
	<path class="st0" d="M107.5,4.7h-4.7V0.4h4.7V4.7z M102.8,6.8h4.7v17.7h-4.7V6.8z"/>
	<path class="st0" d="M120.7,7.1c0.8,0.5,1.5,1.1,2,2V0.6h4.7v23.9H123V22c-0.7,1.1-1.4,1.8-2.3,2.3c-0.8,0.5-1.9,0.7-3.2,0.7
		c-2.1,0-3.8-0.8-5.2-2.5c-1.4-1.7-2.1-3.8-2.1-6.4c0-3,0.7-5.4,2.1-7.1c1.4-1.7,3.3-2.6,5.6-2.6C119,6.4,119.9,6.6,120.7,7.1z
		 M121.9,19.7c0.7-1,1-2.2,1-3.8c0-2.2-0.5-3.7-1.6-4.6c-0.7-0.6-1.5-0.8-2.3-0.8c-1.4,0-2.3,0.5-3,1.5c-0.6,1-1,2.3-1,3.8
		c0,1.6,0.3,2.9,1,3.9c0.6,1,1.6,1.5,2.9,1.5C120.2,21.2,121.2,20.7,121.9,19.7z"/>
	<path class="st0" d="M139.8,6.8c1.1,0.5,2,1.3,2.7,2.6V6.8h4.5v16.8c0,2.3-0.4,4-1.2,5.2c-1.3,2-3.9,3-7.6,3
		c-2.3,0-4.1-0.4-5.5-1.3c-1.4-0.9-2.2-2.2-2.4-4h5c0.1,0.5,0.3,0.9,0.6,1.2c0.5,0.4,1.3,0.6,2.5,0.6c1.7,0,2.8-0.6,3.3-1.7
		c0.4-0.7,0.6-1.9,0.6-3.6v-1.1c-0.4,0.8-0.9,1.3-1.4,1.7c-0.9,0.7-2.1,1.1-3.6,1.1c-2.3,0-4.1-0.8-5.5-2.4c-1.4-1.6-2-3.8-2-6.5
		c0-2.6,0.7-4.8,2-6.6c1.3-1.8,3.2-2.7,5.6-2.7C138.3,6.4,139.1,6.5,139.8,6.8z M141.4,19.5c0.7-0.8,1.1-2.1,1.1-3.9
		c0-1.7-0.4-3-1.1-3.8c-0.7-0.9-1.7-1.3-2.8-1.3c-1.6,0-2.7,0.8-3.4,2.3c-0.3,0.8-0.5,1.8-0.5,3c0,1,0.2,1.9,0.5,2.7
		c0.6,1.5,1.7,2.2,3.4,2.2C139.7,20.7,140.6,20.3,141.4,19.5z"/>
	<path class="st0" d="M162.2,7.1c1.2,0.6,2.3,1.4,3.1,2.6c0.7,1.1,1.2,2.3,1.4,3.7c0.1,0.8,0.2,2,0.2,3.5h-12.9
		c0.1,1.8,0.7,3,1.9,3.7c0.7,0.4,1.6,0.7,2.6,0.7c1.1,0,1.9-0.3,2.6-0.8c0.4-0.3,0.7-0.7,1-1.2h4.7c-0.1,1.1-0.7,2.1-1.7,3.2
		c-1.6,1.7-3.8,2.6-6.7,2.6c-2.4,0-4.4-0.7-6.2-2.2c-1.8-1.5-2.7-3.8-2.7-7.1c0-3.1,0.8-5.4,2.4-7.1c1.6-1.6,3.7-2.5,6.3-2.5
		C159.6,6.3,161,6.6,162.2,7.1z M155.3,11.1c-0.7,0.7-1.1,1.6-1.2,2.7h8c-0.1-1.2-0.5-2.2-1.2-2.8c-0.7-0.6-1.7-1-2.7-1
		C156.9,10.1,155.9,10.5,155.3,11.1z"/>
	<path class="st1" d="M171.2,3c1.9-2,4.4-3,7.4-3c4,0,6.9,1.3,8.7,4c1,1.5,1.6,3,1.6,4.5h-5c-0.3-1.1-0.7-2-1.2-2.6
		c-0.9-1-2.2-1.6-4-1.6c-1.8,0-3.2,0.7-4.2,2.2c-1,1.5-1.5,3.5-1.5,6.2s0.5,4.7,1.6,6c1.1,1.3,2.5,2,4.1,2c1.7,0,3-0.6,3.9-1.7
		c0.5-0.6,0.9-1.5,1.2-2.8h5c-0.4,2.6-1.5,4.7-3.3,6.4c-1.8,1.6-4,2.5-6.8,2.5c-3.4,0-6.1-1.1-8-3.3c-2-2.2-2.9-5.3-2.9-9.1
		C167.9,8.5,169,5.3,171.2,3z"/>
	<path class="st1" d="M206.7,22.3c-1.5,1.8-3.8,2.8-6.8,2.8c-3,0-5.3-0.9-6.8-2.8s-2.2-4.1-2.2-6.7c0-2.6,0.7-4.8,2.2-6.6
		c1.5-1.9,3.8-2.8,6.8-2.8c3,0,5.3,0.9,6.8,2.8c1.5,1.9,2.2,4.1,2.2,6.6C208.9,18.3,208.2,20.5,206.7,22.3z M203,19.8
		c0.7-1,1.1-2.3,1.1-4.1s-0.4-3.1-1.1-4.1c-0.7-1-1.8-1.4-3.1-1.4c-1.4,0-2.4,0.5-3.1,1.4c-0.7,1-1.1,2.3-1.1,4.1s0.4,3.1,1.1,4.1
		c0.7,1,1.8,1.4,3.1,1.4C201.2,21.2,202.2,20.7,203,19.8z"/>
	<path class="st1" d="M225.8,7.8c1.2,1,1.7,2.5,1.7,4.8v11.9h-4.7V13.7c0-0.9-0.1-1.6-0.4-2.1c-0.5-0.9-1.3-1.4-2.6-1.4
		c-1.6,0-2.6,0.7-3.2,2c-0.3,0.7-0.5,1.6-0.5,2.7v9.6h-4.6V6.8h4.5v2.6c0.6-0.9,1.2-1.6,1.7-2c0.9-0.7,2.2-1.1,3.6-1.1
		C223.2,6.4,224.7,6.8,225.8,7.8z"/>
	<path class="st1" d="M234.8,18.8c0.1,0.8,0.3,1.4,0.6,1.8c0.6,0.6,1.6,0.9,3.2,0.9c0.9,0,1.6-0.1,2.2-0.4c0.5-0.3,0.8-0.7,0.8-1.2
		c0-0.5-0.2-0.9-0.7-1.2c-0.4-0.3-2-0.7-4.8-1.4c-2-0.5-3.4-1.1-4.3-1.9c-0.8-0.7-1.2-1.8-1.2-3.2c0-1.6,0.6-3,1.9-4.2
		c1.3-1.2,3.1-1.8,5.4-1.8c2.2,0,4,0.4,5.4,1.3c1.4,0.9,2.2,2.4,2.4,4.6h-4.6c-0.1-0.6-0.2-1.1-0.5-1.4c-0.5-0.6-1.4-0.9-2.6-0.9
		c-1,0-1.7,0.2-2.2,0.5s-0.6,0.7-0.6,1.1c0,0.5,0.2,0.9,0.7,1.2c0.5,0.2,2.1,0.7,4.8,1.3c1.8,0.4,3.2,1.1,4.1,2
		c0.9,0.9,1.4,2,1.4,3.3c0,1.8-0.7,3.2-2,4.3c-1.3,1.1-3.3,1.7-6.1,1.7c-2.8,0-4.9-0.6-6.2-1.8c-1.3-1.2-2-2.7-2-4.5H234.8z"/>
	<path class="st1" d="M260.6,7.1c1.2,0.6,2.3,1.4,3.1,2.6c0.7,1.1,1.2,2.3,1.4,3.7c0.1,0.8,0.2,2,0.2,3.5h-12.9
		c0.1,1.8,0.7,3,1.9,3.7c0.7,0.4,1.6,0.7,2.6,0.7c1.1,0,1.9-0.3,2.6-0.8c0.4-0.3,0.7-0.7,1-1.2h4.7c-0.1,1.1-0.7,2.1-1.7,3.2
		c-1.6,1.7-3.8,2.6-6.7,2.6c-2.4,0-4.4-0.7-6.2-2.2c-1.8-1.5-2.7-3.8-2.7-7.1c0-3.1,0.8-5.4,2.4-7.1c1.6-1.6,3.7-2.5,6.3-2.5
		C258,6.3,259.4,6.6,260.6,7.1z M253.7,11.1c-0.7,0.7-1.1,1.6-1.2,2.7h8c-0.1-1.2-0.5-2.2-1.2-2.8s-1.7-1-2.7-1
		C255.3,10.1,254.3,10.5,253.7,11.1z"/>
	<path class="st1" d="M276.8,6.4c0.1,0,0.2,0,0.4,0v4.7c-0.3,0-0.6-0.1-0.8-0.1c-0.2,0-0.4,0-0.6,0c-1.9,0-3.1,0.6-3.8,1.8
		c-0.4,0.7-0.5,1.7-0.5,3.2v8.5h-4.7V6.8h4.4v3.1c0.7-1.2,1.3-2,1.9-2.4c0.9-0.7,2-1.1,3.4-1.1C276.6,6.4,276.7,6.4,276.8,6.4z"/>
	<path class="st1" d="M290.1,6.8h5l-6.4,17.7h-4.9l-6.4-17.7h5.2l3.7,13.1L290.1,6.8z"/>
	<path class="st1" d="M304.1,13.7c0.9-0.1,1.5-0.2,1.8-0.4c0.7-0.3,1-0.7,1-1.3c0-0.7-0.3-1.2-0.8-1.5c-0.5-0.3-1.3-0.4-2.2-0.4
		c-1.1,0-1.9,0.3-2.4,0.8c-0.3,0.4-0.5,0.9-0.7,1.6h-4.5c0.1-1.5,0.5-2.8,1.3-3.8c1.2-1.6,3.3-2.3,6.3-2.3c1.9,0,3.7,0.4,5.2,1.2
		c1.5,0.8,2.3,2.2,2.3,4.4V20c0,0.6,0,1.2,0,2c0,0.6,0.1,1,0.3,1.2c0.2,0.2,0.4,0.4,0.7,0.5v0.7h-5c-0.1-0.4-0.2-0.7-0.3-1
		c-0.1-0.3-0.1-0.7-0.1-1.1c-0.6,0.7-1.4,1.3-2.2,1.8c-1,0.6-2.1,0.9-3.4,0.9c-1.6,0-2.9-0.5-4-1.4s-1.6-2.2-1.6-3.9
		c0-2.2,0.8-3.8,2.5-4.7c0.9-0.5,2.3-0.9,4.1-1.1L304.1,13.7z M306.9,15.9c-0.3,0.2-0.6,0.3-0.9,0.4c-0.3,0.1-0.7,0.2-1.2,0.3
		l-1.1,0.2c-1,0.2-1.7,0.4-2.1,0.6c-0.7,0.4-1.1,1.1-1.1,2c0,0.8,0.2,1.4,0.7,1.7s1,0.5,1.6,0.5c1,0,1.9-0.3,2.8-0.9
		c0.9-0.6,1.3-1.7,1.3-3.2V15.9z"/>
	<path class="st1" d="M313.1,10.2V6.9h2.5V2h4.6v4.9h2.9v3.3h-2.9v9.4c0,0.7,0.1,1.2,0.3,1.4s0.7,0.3,1.7,0.3c0.1,0,0.3,0,0.4,0
		c0.2,0,0.3,0,0.5,0v3.5l-2.2,0.1c-2.2,0.1-3.7-0.3-4.5-1.1c-0.5-0.5-0.8-1.3-0.8-2.5V10.2H313.1z"/>
	<path class="st1" d="M330.1,4.7h-4.7V0.4h4.7V4.7z M325.4,6.8h4.7v17.7h-4.7V6.8z"/>
	<path class="st1" d="M348.7,22.3c-1.5,1.8-3.8,2.8-6.8,2.8c-3,0-5.3-0.9-6.8-2.8s-2.2-4.1-2.2-6.7c0-2.6,0.7-4.8,2.2-6.6
		c1.5-1.9,3.8-2.8,6.8-2.8c3,0,5.3,0.9,6.8,2.8c1.5,1.9,2.2,4.1,2.2,6.6C350.9,18.3,350.2,20.5,348.7,22.3z M345,19.8
		c0.7-1,1.1-2.3,1.1-4.1s-0.4-3.1-1.1-4.1c-0.7-1-1.8-1.4-3.1-1.4s-2.4,0.5-3.1,1.4c-0.7,1-1.1,2.3-1.1,4.1s0.4,3.1,1.1,4.1
		s1.8,1.4,3.1,1.4S344.2,20.7,345,19.8z"/>
	<path class="st1" d="M367.8,7.8c1.2,1,1.7,2.5,1.7,4.8v11.9h-4.7V13.7c0-0.9-0.1-1.6-0.4-2.1c-0.5-0.9-1.3-1.4-2.6-1.4
		c-1.6,0-2.6,0.7-3.2,2c-0.3,0.7-0.5,1.6-0.5,2.7v9.6h-4.6V6.8h4.5v2.6c0.6-0.9,1.2-1.6,1.7-2c0.9-0.7,2.2-1.1,3.6-1.1
		C365.2,6.4,366.7,6.8,367.8,7.8z"/>
	<path class="st0" d="M378.2,24.5h-5v-24h5V24.5z"/>
	<path class="st0" d="M396.1,7.8c1.2,1,1.7,2.5,1.7,4.8v11.9h-4.7V13.7c0-0.9-0.1-1.6-0.4-2.1c-0.5-0.9-1.3-1.4-2.6-1.4
		c-1.6,0-2.6,0.7-3.2,2c-0.3,0.7-0.5,1.6-0.5,2.7v9.6h-4.6V6.8h4.5v2.6c0.6-0.9,1.2-1.6,1.7-2c0.9-0.7,2.2-1.1,3.6-1.1
		C393.4,6.4,394.9,6.8,396.1,7.8z"/>
	<path class="st0" d="M406.2,4.7h-4.7V0.4h4.7V4.7z M401.5,6.8h4.7v17.7h-4.7V6.8z"/>
	<path class="st0" d="M408.2,10.2V6.9h2.5V2h4.6v4.9h2.9v3.3h-2.9v9.4c0,0.7,0.1,1.2,0.3,1.4s0.7,0.3,1.7,0.3c0.1,0,0.3,0,0.4,0
		c0.2,0,0.3,0,0.5,0v3.5l-2.2,0.1c-2.2,0.1-3.7-0.3-4.5-1.1c-0.5-0.5-0.8-1.3-0.8-2.5V10.2H408.2z"/>
	<path class="st0" d="M425.2,4.7h-4.7V0.4h4.7V4.7z M420.5,6.8h4.7v17.7h-4.7V6.8z"/>
	<path class="st0" d="M436.1,13.7c0.9-0.1,1.5-0.2,1.8-0.4c0.7-0.3,1-0.7,1-1.3c0-0.7-0.3-1.2-0.8-1.5c-0.5-0.3-1.3-0.4-2.2-0.4
		c-1.1,0-1.9,0.3-2.4,0.8c-0.3,0.4-0.5,0.9-0.7,1.6h-4.5c0.1-1.5,0.5-2.8,1.3-3.8c1.2-1.6,3.3-2.3,6.3-2.3c1.9,0,3.7,0.4,5.2,1.2
		c1.5,0.8,2.3,2.2,2.3,4.4V20c0,0.6,0,1.2,0,2c0,0.6,0.1,1,0.3,1.2c0.2,0.2,0.4,0.4,0.7,0.5v0.7h-5c-0.1-0.4-0.2-0.7-0.3-1
		c-0.1-0.3-0.1-0.7-0.1-1.1c-0.6,0.7-1.4,1.3-2.2,1.8c-1,0.6-2.1,0.9-3.4,0.9c-1.6,0-2.9-0.5-4-1.4s-1.6-2.2-1.6-3.9
		c0-2.2,0.8-3.8,2.5-4.7c0.9-0.5,2.3-0.9,4.1-1.1L436.1,13.7z M438.9,15.9c-0.3,0.2-0.6,0.3-0.9,0.4c-0.3,0.1-0.7,0.2-1.2,0.3
		l-1.1,0.2c-1,0.2-1.7,0.4-2.1,0.6c-0.7,0.4-1.1,1.1-1.1,2c0,0.8,0.2,1.4,0.7,1.7s1,0.5,1.6,0.5c1,0,1.9-0.3,2.8-0.9
		c0.9-0.6,1.3-1.7,1.3-3.2V15.9z"/>
	<path class="st0" d="M445.1,10.2V6.9h2.5V2h4.6v4.9h2.9v3.3h-2.9v9.4c0,0.7,0.1,1.2,0.3,1.4s0.7,0.3,1.7,0.3c0.1,0,0.3,0,0.4,0
		c0.2,0,0.3,0,0.5,0v3.5l-2.2,0.1c-2.2,0.1-3.7-0.3-4.5-1.1c-0.5-0.5-0.8-1.3-0.8-2.5V10.2H445.1z"/>
	<path class="st0" d="M462.1,4.7h-4.7V0.4h4.7V4.7z M457.4,6.8h4.7v17.7h-4.7V6.8z"/>
	<path class="st0" d="M476.8,6.8h5l-6.4,17.7h-4.9l-6.4-17.7h5.2l3.7,13.1L476.8,6.8z"/>
	<path class="st0" d="M495.3,7.1c1.2,0.6,2.3,1.4,3.1,2.6c0.7,1.1,1.2,2.3,1.4,3.7c0.1,0.8,0.2,2,0.2,3.5H487c0.1,1.8,0.7,3,1.9,3.7
		c0.7,0.4,1.6,0.7,2.6,0.7c1.1,0,1.9-0.3,2.6-0.8c0.4-0.3,0.7-0.7,1-1.2h4.7c-0.1,1.1-0.7,2.1-1.7,3.2c-1.6,1.7-3.8,2.6-6.7,2.6
		c-2.4,0-4.4-0.7-6.2-2.2c-1.8-1.5-2.7-3.8-2.7-7.1c0-3.1,0.8-5.4,2.4-7.1c1.6-1.6,3.7-2.5,6.3-2.5C492.7,6.3,494.1,6.6,495.3,7.1z
		 M488.4,11.1c-0.7,0.7-1.1,1.6-1.2,2.7h8c-0.1-1.2-0.5-2.2-1.2-2.8c-0.7-0.6-1.7-1-2.7-1C489.9,10.1,489,10.5,488.4,11.1z"/>
</g>
</svg>
