<?xml version="1.0" encoding="UTF-8" standalone="no"?>
<svg
   xmlns:dc="http://purl.org/dc/elements/1.1/"
   xmlns:cc="http://creativecommons.org/ns#"
   xmlns:rdf="http://www.w3.org/1999/02/22-rdf-syntax-ns#"
   xmlns:svg="http://www.w3.org/2000/svg"
   xmlns="http://www.w3.org/2000/svg"
   viewBox="0 0 649.56421 38.607334"
   height="38.607334"
   width="649.56421"
   xml:space="preserve"
   id="svg2"
   version="1.1"><metadata
     id="metadata8"><rdf:RDF><cc:Work
         rdf:about=""><dc:format>image/svg+xml</dc:format><dc:type
           rdf:resource="http://purl.org/dc/dcmitype/StillImage" /></cc:Work></rdf:RDF></metadata><defs
     id="defs6" /><g
     transform="matrix(1.3333333,0,0,-1.3333333,0,38.607332)"
     id="g10"><g
       transform="scale(0.1)"
       id="g12"><path
         id="path14"
         style="fill:#737476;fill-opacity:1;fill-rule:nonzero;stroke:none"
         d="m 158.359,209.281 c -3.437,22.168 -24.675,39.043 -48.726,39.043 -44.0432,0 -60.5939,-37.48 -60.5939,-76.531 0,-37.176 16.5507,-74.6524 60.5939,-74.6524 29.984,0 46.851,20.3004 50.601,49.9764 h 47.477 C 202.715,91.2031 164.605,55.9102 109.633,55.9102 40.918,55.9102 0,107.453 0,171.793 c 0,66.219 40.918,117.762 109.633,117.762 48.726,0 90.269,-28.739 96.203,-80.274 h -47.477" /><path
         id="path16"
         style="fill:#737476;fill-opacity:1;fill-rule:nonzero;stroke:none"
         d="m 337.055,140.242 c -7.492,-6.558 -23.11,-6.875 -36.856,-9.363 -13.746,-2.5 -26.234,-7.5 -26.234,-23.738 0,-16.2426 12.805,-20.6176 27.172,-20.6176 34.668,0 35.918,27.1676 35.918,37.1676 z m -102.45,32.801 c 2.5,41.23 39.672,54.043 75.903,54.043 32.172,0 70.902,-7.188 70.902,-45.918 V 97.1406 c 0,-14.6797 1.563,-29.3554 5.621,-35.9179 h -44.976 c -1.563,5 -2.813,10.3007 -3.125,15.6132 -14.059,-14.6757 -34.356,-19.9882 -54.344,-19.9882 -30.926,0 -54.977,15.3007 -54.977,48.4183 0.625,73.402 109.321,34.043 107.446,70.277 0,18.738 -13.114,21.863 -28.735,21.863 -17.175,0 -27.797,-6.863 -29.359,-24.363 h -44.356" /><path
         id="path18"
         style="fill:#737476;fill-opacity:1;fill-rule:nonzero;stroke:none"
         d="m 417.047,222.711 h 41.855 v -21.867 h 0.625 c 11.559,16.554 28.11,26.242 49.352,26.242 20.301,0 38.418,-7.188 47.16,-26.867 9.684,14.054 26.242,26.867 48.727,26.867 34.359,0 59.039,-15.938 59.039,-57.785 V 61.2227 h -44.356 v 91.5113 c 0,21.559 -1.875,39.36 -27.176,39.36 -24.988,0 -29.671,-20.926 -29.671,-40.91 V 61.2227 h -44.356 v 90.5743 c 0,18.754 1.25,40.297 -26.859,40.297 -8.746,0 -29.985,-5.614 -29.985,-37.168 V 61.2227 H 417.047 V 222.711" /><path
         id="path20"
         style="fill:#737476;fill-opacity:1;fill-rule:nonzero;stroke:none"
         d="m 779.41,193.656 c -26.234,0 -37.793,-24.355 -37.793,-51.847 0,-26.868 11.559,-51.5356 37.793,-51.5356 26.238,0 37.793,24.6676 37.793,51.5356 0,27.492 -11.555,51.847 -37.793,51.847 z m -80.586,90.586 h 44.356 v -81.211 h 0.625 c 10.929,16.555 30.922,24.055 50.914,24.055 32.172,0 66.84,-25.93 66.84,-84.969 0,-59.0311 -34.668,-85.2693 -66.84,-85.2693 -23.742,0 -43.418,7.1875 -53.102,24.9882 h -0.625 V 61.2227 H 698.824 V 284.242" /><path
         id="path22"
         style="fill:#737476;fill-opacity:1;fill-rule:nonzero;stroke:none"
         d="m 889.695,222.711 h 42.168 v -29.992 h 0.625 c 8.434,20.304 29.364,34.367 51.539,34.367 3.438,0 6.559,-0.625 9.684,-1.563 v -41.23 c -4.063,0.937 -10.621,1.562 -15.934,1.562 -32.793,0 -43.722,-23.117 -43.722,-51.863 V 61.2227 h -44.36 V 222.711" /><path
         id="path24"
         style="fill:#737476;fill-opacity:1;fill-rule:nonzero;stroke:none"
         d="m 1012.47,222.711 h 44.36 V 61.2227 h -44.36 z m 44.36,24.988 h -44.36 v 36.543 h 44.36 v -36.543" /><path
         id="path26"
         style="fill:#737476;fill-opacity:1;fill-rule:nonzero;stroke:none"
         d="m 1168.34,193.656 c -29.04,0 -39.04,-25.293 -39.04,-51.539 0,-25.301 11.55,-51.8436 39.04,-51.8436 29.05,0 38.11,25.6056 38.11,52.1606 0,26.242 -9.37,51.222 -38.11,51.222 z m 38.74,-111.8201 h -0.63 c -10.31,-17.4882 -28.11,-24.9882 -49.04,-24.9882 -48.72,0 -72.46,41.5429 -72.46,86.5193 0,43.426 24.05,83.719 71.52,83.719 19.06,0 37.8,-8.125 47.79,-24.055 h 0.63 v 81.211 h 44.35 V 61.2227 h -42.16 v 20.6132" /><path
         id="path28"
         style="fill:#737476;fill-opacity:1;fill-rule:nonzero;stroke:none"
         d="m 1395.76,143.992 c 0,26.246 -9.06,49.664 -37.79,49.664 -24.99,0 -35.92,-21.863 -35.92,-45.914 0,-23.113 8.43,-48.4139 35.92,-48.4139 25.3,0 37.79,21.5509 37.79,44.6639 z m 42.17,-72.4686 C 1437.93,44.9805 1428.25,0 1354.22,0 1322.36,0 1285.5,15.3047 1283,51.8477 h 44.05 c 4.05,-16.5547 17.17,-22.168 33.11,-22.168 24.67,0 35.91,16.5508 35.6,39.9805 v 21.2382 h -0.62 c -9.69,-17.1875 -28.74,-24.9882 -48.42,-24.9882 -48.72,0 -69.02,36.8558 -69.02,81.2068 0,41.863 24.36,79.969 69.34,79.969 21.24,0 37.16,-7.188 48.1,-25.93 h 0.62 v 21.555 h 42.17 V 71.5234" /><path
         id="path30"
         style="fill:#737476;fill-opacity:1;fill-rule:nonzero;stroke:none"
         d="m 1582.26,159.301 c -4.06,22.492 -13.74,34.355 -35.3,34.355 -28.73,0 -35.92,-21.863 -36.85,-34.355 z m -72.15,-28.117 c 1.25,-28.418 14.68,-40.9106 39.67,-40.9106 17.8,0 32.16,10.9296 34.98,20.9296 h 39.04 c -12.49,-38.4296 -39.04,-54.3553 -75.59,-54.3553 -50.91,0 -82.46,34.9804 -82.46,84.9613 0,48.421 33.42,85.277 82.46,85.277 54.97,0 81.84,-46.231 78.4,-95.902 h -116.5" /><path
         id="path32"
         style="fill:#6cc62e;fill-opacity:1;fill-rule:nonzero;stroke:none"
         d="m 1806.24,209.281 c -3.44,22.168 -24.68,39.043 -48.73,39.043 -44.04,0 -60.59,-37.48 -60.59,-76.531 0,-37.176 16.55,-74.6524 60.59,-74.6524 29.99,0 46.86,20.3004 50.61,49.9764 h 47.47 c -4.99,-55.9139 -43.1,-91.2068 -98.08,-91.2068 -68.71,0 -109.63,51.5428 -109.63,115.8828 0,66.219 40.92,117.762 109.63,117.762 48.73,0 90.27,-28.739 96.21,-80.274 h -47.48" /><path
         id="path34"
         style="fill:#6cc62e;fill-opacity:1;fill-rule:nonzero;stroke:none"
         d="m 1962.76,90.2734 c 30.3,0 39.36,25.6056 39.36,51.5356 0,25.929 -9.06,51.847 -39.36,51.847 -29.99,0 -39.04,-25.918 -39.04,-51.847 0,-25.93 9.05,-51.5356 39.04,-51.5356 z m 0,136.8126 c 50.91,0 83.71,-33.742 83.71,-85.277 0,-51.2231 -32.8,-84.9613 -83.71,-84.9613 -50.6,0 -83.39,33.7382 -83.39,84.9613 0,51.535 32.79,85.277 83.39,85.277" /><path
         id="path36"
         style="fill:#6cc62e;fill-opacity:1;fill-rule:nonzero;stroke:none"
         d="m 2075.23,222.711 h 42.17 v -22.492 h 0.94 c 11.24,18.429 30.61,26.867 49.35,26.867 47.16,0 59.03,-26.555 59.03,-66.535 V 61.2227 h -44.35 v 91.1993 c 0,26.558 -7.5,39.672 -28.42,39.672 -24.05,0 -34.36,-13.426 -34.36,-46.227 V 61.2227 h -44.36 V 222.711" /><path
         id="path38"
         style="fill:#6cc62e;fill-opacity:1;fill-rule:nonzero;stroke:none"
         d="m 2294.84,113.691 c 0,-19.0504 16.87,-27.1676 34.05,-27.1676 12.49,0 29.05,4.9922 29.05,20.6176 0,13.425 -18.75,18.425 -50.29,24.976 -25.93,5.942 -51.22,14.375 -51.22,43.113 0,41.231 35.6,51.856 70.27,51.856 34.98,0 67.78,-11.875 71.22,-51.543 h -42.17 c -1.25,17.176 -14.37,21.863 -30.3,21.863 -9.99,0 -24.67,-1.562 -24.67,-14.988 0,-15.93 25.3,-18.117 50.28,-24.055 25.93,-5.941 51.23,-15.304 51.23,-45.297 0,-42.4683 -37.17,-56.2183 -73.71,-56.2183 -37.49,0 -74.34,14.0625 -75.9,56.8433 h 42.16" /><path
         id="path40"
         style="fill:#6cc62e;fill-opacity:1;fill-rule:nonzero;stroke:none"
         d="m 2536.93,159.301 c -4.05,22.492 -13.74,34.355 -35.29,34.355 -28.73,0 -35.92,-21.863 -36.85,-34.355 z m -72.14,-28.117 c 1.25,-28.418 14.67,-40.9106 39.66,-40.9106 17.81,0 32.17,10.9296 34.98,20.9296 h 39.05 c -12.5,-38.4296 -39.05,-54.3553 -75.59,-54.3553 -50.91,0 -82.46,34.9804 -82.46,84.9613 0,48.421 33.42,85.277 82.46,85.277 54.97,0 81.83,-46.231 78.39,-95.902 h -116.49" /><path
         id="path42"
         style="fill:#6cc62e;fill-opacity:1;fill-rule:nonzero;stroke:none"
         d="m 2607.55,222.711 h 42.17 v -29.992 h 0.63 c 8.43,20.304 29.36,34.367 51.53,34.367 3.44,0 6.56,-0.625 9.69,-1.563 v -41.23 c -4.07,0.937 -10.63,1.562 -15.93,1.562 -32.8,0 -43.73,-23.117 -43.73,-51.863 V 61.2227 h -44.36 V 222.711" /><path
         id="path44"
         style="fill:#6cc62e;fill-opacity:1;fill-rule:nonzero;stroke:none"
         d="m 2818.4,61.2227 h -49.35 l -55.29,161.4883 h 46.55 l 34.04,-110.27 h 0.63 l 34.04,110.27 h 44.04 L 2818.4,61.2227" /><path
         id="path46"
         style="fill:#6cc62e;fill-opacity:1;fill-rule:nonzero;stroke:none"
         d="m 2992.09,140.242 c -7.49,-6.558 -23.11,-6.875 -36.85,-9.363 -13.74,-2.5 -26.24,-7.5 -26.24,-23.738 0,-16.2426 12.81,-20.6176 27.18,-20.6176 34.66,0 35.91,27.1676 35.91,37.1676 z m -102.45,32.801 c 2.5,41.23 39.67,54.043 75.9,54.043 32.18,0 70.91,-7.188 70.91,-45.918 V 97.1406 c 0,-14.6797 1.56,-29.3554 5.63,-35.9179 h -44.99 c -1.56,5 -2.81,10.3007 -3.12,15.6132 -14.05,-14.6757 -34.36,-19.9882 -54.35,-19.9882 -30.92,0 -54.98,15.3007 -54.98,48.4183 0.63,73.402 109.33,34.043 107.45,70.277 0,18.738 -13.11,21.863 -28.73,21.863 -17.18,0 -27.8,-6.863 -29.36,-24.363 h -44.36" /><path
         id="path48"
         style="fill:#6cc62e;fill-opacity:1;fill-rule:nonzero;stroke:none"
         d="m 3127.05,222.711 h 32.49 v -29.68 h -32.49 v -79.965 c 0,-14.9879 3.75,-18.7379 18.74,-18.7379 5,0 9.68,0.3125 13.75,1.25 V 60.9102 c -7.5,-1.25 -17.18,-1.5625 -25.93,-1.5625 -27.49,0 -50.91,5.9375 -50.91,38.4179 v 95.2654 h -26.87 v 29.68 h 26.87 v 48.418 h 44.35 v -48.418" /><path
         id="path50"
         style="fill:#6cc62e;fill-opacity:1;fill-rule:nonzero;stroke:none"
         d="m 3182.04,222.711 h 44.35 V 61.2227 h -44.35 z m 44.35,24.988 h -44.35 v 36.543 h 44.35 v -36.543" /><path
         id="path52"
         style="fill:#6cc62e;fill-opacity:1;fill-rule:nonzero;stroke:none"
         d="m 3339.78,90.2734 c 30.3,0 39.36,25.6056 39.36,51.5356 0,25.929 -9.06,51.847 -39.36,51.847 -29.98,0 -39.04,-25.918 -39.04,-51.847 0,-25.93 9.06,-51.5356 39.04,-51.5356 z m 0,136.8126 c 50.92,0 83.71,-33.742 83.71,-85.277 0,-51.2231 -32.79,-84.9613 -83.71,-84.9613 -50.6,0 -83.4,33.7382 -83.4,84.9613 0,51.535 32.8,85.277 83.4,85.277" /><path
         id="path54"
         style="fill:#6cc62e;fill-opacity:1;fill-rule:nonzero;stroke:none"
         d="m 3452.26,222.711 h 42.17 v -22.492 h 0.94 c 11.24,18.429 30.6,26.867 49.35,26.867 47.16,0 59.03,-26.555 59.03,-66.535 V 61.2227 h -44.35 v 91.1993 c 0,26.558 -7.5,39.672 -28.43,39.672 -24.05,0 -34.35,-13.426 -34.35,-46.227 V 61.2227 h -44.36 V 222.711" /><path
         id="path56"
         style="fill:#737476;fill-opacity:1;fill-rule:nonzero;stroke:none"
         d="m 3642.19,284.242 h 49.04 V 61.2227 h -49.04 V 284.242" /><path
         id="path58"
         style="fill:#737476;fill-opacity:1;fill-rule:nonzero;stroke:none"
         d="m 3729.66,222.711 h 42.17 v -22.492 h 0.94 c 11.24,18.429 30.6,26.867 49.35,26.867 47.16,0 59.04,-26.555 59.04,-66.535 V 61.2227 h -44.36 v 91.1993 c 0,26.558 -7.5,39.672 -28.43,39.672 -24.05,0 -34.35,-13.426 -34.35,-46.227 V 61.2227 h -44.36 V 222.711" /><path
         id="path60"
         style="fill:#737476;fill-opacity:1;fill-rule:nonzero;stroke:none"
         d="m 3916.16,222.711 h 44.35 V 61.2227 h -44.35 z m 44.35,24.988 h -44.35 v 36.543 h 44.35 v -36.543" /><path
         id="path62"
         style="fill:#737476;fill-opacity:1;fill-rule:nonzero;stroke:none"
         d="m 4051.73,222.711 h 32.49 v -29.68 h -32.49 v -79.965 c 0,-14.9879 3.75,-18.7379 18.74,-18.7379 5,0 9.69,0.3125 13.75,1.25 V 60.9102 c -7.5,-1.25 -17.17,-1.5625 -25.92,-1.5625 -27.49,0 -50.91,5.9375 -50.91,38.4179 v 95.2654 h -26.87 v 29.68 h 26.87 v 48.418 h 44.34 v -48.418" /><path
         id="path64"
         style="fill:#737476;fill-opacity:1;fill-rule:nonzero;stroke:none"
         d="m 4106.72,222.711 h 44.36 V 61.2227 h -44.36 z m 44.36,24.988 h -44.36 v 36.543 h 44.36 v -36.543" /><path
         id="path66"
         style="fill:#737476;fill-opacity:1;fill-rule:nonzero;stroke:none"
         d="m 4286.65,140.242 c -7.49,-6.558 -23.12,-6.875 -36.86,-9.363 -13.74,-2.5 -26.24,-7.5 -26.24,-23.738 0,-16.2426 12.81,-20.6176 27.18,-20.6176 34.67,0 35.92,27.1676 35.92,37.1676 z m -102.46,32.801 c 2.5,41.23 39.67,54.043 75.9,54.043 32.18,0 70.91,-7.188 70.91,-45.918 V 97.1406 c 0,-14.6797 1.56,-29.3554 5.63,-35.9179 h -44.98 c -1.57,5 -2.82,10.3007 -3.13,15.6132 -14.05,-14.6757 -34.35,-19.9882 -54.35,-19.9882 -30.92,0 -54.98,15.3007 -54.98,48.4183 0.63,73.402 109.33,34.043 107.46,70.277 0,18.738 -13.12,21.863 -28.73,21.863 -17.19,0 -27.81,-6.863 -29.37,-24.363 h -44.36" /><path
         id="path68"
         style="fill:#737476;fill-opacity:1;fill-rule:nonzero;stroke:none"
         d="m 4421.6,222.711 h 32.49 v -29.68 h -32.49 v -79.965 c 0,-14.9879 3.75,-18.7379 18.74,-18.7379 5,0 9.68,0.3125 13.75,1.25 V 60.9102 c -7.5,-1.25 -17.18,-1.5625 -25.93,-1.5625 -27.49,0 -50.91,5.9375 -50.91,38.4179 v 95.2654 h -26.86 v 29.68 h 26.86 v 48.418 h 44.35 v -48.418" /><path
         id="path70"
         style="fill:#737476;fill-opacity:1;fill-rule:nonzero;stroke:none"
         d="m 4476.59,222.711 h 44.35 V 61.2227 h -44.35 z m 44.35,24.988 h -44.35 v 36.543 h 44.35 v -36.543" /><path
         id="path72"
         style="fill:#737476;fill-opacity:1;fill-rule:nonzero;stroke:none"
         d="m 4645.28,61.2227 h -49.36 l -55.28,161.4883 h 46.54 l 34.05,-110.27 h 0.62 l 34.04,110.27 h 44.05 L 4645.28,61.2227" /><path
         id="path74"
         style="fill:#737476;fill-opacity:1;fill-rule:nonzero;stroke:none"
         d="m 4827.08,159.301 c -4.06,22.492 -13.75,34.355 -35.3,34.355 -28.73,0 -35.92,-21.863 -36.85,-34.355 z m -72.15,-28.117 c 1.25,-28.418 14.68,-40.9106 39.66,-40.9106 17.81,0 32.18,10.9296 34.99,20.9296 h 39.05 c -12.5,-38.4296 -39.05,-54.3553 -75.6,-54.3553 -50.91,0 -82.45,34.9804 -82.45,84.9613 0,48.421 33.42,85.277 82.45,85.277 54.98,0 81.84,-46.231 78.41,-95.902 h -116.51" /></g></g></svg>