<?xml version="1.0" encoding="UTF-8" standalone="no"?>
<svg
   xmlns:dc="http://purl.org/dc/elements/1.1/"
   xmlns:cc="http://creativecommons.org/ns#"
   xmlns:rdf="http://www.w3.org/1999/02/22-rdf-syntax-ns#"
   xmlns:svg="http://www.w3.org/2000/svg"
   xmlns="http://www.w3.org/2000/svg"
   viewBox="0 0 246.17197 72.138542"
   height="72.138542"
   width="246.17197"
   xml:space="preserve"
   id="svg2"
   version="1.1"><metadata
     id="metadata8"><rdf:RDF><cc:Work
         rdf:about=""><dc:format>image/svg+xml</dc:format><dc:type
           rdf:resource="http://purl.org/dc/dcmitype/StillImage" /></cc:Work></rdf:RDF></metadata><defs
     id="defs6" /><g
     transform="matrix(1.3333333,0,0,-1.3333333,-0.05468747,70.666665)"
     id="g10"><g
       transform="scale(0.1)"
       id="g12"><path
         id="path14"
         style="fill:#ffffff;fill-opacity:1;fill-rule:evenodd;stroke:none"
         d="M 1846.7,527.559 H 0.410156 V -11.0391 H 1846.7 V 527.559" /><path
         id="path16"
         style="fill:#000000;fill-opacity:1;fill-rule:nonzero;stroke:none"
         d="M 90,55 C 90,48 89,42 86,37 81,28 73,24 61,24 49,24 40,29 35,37 33,42 32,48 32,55 v 80 H 4 V 53 C 4,42 6,33 10,26 19,9 36,1 61,1 c 25,0 42,8 51,25 4,7 6,16 6,27 v 82 H 90 Z m 143,15 h 1 V 48 c -4,5 -8,11 -14,18 l -53,69 H 140 V 3 h 27 v 71 c 0,6 0,15 -1,19 5,-6 9,-12 14,-18 L 235,3 h 25 v 132 h -27 z m 51,65 h 27 V 3 H 284 Z M 396,67 c -4,-10 -7,-19 -9,-26 -3,8 -6,16 -9,26 l -28,68 H 321 L 375,2 h 23 l 54,133 h -29 z m 133,45 7,23 H 460 V 3 h 76 v 24 h -48 v 32 h 41 v 23 h -41 v 30 z m 88,-49 c 15,5 26,17 26,34 0,14 -6,27 -21,33 -7,3 -16,5 -28,5 H 555 V 3 h 27 v 50 h 10 c 3,-1 8,-6 14,-18 L 623,3 h 31 l -21,38 c -6,12 -12,20 -16,22 z m -11,15 c -3,-2 -7,-3 -13,-3 h -10 v 38 h 10 c 6,0 10,-1 13,-3 6,-3 9,-9 9,-16 0,-7 -4,-13 -9,-16 z m 91,23 c 0,9 7,12 16,12 11,0 21,-3 33,-9 v 26 c -8,4 -19,7 -33,7 -28,0 -44,-18 -44,-38 0,-40 56,-37 56,-61 0,-10 -10,-14 -20,-14 -12,0 -22,4 -30,10 L 665,13 c 11,-8 26,-12 41,-12 28,0 49,15 49,39 -2,42 -58,39 -58,61 z m 73,34 h 27 V 3 h -27 z m 36,-23 h 39 V 3 h 27 v 109 h 35 l 7,23 H 806 Z M 977,79 h -1 l -29,56 H 917 L 963,56 V 3 h 27 v 52 l 46,80 h -30 z m 153,58 c -40,0 -67,-28 -67,-68 0,-40 28,-68 67,-68 39,0 67,27 67,68 0,40 -28,68 -67,68 z m 0,-113 c -23,0 -38,16 -38,45 0,29 15,45 38,45 23,0 38,-16 38,-45 0,-29 -16,-45 -38,-45 z m 84,-21 h 27 v 56 h 42 v 23 h -42 v 30 h 42 l 7,23 h -76 z m 157,132 h -28 V 3 h 74 v 24 h -46 z m 132,-23 7,23 h -76 V 3 h 76 v 24 h -49 v 32 h 42 v 23 h -42 v 30 z m 94,0 7,23 h -76 V 3 h 76 v 24 h -49 v 32 h 42 v 23 h -42 v 30 z m 66,23 h -44 V 3 h 42 c 45,0 75,26 75,67 0,40 -26,65 -73,65 z m -2,-108 h -15 v 85 h 14 c 30,0 46,-16 46,-42 1,-24 -12,-43 -45,-43 z m 111,74 c 0,9 7,12 16,12 11,0 21,-3 33,-9 v 26 c -8,4 -19,7 -33,7 -28,0 -44,-18 -44,-38 0,-40 56,-37 56,-61 0,-10 -10,-14 -20,-14 -12,0 -22,4 -30,10 l -10,-21 c 11,-8 26,-12 41,-12 28,0 49,15 49,39 -1,42 -58,39 -58,61 z m -22,309 h 10 v 10 h 10 v 10 h -20 z m 0,-80 h 10 v 40 h 10 v 10 h -20 z m -50,70 h 70 v -10 h -70 z m 25,-70 h 10 v 40 h 10 v 10 h -20 z m 10,90 h 10 v 10 h -20 v -20 h 10 z m -25,0 h 10 v 10 h -20 v -20 h 10 z m -10,-90 h 10 v 40 h 10 v 10 h -20 z m 20,-40 h 10 v -10 h -10 z m 10,-10 h 10 v -10 h -10 z m 10,10 h 10 v -10 h -10 z m -10,10 h 10 v -10 h -10 v 10" /><path
         id="path18"
         style="fill:#000000;fill-opacity:1;fill-rule:nonzero;stroke:none"
         d="M 1510,530 V 210 h 160 v 90 h 30 v -90 h 10 v 100 h 50 V 210 h 10 v 90 h 30 v -90 h 30 v 320 z m 226,-30 34,-30 h -70 z m -41,-39 h 79 l 1,-11 h -80 z m 105,-151 h -30 v 10 h -70 v -10 h -30 v 10 h 10 v 80 h 10 v 40 h 90 v -39 h 10 v -80 h 10 v -11" /></g></g></svg>