<?xml version="1.0" encoding="UTF-8"?>
<!DOCTYPE svg PUBLIC "-//W3C//DTD SVG 1.1//EN" "http://www.w3.org/Graphics/SVG/1.1/DTD/svg11.dtd">
<!-- Creator: CorelDRAW X6 -->
<svg xmlns="http://www.w3.org/2000/svg" xml:space="preserve" width="1.41666in" height="1.18055in" version="1.1" style="shape-rendering:geometricPrecision; text-rendering:geometricPrecision; image-rendering:optimizeQuality; fill-rule:evenodd; clip-rule:evenodd"
viewBox="0 0 1417 1181"
 xmlns:xlink="http://www.w3.org/1999/xlink">
 <defs>
  <style type="text/css">
   <![CDATA[
    .fil0 {fill:#203A65;fill-rule:nonzero}
    .fil1 {fill:#FEFEFE;fill-rule:nonzero}
   ]]>
  </style>
 </defs>
 <g id="Layer_x0020_1">
  <metadata id="CorelCorpID_0Corel-Layer"/>
  <polygon class="fil0" points="1425,-6 1425,1181 0,1181 0,-6 "/>
  <path class="fil1" d="M216 1032l-2 9c-5,19 -25,22 -37,22 -28,0 -54,-20 -54,-68 0,-44 21,-68 53,-68 20,0 33,8 36,20l2 7 6 0 0 -27c-14,-5 -28,-7 -42,-7 -47,0 -74,38 -74,75 0,43 32,73 74,73 16,0 32,-4 44,-9l3 -28 -7 0 0 0z"/>
  <path class="fil1" d="M292 997c0,43 32,73 74,73 42,0 74,-30 74,-73 0,-37 -27,-75 -74,-75 -47,0 -74,38 -74,75l0 0zm20 -1c0,-44 21,-68 54,-68 28,0 54,21 54,68 0,50 -23,68 -54,68 -28,0 -54,-20 -54,-68l0 0z"/>
  <path class="fil1" d="M589 931c13,0 15,1 16,2 2,2 3,16 3,81 0,41 -24,48 -44,48 -25,0 -35,-14 -35,-37 0,-7 0,-13 0,-18l1 -58c0,-15 1,-17 4,-17 2,0 13,-1 16,-1l0 -6c-10,0 -20,1 -30,1 -8,0 -17,0 -25,-1l0 6c15,1 17,1 17,8l0 87c0,28 21,45 52,45 35,0 51,-21 52,-50l2 -82c0,-7 1,-8 13,-8l0 -6c-6,0 -13,1 -20,1 -7,0 -15,0 -22,-1l0 6z"/>
  <path class="fil1" d="M688 1067c6,0 11,-1 20,-1 10,0 15,0 21,1l0 -7 -9 -1c-5,0 -6,-4 -6,-8 -1,-25 -1,-76 -2,-105l0 0c31,37 69,84 98,124l5 0 0 -19c0,-63 2,-113 3,-116 1,-4 4,-4 14,-4l0 -6c-7,0 -14,1 -21,1 -5,0 -8,0 -20,-1l0 6c12,0 14,1 15,3 1,1 3,12 3,72 0,12 0,21 0,33 -28,-33 -60,-73 -90,-114 -4,0 -9,1 -14,1 -6,0 -11,0 -17,-1l0 6c7,0 12,1 13,2 2,1 3,4 3,21 0,91 -2,101 -3,103 -1,1 -3,2 -13,3l0 7z"/>
  <path class="fil1" d="M1004 1032l-2 9c-5,19 -25,22 -37,22 -28,0 -54,-20 -54,-68 0,-44 21,-68 53,-68 20,0 33,8 36,20l2 7 6 0 0 -27c-14,-5 -28,-7 -42,-7 -47,0 -74,38 -74,75 0,43 32,73 74,73 16,0 32,-4 44,-9l3 -28 -7 0 0 0z"/>
  <path class="fil1" d="M1077 1067c8,0 18,-1 32,-1 14,0 24,0 32,1l0 -6c-15,-1 -19,-1 -21,-3 -2,-2 -2,-14 -2,-36l0 -52c0,-22 0,-35 2,-36 2,-2 6,-2 21,-3l0 -6c-8,0 -18,1 -32,1 -14,0 -24,0 -32,-1l0 6c15,1 19,1 21,3 2,2 2,14 2,36l0 52c0,22 0,35 -2,36 -2,2 -6,2 -21,3l0 6z"/>
  <path class="fil1" d="M1210 1067c22,0 44,-1 60,-1 14,0 30,0 48,1l8 -37 -6 -1 -7 15c-6,13 -7,14 -50,14 -12,0 -14,-1 -14,-6 0,-25 -1,-52 -1,-79 0,-29 1,-39 2,-40 1,-2 3,-2 19,-4l0 -6c-7,0 -19,1 -28,1 -7,0 -22,0 -32,-1l0 6c17,1 18,2 19,3 1,2 2,6 2,37l0 51c0,31 -1,35 -2,37 -1,1 -2,2 -19,3l0 6z"/>
  <path class="fil1" d="M98 890c9,0 19,-1 31,-1 14,0 24,0 32,1l0 -6c-15,-1 -19,-1 -21,-3 -2,-2 -2,-14 -2,-36l0 -25 13 0c7,0 9,2 17,16 10,17 18,31 29,54 6,0 20,0 28,1l0 -7c-11,-1 -12,-1 -14,-5l-20 -36c-14,-24 -16,-26 -20,-27l0 0c27,-6 33,-22 33,-34 0,-20 -15,-34 -42,-34 -12,0 -17,1 -28,1 -12,0 -27,-1 -35,-1l0 6c16,1 19,1 21,3 2,2 2,14 2,36l0 52c0,22 0,35 -2,36 -2,2 -6,2 -21,3l0 6zm40 -113c0,-21 2,-23 9,-23 23,0 38,6 38,30 0,22 -15,30 -41,30 -3,0 -5,0 -7,0l0 -36z"/>
  <path class="fil1" d="M267 890c15,-1 32,-1 54,-1 22,0 44,0 59,1l6 -35 -7 0c-7,22 -11,26 -30,26l-36 0c-8,0 -9,0 -9,-18 0,-15 0,-29 1,-44 6,0 14,0 22,0 6,0 13,0 17,1 8,1 9,1 9,18l6 0c0,-7 0,-16 0,-22 0,-7 0,-13 0,-21l-6 0 0 9c0,8 -1,10 -22,10 -12,0 -20,0 -26,0l1 -52c0,-5 0,-6 26,-6 30,0 31,1 33,12l2 11 7 0 0 -29c-12,0 -67,1 -77,1 -7,0 -22,0 -32,-1l0 6c17,1 18,2 19,3 1,2 2,6 2,37l0 51c0,31 -1,35 -2,37 -1,1 -2,2 -19,3l0 6z"/>
  <path class="fil1" d="M433 883c7,5 21,9 34,9 35,0 49,-25 49,-43 0,-19 -8,-27 -43,-47 -24,-13 -27,-20 -27,-29 0,-12 9,-23 27,-23 18,0 24,10 26,26l8 0 0 -24c-10,-5 -19,-8 -35,-8 -29,0 -41,21 -41,36 0,17 9,29 43,47 19,10 26,19 26,30 0,20 -17,29 -32,29 -21,0 -27,-13 -28,-26l-1 -7 -8 0 0 29z"/>
  <path class="fil1" d="M563 890c15,-1 32,-1 54,-1 22,0 44,0 59,1l6 -35 -7 0c-7,22 -11,26 -30,26l-36 0c-8,0 -9,0 -9,-18 0,-15 0,-29 1,-44 6,0 14,0 22,0 6,0 13,0 17,1 8,1 9,1 9,18l6 0c0,-7 0,-16 0,-22 0,-7 0,-13 0,-21l-6 0 0 9c0,8 -1,10 -22,10 -12,0 -20,0 -26,0l1 -52c0,-5 0,-6 26,-6 30,0 31,1 33,12l2 11 7 0 0 -29c-12,0 -67,1 -77,1 -7,0 -22,0 -32,-1l0 6c17,1 18,2 19,3 1,2 2,6 2,37l0 51c0,31 -1,35 -2,37 -1,1 -2,2 -19,3l0 6z"/>
  <path class="fil1" d="M776 767c3,8 16,41 19,58 -3,0 -7,0 -10,0 -9,0 -21,-1 -30,-1 6,-18 13,-39 21,-57l0 0zm-48 107c-3,8 -5,9 -8,10l-9 1 0 6c5,0 14,-1 24,-1 10,0 18,0 22,1l0 -6c-17,-1 -18,-1 -18,-7 0,-4 8,-30 14,-45 12,-1 23,-1 35,-1 3,0 7,0 10,0l11 31c1,4 4,12 4,15 0,5 -2,6 -19,7l0 6c7,0 17,-1 28,-1 11,0 19,0 24,1l0 -6 -6 -1c-7,-1 -9,-4 -12,-13l-39 -113c-2,-5 -2,-8 -4,-12l-9 0 -48 128z"/>
  <path class="fil1" d="M1083 589c3,8 16,41 19,58 -3,0 -7,0 -10,0 -9,0 -21,-1 -30,-1 6,-18 13,-39 21,-57l0 0zm-48 107c-3,8 -5,9 -8,10l-9 1 0 6c5,0 14,-1 24,-1 10,0 18,0 22,1l0 -6c-17,-1 -18,-1 -18,-7 0,-4 8,-30 14,-45 12,-1 23,-1 35,-1 3,0 7,0 10,0l11 31c1,4 4,12 4,15 0,5 -2,6 -19,7l0 6c7,0 17,-1 28,-1 11,0 19,0 24,1l0 -6 -6 -1c-7,-1 -9,-4 -12,-13l-39 -113c-2,-5 -2,-8 -4,-12l-9 0 -48 128 0 0z"/>
  <path class="fil1" d="M872 890c9,0 19,-1 31,-1 14,0 24,0 32,1l0 -6c-15,-1 -19,-1 -21,-3 -2,-2 -2,-14 -2,-36l0 -25 13 0c7,0 9,2 17,16 10,17 18,31 29,54 6,0 20,0 28,1l0 -7c-11,-1 -12,-1 -14,-5l-20 -36c-14,-24 -16,-26 -20,-27l0 0c27,-6 33,-22 33,-34 0,-20 -15,-34 -42,-34 -12,0 -17,1 -28,1 -12,0 -27,-1 -35,-1l0 6c16,1 19,1 21,3 2,2 2,14 2,36l0 52c0,22 0,35 -2,36 -2,2 -6,2 -21,3l0 6zm40 -113c0,-21 2,-23 9,-23 23,0 38,6 38,30 0,22 -15,30 -41,30 -3,0 -5,0 -7,0l0 -36z"/>
  <path class="fil1" d="M1146 855l-2 9c-5,19 -25,22 -37,22 -28,0 -54,-20 -54,-68 0,-44 21,-68 53,-68 20,0 33,8 36,20l2 7 6 0 0 -27c-14,-5 -28,-7 -42,-7 -47,0 -74,38 -74,75 0,43 32,73 74,73 16,0 32,-4 44,-9l3 -28 -7 0 0 0z"/>
  <path class="fil1" d="M1282 890c7,0 19,-1 28,-1 7,0 22,0 32,1l0 -6c-17,-1 -18,-2 -19,-3 -1,-2 -2,-6 -2,-37l0 -51c0,-31 1,-35 2,-37 1,-1 2,-2 19,-3l0 -6c-10,0 -24,1 -32,1 -10,0 -21,0 -28,-1l0 6c17,1 18,2 19,4 1,1 2,11 2,40 0,6 0,12 -1,18 -15,0 -34,1 -45,1 -9,0 -22,0 -34,-1 0,-6 -1,-12 -1,-18 0,-29 1,-39 2,-40 1,-2 3,-2 19,-4l0 -6c-7,0 -19,1 -28,1 -7,0 -22,0 -32,-1l0 6c17,1 18,2 19,3 1,2 2,6 2,37l0 51c0,31 -1,35 -2,37 -1,1 -2,2 -19,3l0 6c10,0 24,-1 32,-1 10,0 21,0 28,1l0 -6c-17,-1 -18,-2 -19,-4 -1,-1 -2,-11 -2,-40 0,-7 0,-13 1,-18 14,-1 36,-1 54,-1 9,0 18,1 25,1 1,5 1,11 1,18 0,29 -1,39 -2,40 -1,2 -3,2 -19,4l0 6z"/>
  <path class="fil1" d="M203 630c4,0 15,1 15,6 0,5 -5,16 -21,38 -8,-11 -26,-30 -37,-41 15,-8 21,-16 21,-24 0,-14 -13,-21 -24,-21 -15,0 -25,12 -25,23 0,8 3,14 12,25 -28,13 -36,28 -36,42 0,23 17,38 37,38 15,0 30,-7 46,-25 12,18 20,22 30,22 10,0 18,-3 31,-10l-3 -4c-8,4 -16,6 -21,6 -9,0 -16,-5 -28,-24 9,-11 17,-22 22,-33 7,-14 9,-16 22,-17l0 -6c-7,0 -14,1 -21,1 -7,0 -14,0 -21,-1l0 6zm-15 54c-11,13 -23,20 -36,20 -18,0 -28,-14 -28,-29 0,-13 6,-23 23,-36 14,12 30,29 41,45l0 0zm-18 -74c0,7 -5,14 -13,19 -11,-9 -13,-16 -13,-22 0,-7 6,-12 12,-12 8,0 14,5 14,15l0 0z"/>
  <path class="fil1" d="M362 706c7,5 21,9 34,9 35,0 49,-25 49,-43 0,-19 -8,-27 -43,-46 -24,-13 -27,-20 -27,-29 0,-12 9,-23 27,-23 18,0 24,10 26,26l8 0 0 -24c-10,-5 -19,-8 -35,-8 -29,0 -41,21 -41,36 0,17 9,29 43,47 19,10 26,19 26,30 0,20 -17,29 -32,29 -21,0 -27,-13 -28,-26l-1 -7 -8 0 0 29z"/>
  <path class="fil1" d="M509 642c0,43 32,73 74,73 42,0 74,-30 74,-73 0,-37 -27,-75 -74,-75 -47,0 -74,38 -74,75l0 0zm20 -1c0,-44 21,-68 54,-68 28,0 54,21 54,68 0,50 -23,68 -54,68 -28,0 -54,-20 -54,-68l0 0z"/>
  <path class="fil1" d="M829 677l-2 9c-5,19 -25,22 -37,22 -28,0 -54,-20 -54,-68 0,-44 21,-68 53,-68 20,0 33,8 36,20l2 7 6 0 0 -27c-14,-5 -28,-7 -42,-7 -47,0 -74,38 -74,75 0,43 32,73 74,73 16,0 32,-4 44,-9l3 -28 -7 0 0 0z"/>
  <path class="fil1" d="M899 712c8,0 18,-1 32,-1 14,0 24,0 32,1l0 -6c-15,-1 -19,-1 -21,-3 -2,-2 -2,-14 -2,-36l0 -52c0,-22 0,-35 2,-36 2,-2 6,-2 21,-3l0 -6c-8,0 -18,1 -32,1 -14,0 -24,0 -32,-1l0 6c15,1 19,1 21,3 2,2 2,14 2,36l0 52c0,22 0,35 -2,36 -2,2 -6,2 -21,3l0 6z"/>
  <path class="fil1" d="M1208 712c22,0 44,-1 60,-1 14,0 30,0 48,1l8 -37 -6 -1 -7 15c-6,13 -7,14 -50,14 -12,0 -14,-1 -14,-6 0,-25 -1,-52 -1,-79 0,-29 1,-39 2,-40 1,-2 3,-2 19,-4l0 -6c-7,0 -19,1 -28,1 -7,0 -22,0 -32,-1l0 6c17,1 18,2 19,3 1,2 2,6 2,37l0 51c0,31 -1,35 -2,37 -1,1 -2,2 -19,3l0 6z"/>
  <path class="fil1" d="M100 535c15,-1 32,-1 54,-1 22,0 44,0 59,1l6 -35 -7 0c-7,22 -11,26 -30,26l-36 0c-8,0 -9,0 -9,-18 0,-15 0,-29 1,-44 6,0 14,0 22,0 6,0 13,0 17,1 8,1 9,1 9,18l6 0c0,-7 0,-16 0,-22 0,-7 0,-13 0,-21l-6 0 0 9c0,8 -1,10 -22,10 -12,0 -20,0 -26,0l1 -52c0,-5 0,-6 26,-6 30,0 31,1 33,12l2 11 7 0 0 -29c-12,0 -67,1 -77,1 -7,0 -22,0 -32,-1l0 6c17,1 18,2 19,3 1,2 2,6 2,37l0 51c0,31 -1,35 -2,37 -1,1 -2,2 -19,3l0 6z"/>
  <path class="fil1" d="M360 500l-2 9c-5,19 -25,22 -37,22 -28,0 -54,-20 -54,-68 0,-44 21,-68 53,-68 20,0 33,8 36,20l2 7 6 0 0 -27c-14,-5 -28,-7 -42,-7 -47,0 -74,38 -74,75 0,43 32,73 74,73 16,0 32,-4 44,-9l3 -28 -7 0 0 0z"/>
  <path class="fil1" d="M395 464c0,43 32,73 74,73 42,0 74,-30 74,-73 0,-37 -27,-75 -74,-75 -47,0 -74,38 -74,75l0 0zm20 -1c0,-44 21,-68 54,-68 28,0 54,21 54,68 0,50 -23,68 -54,68 -28,0 -54,-20 -54,-68l0 0z"/>
  <path class="fil1" d="M568 535c6,0 11,-1 20,-1 10,0 15,0 21,1l0 -7 -9 -1c-5,0 -6,-4 -6,-8 -1,-25 -1,-76 -2,-105l0 0c31,37 69,84 98,124l5 0 0 -19c0,-63 2,-113 3,-116 1,-4 4,-4 14,-4l0 -6c-7,0 -14,1 -21,1 -5,0 -8,0 -20,-1l0 6c12,0 14,1 15,3 1,1 3,12 3,72 0,12 0,21 0,33 -28,-33 -60,-73 -90,-114 -4,0 -9,1 -14,1 -6,0 -11,0 -17,-1l0 6c7,0 12,1 13,2 2,1 3,4 3,21 0,91 -2,101 -3,103 -1,1 -3,2 -13,3l0 7z"/>
  <path class="fil1" d="M738 464c0,43 32,73 74,73 42,0 74,-30 74,-73 0,-37 -27,-75 -74,-75 -47,0 -74,38 -74,75l0 0zm20 -1c0,-44 21,-68 54,-68 28,0 54,21 54,68 0,50 -23,68 -54,68 -28,0 -54,-20 -54,-68l0 0z"/>
  <path class="fil1" d="M1026 535c9,0 18,-1 27,-1 10,0 20,0 29,1l0 -6c-13,-1 -15,-1 -16,-3 -3,-5 -5,-110 -5,-112 0,-15 1,-15 9,-16l9 0 0 -6c-8,0 -15,1 -20,1 -7,0 -12,0 -17,-1 -7,23 -26,76 -42,113 -10,-17 -38,-87 -46,-113 -7,0 -13,1 -20,1 -6,0 -11,0 -17,-1l0 6 4 0c14,0 16,1 16,6 0,12 -8,116 -10,120 -1,3 -3,3 -15,4l0 6c5,0 12,-1 20,-1 10,0 17,0 26,1l0 -6c-6,0 -10,-1 -14,-2 -4,-1 -5,-3 -5,-17 0,-30 3,-70 5,-96l0 0c8,17 44,100 50,120l7 0c0,0 35,-101 44,-124l0 0c1,16 2,60 2,83 0,10 0,28 -1,32 -1,2 -5,3 -19,4l0 6z"/>
  <path class="fil1" d="M1112 535c8,0 18,-1 32,-1 14,0 24,0 32,1l0 -6c-15,-1 -19,-1 -21,-3 -2,-2 -2,-14 -2,-36l0 -52c0,-22 0,-35 2,-36 2,-2 6,-2 21,-3l0 -6c-8,0 -18,1 -32,1 -14,0 -24,0 -32,-1l0 6c15,1 19,1 21,3 2,2 2,14 2,36l0 52c0,22 0,35 -2,36 -2,2 -6,2 -21,3l0 6z"/>
  <path class="fil1" d="M1317 500l-2 9c-5,19 -25,22 -37,22 -28,0 -54,-20 -54,-68 0,-44 21,-68 53,-68 20,0 33,8 36,20l2 7 6 0 0 -27c-14,-5 -28,-7 -42,-7 -47,0 -74,38 -74,75 0,43 32,73 74,73 16,0 32,-4 44,-9l3 -28 -7 0 0 0z"/>
  <path class="fil1" d="M102 322c23,-1 49,-1 81,-1 33,0 66,0 89,1l10 -52 -10 0c-10,32 -17,40 -46,40l-54 0c-11,0 -13,0 -13,-28 0,-22 1,-44 1,-66 9,0 21,-1 33,-1 10,0 19,0 26,1 13,1 13,1 13,27l9 0c0,-10 -1,-24 -1,-33 0,-10 0,-20 1,-31l-9 0 0 13c0,13 -1,14 -33,14 -18,0 -31,0 -39,-1l1 -77c0,-7 1,-10 39,-10 46,0 46,2 50,17l4 16 11 0 0 -44c-18,1 -100,1 -115,1 -11,0 -33,-1 -47,-1l0 9c26,1 27,2 29,4 2,3 4,8 4,55l0 76c0,47 -2,52 -4,55 -1,2 -3,3 -29,4l0 9z"/>
  <path class="fil1" d="M358 206c0,9 8,17 17,17 9,0 17,-8 17,-17 0,-9 -8,-17 -17,-17 -9,0 -17,8 -17,17l0 0z"/>
  <path class="fil1" d="M475 313c10,7 32,14 52,14 53,0 73,-37 73,-65 0,-28 -13,-41 -64,-70 -35,-20 -40,-30 -40,-44 0,-18 14,-35 40,-35 27,0 37,14 39,40l13 0 0 -36c-14,-7 -29,-12 -52,-12 -43,0 -61,31 -61,54 0,26 13,44 64,70 29,15 40,29 40,46 0,30 -25,43 -48,43 -32,0 -40,-19 -42,-39l-1 -10 -12 0 0 44z"/>
  <path class="fil1" d="M682 206c0,9 8,17 17,17 9,0 17,-8 17,-17 0,-9 -8,-17 -17,-17 -9,0 -17,8 -17,17l0 0z"/>
  <path class="fil1" d="M788 322c13,-1 28,-1 47,-1 20,0 35,1 48,1l0 -9c-23,-1 -28,-2 -31,-5 -3,-3 -3,-21 -3,-55l0 -38 19 0c10,0 14,3 25,24 14,26 27,46 43,80 10,0 30,1 43,1l0 -10c-17,-1 -18,-2 -21,-7l-31 -54c-21,-36 -24,-39 -30,-41l0 -1c41,-8 49,-33 49,-51 0,-30 -23,-51 -63,-51 -18,0 -25,1 -42,1 -18,0 -41,-1 -52,-1l0 9c24,1 29,2 32,5 3,3 3,21 3,55l0 78c0,33 0,52 -3,55 -3,3 -8,3 -32,5l0 9zm60 -170c0,-32 3,-35 14,-35 34,0 57,8 57,44 0,32 -22,46 -61,46 -5,0 -8,0 -10,-1l0 -55z"/>
  <path class="fil1" d="M1041 206c0,9 8,17 17,17 9,0 17,-8 17,-17 0,-9 -8,-17 -17,-17 -9,0 -17,8 -17,17l0 0z"/>
  <path class="fil1" d="M1323 270l-4 14c-7,28 -38,34 -55,34 -42,0 -80,-30 -80,-103 0,-66 32,-102 79,-102 30,0 49,12 54,31l2 11 9 0 0 -40c-21,-7 -42,-10 -63,-10 -71,0 -111,57 -111,113 0,64 48,110 111,110 24,0 48,-5 66,-14l4 -43 -11 0 0 0z"/>
 </g>
</svg>
