<svg version="1.1" id="Layer_1" xmlns="http://www.w3.org/2000/svg" xmlns:xlink="http://www.w3.org/1999/xlink" x="0px" y="0px"
	 viewBox="0 0 841.9 595.3" style="enable-background:new 0 0 841.9 595.3;" xml:space="preserve">
<style type="text/css">
	.st0{fill:#7D8E88;}
	.st1{fill:#4A5256;}
</style>
<g>
	<path class="st0" d="M421.2,274.6h-16v-9h16v-25.1c0-5,0.7-9.1,2.2-12.4c1.5-3.3,3.4-5.9,5.6-7.9c2.2-2,4.7-3.4,7.4-4.2
		c2.7-0.8,5.3-1.2,7.7-1.2c4.7,0,8.5,0.7,11.5,2l-2,8.6c-2.2-1.1-5.2-1.7-9-1.7c-9,0-13.5,6.8-13.5,20.5v21.5h18v9h-18v67.9h-10
		V274.6z"/>
	<path class="st0" d="M454.6,304c0-5.9,1-11.3,3-16.2c2-4.9,4.8-9.2,8.3-12.8c3.5-3.6,7.8-6.4,12.8-8.4c5-2,10.4-3,16.3-3
		c5.9,0,11.3,1,16.2,3c4.9,2,9.2,4.8,12.8,8.4c3.6,3.6,6.4,7.9,8.4,12.8c2,4.9,3,10.3,3,16.2c0,5.9-1,11.3-3,16.2
		c-2,4.9-4.8,9.2-8.4,12.8c-3.6,3.6-7.9,6.4-12.8,8.4c-4.9,2-10.3,3-16.2,3c-5.9,0-11.3-1-16.3-3c-5-2-9.3-4.8-12.8-8.4
		c-3.5-3.6-6.3-7.9-8.3-12.8C455.6,315.3,454.6,309.9,454.6,304z M464.6,304c0,4.3,0.7,8.4,2.1,12.2c1.4,3.8,3.4,7.2,6.1,10
		c2.7,2.8,5.9,5.1,9.6,6.7c3.8,1.7,8,2.5,12.6,2.5c4.7,0,8.9-0.8,12.6-2.5c3.8-1.7,7-3.9,9.6-6.7c2.7-2.8,4.7-6.2,6.1-10
		c1.4-3.8,2.1-7.9,2.1-12.2c0-4.3-0.7-8.4-2.1-12.2c-1.4-3.8-3.4-7.2-6.1-10c-2.7-2.8-5.9-5.1-9.6-6.7c-3.8-1.7-8-2.5-12.6-2.5
		c-4.7,0-8.9,0.8-12.6,2.5c-3.8,1.7-7,3.9-9.6,6.7c-2.7,2.8-4.7,6.2-6.1,10C465.3,295.6,464.6,299.7,464.6,304z"/>
	<path class="st0" d="M564.9,300.9l-27.5-35.3h12.8l21.3,29.1l21.1-29.1h12.5l-27.1,35.3l32.9,41.6h-13l-26.8-34.8l-56.1,74.5h-12
		L564.9,300.9z"/>
	<path class="st1" d="M312,337.5c0,14.2-3.6,25-10.9,32.4c-7.3,7.4-17.8,11.1-31.5,11.1c-7.7,0-14.6-1.1-20.7-3.3
		c-6.2-2.2-12-6-17.6-11.5l9.3-10.6c4.1,4.4,8.5,7.8,13.1,10.1c4.6,2.3,9.9,3.4,15.9,3.4c5.8,0,10.6-0.9,14.4-2.6
		c3.8-1.7,6.8-4,9.1-7c2.2-2.9,3.8-6.3,4.7-10.1c0.9-3.8,1.3-7.7,1.3-11.8v-10h-0.3c-3.1,5-7.2,8.7-12.2,11
		c-5,2.3-10.1,3.5-15.3,3.5c-6.1,0-11.7-1-16.8-3c-5.1-2-9.5-4.8-13.1-8.3c-3.7-3.5-6.5-7.8-8.5-12.6c-2-4.9-3-10.2-3-16
		c0-6.3,1-12,3-17.1c2-5.1,4.8-9.4,8.4-12.9c3.6-3.5,8-6.2,13.1-8.1c5.1-1.9,10.8-2.8,17-2.8c2.7,0,5.3,0.3,8,0.9s5.2,1.6,7.7,2.8
		c2.5,1.3,4.7,2.9,6.7,4.8c2,1.9,3.7,4.2,5,6.7h0.3v-13.3h13V337.5z M243.8,302c0,4,0.7,7.7,2.2,11.1c1.4,3.4,3.4,6.3,5.9,8.8
		c2.5,2.5,5.4,4.5,8.7,5.9c3.3,1.4,6.9,2.2,10.6,2.2c4.4,0,8.4-0.8,11.8-2.3c3.4-1.6,6.4-3.6,8.7-6.2c2.4-2.6,4.2-5.6,5.4-9
		c1.2-3.4,1.8-7,1.8-10.7c0-4.2-0.7-8.1-2-11.6c-1.3-3.5-3.2-6.5-5.7-9.1s-5.4-4.5-8.8-5.9c-3.4-1.4-7.2-2.1-11.3-2.1
		s-7.8,0.8-11.2,2.2c-3.4,1.5-6.3,3.5-8.7,6.2c-2.4,2.6-4.2,5.7-5.6,9.2C244.4,294.1,243.8,297.9,243.8,302z"/>
	<path class="st1" d="M319,302c0-6.1,1.1-11.6,3.2-16.6c2.1-5,5-9.3,8.7-12.9c3.7-3.6,8-6.4,13.1-8.4c5.1-2,10.6-3,16.6-3
		c6,0,11.5,1,16.6,3c5.1,2,9.5,4.8,13.1,8.4c3.7,3.6,6.5,7.9,8.7,12.9c2.1,5,3.2,10.5,3.2,16.6s-1.1,11.7-3.2,16.6
		c-2.1,5-5,9.3-8.7,12.9c-3.7,3.6-8,6.4-13.1,8.4c-5.1,2-10.6,3-16.6,3c-6,0-11.5-1-16.6-3c-5.1-2-9.5-4.8-13.1-8.4
		c-3.7-3.6-6.5-7.9-8.7-12.9C320,313.7,319,308.1,319,302z M333,302c0,4.1,0.6,7.9,1.9,11.4s3.1,6.5,5.6,9.1
		c2.4,2.6,5.4,4.7,8.7,6.2c3.4,1.5,7.2,2.2,11.4,2.2s8-0.7,11.4-2.2c3.4-1.5,6.3-3.5,8.7-6.2c2.4-2.6,4.3-5.7,5.6-9.1
		c1.3-3.5,1.9-7.3,1.9-11.4c0-4.1-0.6-7.9-1.9-11.4c-1.3-3.5-3.1-6.5-5.6-9.2c-2.4-2.6-5.4-4.7-8.7-6.2c-3.4-1.5-7.2-2.2-11.4-2.2
		s-8,0.8-11.4,2.2c-3.4,1.5-6.3,3.5-8.7,6.2c-2.4,2.6-4.3,5.7-5.6,9.2C333.6,294.1,333,297.9,333,302z"/>
</g>
</svg>
