<?xml version="1.0" encoding="utf-8"?>
<!-- Generator: Adobe Illustrator 22.1.0, SVG Export Plug-In . SVG Version: 6.00 Build 0)  -->
<svg version="1.1" id="Layer_1" xmlns="http://www.w3.org/2000/svg" xmlns:xlink="http://www.w3.org/1999/xlink" x="0px" y="0px"
	 viewBox="0 0 832.1 280" style="enable-background:new 0 0 832.1 280;" xml:space="preserve">
<style type="text/css">
	.st0{clip-path:url(#SVGID_2_);}
	.st1{clip-path:url(#SVGID_4_);fill:#FFFFFF;}
	.st2{clip-path:url(#SVGID_6_);}
	.st3{clip-path:url(#SVGID_8_);fill:#194090;}
	.st4{fill:#194090;}
	.st5{fill:#FFFFFF;}
</style>
<g>
	<defs>
		<circle id="SVGID_1_" cx="140" cy="140" r="140"/>
	</defs>
	<clipPath id="SVGID_2_">
		<use xlink:href="#SVGID_1_"  style="overflow:visible;"/>
	</clipPath>
	<g class="st0">
		<defs>
			<rect id="SVGID_3_" x="-130" y="-80" width="1094" height="440"/>
		</defs>
		<clipPath id="SVGID_4_">
			<use xlink:href="#SVGID_3_"  style="overflow:visible;"/>
		</clipPath>
		<rect x="-5" y="-5" class="st1" width="290" height="290"/>
	</g>
</g>
<g>
	<defs>
		<path id="SVGID_5_" d="M82,76.8c1.2-0.8,2.7-0.5,3.6,0.6L96,92c0.2,0.3,0.3,0.5,0.4,0.8c0.3,1-0.1,2.1-1,2.8
			c-1.2,0.8-2.8,0.6-3.6-0.6l-6.7-9.3c-3.9,13.8-3.6,24.7-1.3,33.2c2.6,9.6,7.7,16.2,12.3,20.6c4.6,4.3,8.7,6.3,9,6.4c0,0,0,0,0,0
			l0,0c0.7,0.3,1.2,1,1.4,1.7c0.1,0.6,0.1,1.2-0.1,1.7c-0.6,1.3-2.1,1.9-3.4,1.3c-0.2-0.1-4.7-2.1-10-6.9
			c-5.3-4.8-11.3-12.4-14.2-23.4c-2.5-9.4-2.8-21.2,1.3-35.8l-9.6,6.7l0,0c-1.2,0.8-2.8,0.5-3.6-0.6c-0.8-1.2-0.5-2.8,0.6-3.6
			L82,76.8z M56,158.3c-0.1-1.4,0.9-2.6,2.3-2.8l17.9-1.8c0.3,0,0.6,0,0.9,0.1c1,0.3,1.8,1.1,1.9,2.2c0.1,1.4-0.9,2.7-2.3,2.8
			L65.2,160c10,10.3,19.6,15.5,28.1,17.7c9.6,2.6,17.9,1.5,24-0.4c6-1.8,9.8-4.4,10.1-4.6c0,0,0,0,0,0l0,0c0.7-0.5,1.4-0.6,2.2-0.4
			c0.6,0.1,1.1,0.5,1.4,1c0.8,1.2,0.6,2.8-0.6,3.6c-0.2,0.1-4.2,3-11,5.2c-6.8,2.2-16.4,3.6-27.4,0.6c-9.4-2.5-19.8-8.2-30.3-19
			l1.1,11.6l0,0c0.1,1.4-0.9,2.7-2.3,2.8c-1.4,0.1-2.7-0.9-2.8-2.3L56,158.3z M113.6,221.5c-1.3-0.6-1.8-2.1-1.3-3.4l7.4-16.4
			c0.1-0.3,0.3-0.5,0.5-0.8c0.7-0.7,1.9-1,2.9-0.5c1.3,0.6,1.9,2.1,1.3,3.4l-4.7,10.5c13.9-3.5,23.2-9.2,29.4-15.4
			c7-7,10.2-14.8,11.7-20.9c1.4-6.1,1.1-10.7,1.1-11c0,0,0,0,0,0l0,0c-0.1-0.8,0.2-1.5,0.7-2.1c0.4-0.4,0.9-0.7,1.6-0.7
			c1.4-0.1,2.7,0.9,2.8,2.3c0,0.2,0.5,5.1-1,12.1c-1.5,7-5.1,16-13.2,24.1c-6.9,6.9-17,13-31.6,16.7l10.6,4.9v0
			c1.3,0.6,1.8,2.1,1.3,3.4c-0.6,1.3-2.1,1.8-3.4,1.3L113.6,221.5z M197.2,203.2c-1.2,0.8-2.7,0.5-3.6-0.6L183.1,188
			c-0.2-0.3-0.3-0.5-0.4-0.8c-0.3-1,0.1-2.1,1-2.8c1.2-0.8,2.8-0.6,3.6,0.6l6.7,9.3c3.9-13.8,3.6-24.7,1.3-33.2
			c-2.6-9.6-7.7-16.2-12.3-20.6c-4.6-4.3-8.7-6.3-9-6.4c0,0,0,0,0,0l0,0c-0.7-0.3-1.2-1-1.4-1.7c-0.1-0.6-0.1-1.2,0.1-1.7
			c0.6-1.3,2.1-1.9,3.4-1.3c0.2,0.1,4.7,2.1,10,6.9c5.3,4.8,11.3,12.4,14.2,23.4c2.5,9.4,2.8,21.2-1.3,35.8l9.6-6.7l0,0
			c1.2-0.8,2.8-0.5,3.6,0.6c0.8,1.2,0.5,2.8-0.6,3.6L197.2,203.2z M223.1,121.7c0.1,1.4-0.9,2.6-2.3,2.8l-17.9,1.8
			c-0.3,0-0.6,0-0.9-0.1c-1-0.3-1.8-1.1-1.9-2.2c-0.1-1.4,0.9-2.7,2.3-2.8l11.4-1.1c-10-10.3-19.6-15.5-28.1-17.7
			c-9.6-2.6-17.9-1.5-24,0.4c-6,1.8-9.8,4.4-10.1,4.6c0,0,0,0,0,0l0,0c-0.7,0.5-1.4,0.6-2.2,0.4c-0.6-0.1-1.1-0.5-1.4-1
			c-0.8-1.2-0.6-2.8,0.6-3.6c0.2-0.1,4.2-3,11-5.2c6.8-2.2,16.4-3.6,27.4-0.6c9.4,2.5,19.8,8.2,30.3,19l-1.1-11.6l0,0
			c-0.1-1.4,0.9-2.7,2.3-2.8c1.4-0.1,2.7,0.9,2.8,2.3L223.1,121.7z M165.5,58.5c1.3,0.6,1.8,2.1,1.3,3.4l-7.4,16.4
			c-0.1,0.3-0.3,0.5-0.5,0.8c-0.7,0.7-1.9,1-2.9,0.5c-1.3-0.6-1.9-2.1-1.3-3.4l4.7-10.5c-13.9,3.5-23.2,9.2-29.4,15.4
			c-7,7-10.2,14.8-11.7,20.9c-1.4,6.1-1.1,10.7-1.1,11c0,0,0,0,0,0l0,0c0.1,0.8-0.2,1.5-0.7,2.1c-0.4,0.4-0.9,0.7-1.6,0.7
			c-1.4,0.1-2.7-0.9-2.8-2.3c0-0.2-0.5-5.1,1-12.1c1.5-7,5.1-16,13.2-24.1c6.9-6.9,17-13,31.6-16.7l-10.6-4.9v0
			c-1.3-0.6-1.8-2.1-1.3-3.4c0.6-1.3,2.1-1.8,3.4-1.3L165.5,58.5z"/>
	</defs>
	<use xlink:href="#SVGID_5_"  style="overflow:visible;fill-rule:evenodd;clip-rule:evenodd;fill:#194090;"/>
	<clipPath id="SVGID_6_">
		<use xlink:href="#SVGID_5_"  style="overflow:visible;"/>
	</clipPath>
	<g class="st2">
		<defs>
			<rect id="SVGID_7_" x="-130" y="-80" width="1094" height="440"/>
		</defs>
		<use xlink:href="#SVGID_7_"  style="overflow:visible;fill:#194090;"/>
		<clipPath id="SVGID_8_">
			<use xlink:href="#SVGID_7_"  style="overflow:visible;"/>
		</clipPath>
		<rect x="51" y="45.9" class="st3" width="177.1" height="188.2"/>
	</g>
</g>
<path class="st4" d="M130.6,230.1c-0.5,0-1-0.1-1.5-0.3l-15.9-7.4c-1.8-0.8-2.6-2.9-1.8-4.7l7.4-16.4c0.2-0.4,0.4-0.7,0.7-1.1
	c1-1,2.6-1.3,4-0.7c0.9,0.4,1.5,1.1,1.9,2c0.3,0.9,0.3,1.9-0.1,2.7l-3.9,8.6c11.3-3.1,20.3-8,26.9-14.6c5.7-5.7,9.6-12.6,11.4-20.5
	c1.4-6.2,1-10.7,1-10.7c-0.1-1.1,0.3-2.1,1-2.9c0.6-0.6,1.3-0.9,2.2-1c2-0.2,3.7,1.2,3.9,3.2c0.1,0.9,0.4,5.7-1,12.4
	c-1.4,6.5-4.9,16-13.4,24.6c-7.3,7.4-17.2,12.8-29.4,16.3l8.1,3.7c1.8,0.8,2.6,2.9,1.7,4.7C133.2,229.3,132,230.1,130.6,230.1z
	 M122.1,201.3c-0.4,0-0.8,0.2-1.1,0.5c-0.1,0.1-0.2,0.3-0.3,0.5l-7.4,16.4c-0.4,0.8,0,1.7,0.8,2.1h0l15.9,7.4c0.8,0.4,1.7,0,2.1-0.8
	c0.4-0.8,0-1.7-0.8-2.1l-13.2-6.1l2.7-0.7c13.1-3.3,23.6-8.9,31.2-16.5c8.2-8.2,11.6-17.3,12.9-23.6c1.4-6.5,1-11.2,1-11.8
	c-0.1-0.9-0.9-1.5-1.7-1.4c-0.4,0-0.7,0.2-0.9,0.5c-0.3,0.3-0.5,0.7-0.5,1.1l0,0.2c0,0.2,0.4,4.9-1.1,11.3
	c-1.9,8.2-5.9,15.4-11.9,21.4c-7.3,7.2-17.3,12.5-29.9,15.7l-2,0.5l5.6-12.4c0.2-0.4,0.2-0.8,0-1.2c-0.1-0.4-0.4-0.7-0.8-0.9
	C122.5,201.3,122.3,201.3,122.1,201.3z M195.7,204.7c-1.1,0-2.2-0.5-2.9-1.5l-10.5-14.6c-0.3-0.4-0.4-0.7-0.5-1.2
	c-0.4-1.4,0.2-3,1.4-3.8c0.8-0.6,1.7-0.8,2.7-0.6c0.9,0.2,1.8,0.7,2.3,1.4l5.5,7.6c2.9-11.3,3.2-21.6,0.8-30.6
	c-2.1-7.8-6.1-14.6-12-20.1c-4.6-4.3-8.7-6.2-8.8-6.3c-1-0.4-1.7-1.3-2-2.3c-0.2-0.8-0.1-1.6,0.2-2.4c0.8-1.8,2.9-2.6,4.7-1.8
	c0.8,0.4,5.2,2.5,10.2,7.1c4.9,4.5,11.4,12.2,14.5,23.9c2.7,10,2.5,21.3-0.6,33.6l7.3-5.1c1.6-1.1,3.8-0.7,5,0.9
	c1.1,1.6,0.7,3.8-0.9,5L197.8,204v0C197.1,204.5,196.4,204.7,195.7,204.7z M185.2,185c-0.3,0-0.6,0.1-0.9,0.3
	c-0.5,0.4-0.8,1.1-0.6,1.7c0,0.2,0.1,0.4,0.2,0.5l10.5,14.6c0.5,0.7,1.5,0.9,2.2,0.4l0,0l14.3-10.1c0.7-0.5,0.9-1.5,0.4-2.2
	c-0.5-0.7-1.5-0.9-2.2-0.4l-11.9,8.4l0.8-2.7c3.7-13,4.1-24.8,1.3-35.2c-3-11.2-9.2-18.7-14-23c-4.9-4.5-9.2-6.5-9.7-6.8
	c-0.8-0.4-1.7,0-2.1,0.8c-0.1,0.3-0.2,0.7-0.1,1c0.1,0.4,0.4,0.7,0.7,0.9h0l0.2,0.1c0.1,0.1,4.4,2,9.2,6.6
	c6.2,5.8,10.4,12.9,12.6,21c2.6,9.9,2.2,21.2-1.3,33.7l-0.6,2l-7.9-11c-0.2-0.3-0.6-0.6-1-0.6C185.4,185,185.3,185,185.2,185z
	 M104.6,185.3c-4,0-8.3-0.5-12.9-1.7c-10-2.7-19.7-8.5-28.8-17.3l0.8,8.9c0.2,2-1.3,3.7-3.2,3.9c-2,0.2-3.7-1.3-3.9-3.2L55,158.4
	c-0.2-1.9,1.3-3.7,3.2-3.9l17.9-1.8c0.4,0,0.9,0,1.3,0.1c1.4,0.4,2.5,1.6,2.6,3.1c0.1,0.9-0.2,1.9-0.8,2.6c-0.6,0.7-1.5,1.2-2.4,1.3
	l-9.3,0.9c8.3,8.2,17.1,13.6,26.1,16c7.8,2.1,15.7,2,23.4-0.4c6.1-1.8,9.8-4.4,9.8-4.5c0.9-0.6,2-0.8,3-0.6c0.8,0.2,1.5,0.7,2,1.4
	c1.1,1.6,0.8,3.8-0.8,5c-0.8,0.5-4.8,3.2-11.3,5.3C115.9,184.2,110.7,185.3,104.6,185.3z M60.4,160.9l2,2c9.4,9.7,19.4,16,29.9,18.8
	c11.2,3,20.8,1.3,26.9-0.6c6.4-2,10.3-4.7,10.7-5c0.7-0.5,0.9-1.5,0.4-2.2c-0.2-0.3-0.5-0.5-0.9-0.6c-0.4-0.1-0.8-0.1-1.1,0.1
	l-0.3,0.2c-0.1,0.1-4,2.8-10.3,4.7c-8.1,2.4-16.3,2.6-24.5,0.4c-9.9-2.7-19.5-8.7-28.5-18l-1.4-1.5l13.5-1.3c0.4,0,0.8-0.2,1.1-0.6
	c0.3-0.3,0.4-0.7,0.3-1.1c-0.1-0.6-0.5-1.2-1.2-1.4c-0.2,0-0.4-0.1-0.6,0l-17.9,1.8c-0.9,0.1-1.5,0.8-1.4,1.7l1.6,17.5
	c0.1,0.9,0.8,1.5,1.7,1.4c0.9-0.1,1.5-0.8,1.4-1.7L60.4,160.9z M104.1,151.7c-0.5,0-1-0.1-1.5-0.3c-0.8-0.4-5.2-2.5-10.2-7.1
	c-4.9-4.5-11.4-12.2-14.5-23.9c-2.7-10-2.5-21.3,0.6-33.6l-7.3,5.1c-1.6,1.1-3.8,0.7-5-0.9c-1.1-1.6-0.8-3.8,0.9-5L81.4,76
	c1.6-1.1,3.8-0.7,5,0.8l10.5,14.6c0.3,0.4,0.4,0.7,0.5,1.2c0.4,1.4-0.2,3-1.4,3.8c-0.8,0.6-1.7,0.8-2.7,0.6
	c-0.9-0.2-1.8-0.7-2.3-1.4l-5.5-7.6c-2.9,11.3-3.2,21.6-0.8,30.6c2.1,7.8,6.1,14.6,12,20.1c4.6,4.3,8.7,6.2,8.8,6.3
	c1,0.4,1.7,1.3,2,2.3c0.2,0.8,0.1,1.6-0.2,2.4C106.7,150.9,105.4,151.7,104.1,151.7z M81.9,81.9l-0.8,2.7c-3.7,13-4.1,24.8-1.3,35.2
	c3,11.2,9.2,18.7,14,23c4.9,4.5,9.2,6.5,9.7,6.8c0.8,0.4,1.7,0,2.1-0.8c0.1-0.3,0.2-0.7,0.1-1c-0.1-0.4-0.4-0.7-0.7-0.9l-0.2-0.1
	c-0.1-0.1-4.4-2-9.3-6.6c-6.2-5.8-10.4-12.9-12.6-21c-2.6-9.9-2.2-21.2,1.3-33.7l0.6-2l7.9,11c0.2,0.3,0.6,0.6,1,0.6
	c0.4,0.1,0.8,0,1.2-0.3c0.5-0.4,0.8-1.1,0.6-1.7c0-0.2-0.1-0.4-0.2-0.5L84.7,78c-0.5-0.7-1.5-0.9-2.2-0.4L68.2,87.7
	c-0.7,0.5-0.9,1.5-0.4,2.2c0.5,0.7,1.5,0.9,2.2,0.4L81.9,81.9z M114.8,116.9c-1.8,0-3.4-1.4-3.5-3.2c-0.1-0.9-0.4-5.7,1-12.4
	c1.4-6.5,4.9-16,13.4-24.6c7.3-7.4,17.2-12.8,29.4-16.3l-8.1-3.7c-1.8-0.8-2.6-2.9-1.7-4.7c0.8-1.8,2.9-2.6,4.7-1.7l15.9,7.4
	c1.8,0.8,2.6,2.9,1.8,4.7l-7.4,16.4c-0.2,0.4-0.4,0.7-0.7,1.1c-1,1-2.6,1.3-4,0.7c-0.9-0.4-1.5-1.1-1.9-2c-0.3-0.9-0.3-1.9,0.1-2.7
	l3.9-8.6c-11.3,3.1-20.3,8-26.9,14.6c-5.7,5.7-9.6,12.6-11.4,20.5c-1.4,6.2-1,10.7-1,10.7c0.1,1.1-0.3,2.1-1,2.9
	c-0.6,0.6-1.3,0.9-2.2,1C115,116.9,114.9,116.9,114.8,116.9z"/>
<path class="st4" d="M165.9,61.5l-7.4,16.3c-0.1,0.2-0.2,0.3-0.3,0.5c-0.5,0.5-1.2,0.6-1.8,0.3c-0.4-0.2-0.7-0.5-0.8-0.9
	c-0.2-0.4-0.1-0.8,0-1.2l5.6-12.4l-2,0.5c-12.6,3.2-22.6,8.5-29.8,15.7c-6,6-10,13.2-11.9,21.4c-1.5,6.5-1.1,11.2-1.1,11.3l0,0.3
	c0,0.4-0.2,0.7-0.5,1c-0.3,0.3-0.6,0.4-1,0.5c-0.8,0.1-1.6-0.5-1.7-1.4c0-0.5-0.4-5.3,1-11.8c1.4-6.2,4.7-15.4,12.9-23.6
	c7.6-7.6,18.1-13.2,31.2-16.5L161,61l-13.2-6.1c-0.8-0.4-1.1-1.3-0.8-2.1c0.3-0.6,0.8-0.9,1.4-0.9c0.2,0,0.4,0,0.6,0.1l15.9,7.4
	C165.9,59.8,166.2,60.7,165.9,61.5z"/>
<path class="st4" d="M224.1,121.6c0.2,1.9-1.3,3.7-3.2,3.9l-17.9,1.8c-0.1,0-0.2,0-0.3,0c-0.3,0-0.6,0-0.9-0.1
	c-1.4-0.4-2.5-1.6-2.6-3.1c-0.1-0.9,0.2-1.9,0.8-2.6c0.6-0.7,1.5-1.2,2.4-1.3l9.3-0.9c-8.3-8.2-17.1-13.6-26.1-16
	c-7.8-2.1-15.7-2-23.4,0.4c-6.1,1.8-9.8,4.4-9.8,4.5c-0.9,0.6-2,0.8-3,0.6c-0.8-0.2-1.5-0.7-2-1.4c-1.1-1.6-0.8-3.8,0.8-5
	c0.8-0.5,4.8-3.2,11.3-5.3c6.3-2,16.3-3.8,28-0.6c10,2.7,19.7,8.5,28.8,17.3l-0.8-8.9c-0.2-1.9,1.3-3.7,3.2-3.9
	c0.9-0.1,1.9,0.2,2.6,0.8c0.7,0.6,1.2,1.5,1.3,2.4L224.1,121.6z"/>
<g>
	<path class="st5" d="M364.7,78.6h-16.7V126h-11.2V78.6h-16.8v-10h44.8V78.6z"/>
	<path class="st5" d="M393.4,126v-23.3c0-3.3-0.5-5.7-1.4-7.2c-0.9-1.5-2.6-2.2-5.1-2.2c-1.8,0-3.5,0.6-5,1.8
		c-1.5,1.2-2.5,2.8-3,4.7V126h-10.7V68.6h10.7v21h0.3c1.3-1.7,2.9-3.1,4.8-4.2c1.9-1,4.3-1.6,7.3-1.6c2.1,0,3.9,0.3,5.5,0.8
		c1.6,0.5,2.9,1.4,4,2.7c1.1,1.3,1.9,3,2.4,5.1c0.5,2.2,0.8,4.8,0.8,8V126H393.4z"/>
	<path class="st5" d="M443.8,122.5c-1.6,1.3-3.9,2.4-6.7,3.3c-2.8,0.9-5.8,1.4-9,1.4c-6.6,0-11.5-1.9-14.5-5.8
		c-3.1-3.9-4.6-9.1-4.6-15.9c0-7.2,1.7-12.6,5.2-16.2c3.4-3.6,8.3-5.4,14.5-5.4c2.1,0,4.1,0.3,6.1,0.8c2,0.5,3.7,1.4,5.2,2.7
		c1.5,1.3,2.8,3,3.7,5.1s1.4,4.8,1.4,8c0,1.1-0.1,2.4-0.2,3.7c-0.1,1.3-0.3,2.7-0.6,4.1h-24.6c0.2,3.4,1.1,6,2.7,7.8
		c1.6,1.8,4.2,2.6,7.8,2.6c2.2,0,4.2-0.3,6-1c1.8-0.7,3.1-1.4,4.1-2.1L443.8,122.5z M428.6,92.4c-2.8,0-4.9,0.8-6.2,2.5
		c-1.3,1.7-2.1,3.9-2.4,6.7h15.3c0.2-3-0.2-5.2-1.4-6.8C432.7,93.2,431,92.4,428.6,92.4z"/>
	<path class="st5" d="M469.7,68.6h34v10h-22.8v14.2h21v10h-21V126h-11.2V68.6z"/>
	<path class="st5" d="M519.4,85v23.3c0,3.3,0.4,5.7,1.2,7.2c0.8,1.5,2.3,2.2,4.6,2.2c2,0,3.7-0.6,5-1.8c1.3-1.2,2.3-2.7,3-4.4V85
		h10.7v28.5c0,2.2,0.1,4.4,0.3,6.6c0.2,2.2,0.5,4.1,1,5.9h-8l-1.9-6.1H535c-1.3,2.1-3,3.8-5.2,5.2c-2.2,1.4-4.9,2.1-8,2.1
		c-2.1,0-3.9-0.3-5.6-0.8s-3-1.4-4.1-2.7c-1.1-1.3-1.9-3-2.5-5.1s-0.9-4.8-0.9-8V85H519.4z"/>
	<path class="st5" d="M547,85h5.7v-7.7l10.7-3V85h10v9h-10v15.7c0,2.8,0.3,4.9,0.9,6.1c0.6,1.2,1.7,1.8,3.2,1.8c1.1,0,2-0.1,2.8-0.3
		c0.8-0.2,1.7-0.5,2.7-1l1.9,8.2c-1.5,0.7-3.2,1.3-5.2,1.8c-2,0.5-4,0.7-6,0.7c-3.8,0-6.5-1-8.3-2.9c-1.8-1.9-2.7-5.1-2.7-9.6V94
		H547V85z"/>
	<path class="st5" d="M588.2,85v23.3c0,3.3,0.4,5.7,1.2,7.2c0.8,1.5,2.3,2.2,4.6,2.2c2,0,3.7-0.6,5-1.8c1.3-1.2,2.3-2.7,3-4.4V85
		h10.7v28.5c0,2.2,0.1,4.4,0.3,6.6c0.2,2.2,0.5,4.1,1,5.9h-8l-1.9-6.1h-0.3c-1.3,2.1-3,3.8-5.2,5.2c-2.2,1.4-4.9,2.1-8,2.1
		c-2.1,0-3.9-0.3-5.6-0.8c-1.6-0.5-3-1.4-4.1-2.7c-1.1-1.3-1.9-3-2.5-5.1s-0.9-4.8-0.9-8V85H588.2z"/>
	<path class="st5" d="M642.7,95c-1.7-0.6-3.2-0.9-4.6-0.9c-1.9,0-3.5,0.5-4.8,1.5c-1.3,1-2.1,2.3-2.6,3.9V126h-10.7V85h8.3l1.2,5.4
		h0.3c0.9-2,2.2-3.6,3.8-4.7c1.6-1.1,3.4-1.6,5.6-1.6c1.4,0,3,0.3,4.8,0.9L642.7,95z"/>
	<path class="st5" d="M679.7,122.5c-1.6,1.3-3.9,2.4-6.7,3.3c-2.8,0.9-5.8,1.4-9,1.4c-6.6,0-11.5-1.9-14.5-5.8
		c-3.1-3.9-4.6-9.1-4.6-15.9c0-7.2,1.7-12.6,5.2-16.2c3.4-3.6,8.3-5.4,14.5-5.4c2.1,0,4.1,0.3,6.1,0.8c2,0.5,3.7,1.4,5.2,2.7
		c1.5,1.3,2.8,3,3.7,5.1c0.9,2.1,1.4,4.8,1.4,8c0,1.1-0.1,2.4-0.2,3.7c-0.1,1.3-0.3,2.7-0.6,4.1h-24.6c0.2,3.4,1.1,6,2.7,7.8
		c1.6,1.8,4.2,2.6,7.8,2.6c2.2,0,4.2-0.3,6-1c1.8-0.7,3.1-1.4,4.1-2.1L679.7,122.5z M664.5,92.4c-2.8,0-4.9,0.8-6.2,2.5
		c-1.3,1.7-2.1,3.9-2.4,6.7h15.3c0.2-3-0.2-5.2-1.4-6.8C668.6,93.2,666.9,92.4,664.5,92.4z"/>
	<path class="st5" d="M321.7,197.5c0-6.9,1.7-12.3,5.1-16c3.4-3.7,8.1-5.6,14.3-5.6c3.3,0,6.1,0.5,8.5,1.6c2.4,1,4.4,2.5,6,4.4
		c1.6,1.9,2.8,4.2,3.6,6.8c0.8,2.7,1.2,5.6,1.2,8.9c0,6.9-1.7,12.3-5,16c-3.4,3.7-8.1,5.6-14.2,5.6c-3.3,0-6.1-0.5-8.5-1.6
		c-2.4-1-4.4-2.5-6-4.4c-1.6-1.9-2.8-4.2-3.6-6.8C322.1,203.7,321.7,200.7,321.7,197.5z M332.7,197.5c0,1.8,0.2,3.5,0.5,5
		c0.3,1.5,0.8,2.9,1.5,4c0.7,1.1,1.5,2,2.6,2.7c1.1,0.6,2.3,0.9,3.8,0.9c2.8,0,4.9-1,6.2-3c1.4-2,2-5.2,2-9.6c0-3.8-0.6-6.8-1.9-9.1
		c-1.3-2.3-3.4-3.5-6.4-3.5c-2.6,0-4.7,1-6.1,3C333.4,189.8,332.7,193,332.7,197.5z"/>
	<path class="st5" d="M361,177h5.7v-2.3c0-5.2,1.1-9,3.3-11.3c2.2-2.3,5.4-3.5,9.5-3.5c4.4,0,8,0.5,10.9,1.6l-2,8.5
		c-1.3-0.4-2.4-0.7-3.3-0.9c-1-0.1-2-0.2-3-0.2c-1.1,0-2,0.2-2.6,0.5c-0.6,0.3-1.1,0.8-1.4,1.5c-0.3,0.7-0.5,1.5-0.6,2.5
		c-0.1,1-0.1,2.2-0.1,3.5h9v9h-9v32h-10.7v-32H361V177z"/>
	<path class="st5" d="M445.9,215.7c-1.8,1.2-4,2.1-6.7,2.7s-5.5,0.8-8.3,0.8c-3.4,0-6.7-0.5-9.8-1.6c-3.1-1.1-5.8-2.8-8.2-5.2
		c-2.4-2.4-4.2-5.5-5.6-9.3c-1.4-3.8-2.1-8.4-2.1-13.8c0-5.6,0.8-10.3,2.3-14.1c1.6-3.8,3.6-6.9,6.1-9.2c2.5-2.3,5.3-4,8.3-5
		c3.1-1,6.1-1.5,9.2-1.5c3.3,0,6.1,0.2,8.3,0.7c2.3,0.4,4.1,1,5.6,1.6l-2.2,9.5c-1.3-0.6-2.7-1-4.5-1.3c-1.7-0.3-3.8-0.4-6.3-0.4
		c-4.5,0-8.2,1.6-10.9,4.8c-2.8,3.2-4.1,8.2-4.1,15c0,3,0.3,5.7,1,8.1c0.7,2.4,1.7,4.5,3,6.2c1.3,1.7,3,3.1,5,4c2,1,4.3,1.4,6.9,1.4
		c2.5,0,4.5-0.2,6.2-0.7s3.2-1.1,4.4-1.9L445.9,215.7z"/>
	<path class="st5" d="M445.8,197.5c0-6.9,1.7-12.3,5.1-16c3.4-3.7,8.1-5.6,14.3-5.6c3.3,0,6.1,0.5,8.5,1.6c2.4,1,4.4,2.5,6,4.4
		s2.8,4.2,3.6,6.8c0.8,2.7,1.2,5.6,1.2,8.9c0,6.9-1.7,12.3-5,16c-3.4,3.7-8.1,5.6-14.2,5.6c-3.3,0-6.1-0.5-8.5-1.6
		c-2.4-1-4.4-2.5-6-4.4c-1.6-1.9-2.8-4.2-3.6-6.8C446.2,203.7,445.8,200.7,445.8,197.5z M456.8,197.5c0,1.8,0.2,3.5,0.5,5
		c0.3,1.5,0.8,2.9,1.5,4c0.7,1.1,1.5,2,2.6,2.7c1.1,0.6,2.3,0.9,3.8,0.9c2.8,0,4.9-1,6.2-3c1.4-2,2-5.2,2-9.6c0-3.8-0.6-6.8-1.9-9.1
		c-1.3-2.3-3.4-3.5-6.4-3.5c-2.6,0-4.7,1-6.1,3S456.8,193,456.8,197.5z"/>
	<path class="st5" d="M514.9,218v-23.3c0-3.3-0.5-5.7-1.4-7.2c-1-1.5-2.6-2.2-4.9-2.2c-2,0-3.7,0.6-5.1,1.8c-1.4,1.2-2.4,2.6-3,4.4
		V218h-10.7v-41h8.4l1.2,5.4h0.3c1.3-1.7,2.9-3.3,5-4.6c2.1-1.3,4.8-2,8-2c2,0,3.8,0.3,5.4,0.8c1.6,0.5,2.9,1.4,4,2.7
		c1.1,1.3,1.9,3,2.5,5.1c0.5,2.2,0.8,4.8,0.8,8V218H514.9z"/>
	<path class="st5" d="M549.5,206.7c0-1.1-0.5-2-1.4-2.6c-0.9-0.7-2.1-1.3-3.4-1.8c-1.4-0.5-2.9-1.1-4.5-1.7
		c-1.6-0.6-3.1-1.4-4.5-2.4c-1.4-1-2.5-2.3-3.4-3.9c-0.9-1.6-1.4-3.6-1.4-6c0-4,1.2-7.1,3.6-9.3c2.4-2.1,5.9-3.2,10.4-3.2
		c3.1,0,5.9,0.3,8.4,1c2.5,0.7,4.5,1.4,5.9,2.2l-2.4,7.7c-1.3-0.5-2.8-1-4.8-1.6c-1.9-0.5-3.9-0.8-5.8-0.8c-3.2,0-4.8,1.2-4.8,3.7
		c0,1,0.5,1.8,1.4,2.4s2.1,1.2,3.4,1.7c1.4,0.5,2.9,1.1,4.5,1.7c1.6,0.6,3.1,1.4,4.5,2.3c1.4,1,2.5,2.2,3.4,3.7
		c0.9,1.5,1.4,3.5,1.4,5.9c0,4.2-1.3,7.4-4,9.8c-2.7,2.4-6.6,3.6-11.9,3.6c-2.9,0-5.6-0.4-8.2-1.1c-2.5-0.7-4.6-1.6-6.2-2.6l3-8
		c1.3,0.7,2.9,1.4,5,2.1c2.1,0.7,4.2,1,6.4,1c1.6,0,2.9-0.3,3.8-0.9C549,209.1,549.5,208.1,549.5,206.7z"/>
	<path class="st5" d="M598,214.5c-1.6,1.3-3.9,2.4-6.7,3.3c-2.8,0.9-5.8,1.4-9,1.4c-6.6,0-11.5-1.9-14.5-5.8
		c-3.1-3.9-4.6-9.1-4.6-15.9c0-7.2,1.7-12.6,5.2-16.2c3.4-3.6,8.3-5.4,14.5-5.4c2.1,0,4.1,0.3,6.1,0.8c2,0.5,3.7,1.4,5.2,2.7
		c1.5,1.3,2.8,3,3.7,5.1c0.9,2.1,1.4,4.8,1.4,8c0,1.1-0.1,2.4-0.2,3.7c-0.1,1.3-0.3,2.7-0.6,4.1h-24.6c0.2,3.4,1.1,6,2.7,7.8
		c1.6,1.8,4.2,2.6,7.8,2.6c2.2,0,4.2-0.3,6-1c1.8-0.7,3.1-1.4,4.1-2.1L598,214.5z M582.7,184.4c-2.8,0-4.9,0.8-6.2,2.5
		c-1.3,1.7-2.1,3.9-2.4,6.7h15.3c0.2-3-0.2-5.2-1.4-6.8C586.9,185.2,585.1,184.4,582.7,184.4z"/>
	<path class="st5" d="M627.5,187c-1.7-0.6-3.2-0.9-4.6-0.9c-1.9,0-3.5,0.5-4.8,1.5c-1.3,1-2.1,2.3-2.6,3.9V218h-10.7v-41h8.3
		l1.2,5.4h0.3c0.9-2,2.2-3.6,3.8-4.7c1.6-1.1,3.4-1.6,5.6-1.6c1.4,0,3,0.3,4.8,0.9L627.5,187z"/>
	<path class="st5" d="M645.8,198.5l1.4,6.3h0.4l1.1-6.5l7-21.3h11.5l-17.1,41.4h-6.5L625.8,177h12.4L645.8,198.5z"/>
	<path class="st5" d="M668.6,179.4c2.2-1,4.8-1.8,7.8-2.3c3-0.6,6.2-0.9,9.4-0.9c2.8,0,5.2,0.3,7.1,1c1.9,0.7,3.4,1.7,4.6,2.9
		c1.1,1.3,1.9,2.8,2.4,4.5c0.5,1.8,0.7,3.7,0.7,5.9c0,2.4-0.1,4.8-0.2,7.3c-0.2,2.4-0.3,4.8-0.3,7.2c0,2.4,0,4.6,0.2,6.8
		c0.2,2.2,0.6,4.3,1.2,6.3h-8.7l-1.7-5.7h-0.4c-1.1,1.7-2.6,3.2-4.6,4.4c-1.9,1.2-4.4,1.8-7.5,1.8c-1.9,0-3.6-0.3-5.2-0.9
		c-1.5-0.6-2.8-1.4-3.9-2.5c-1.1-1.1-1.9-2.3-2.5-3.8c-0.6-1.4-0.9-3.1-0.9-4.9c0-2.5,0.6-4.6,1.7-6.4s2.7-3.1,4.8-4.2
		c2.1-1.1,4.6-1.8,7.5-2.2c2.9-0.4,6.2-0.5,9.8-0.4c0.4-3.1,0.2-5.3-0.7-6.6c-0.8-1.3-2.7-2-5.5-2c-2.1,0-4.4,0.2-6.8,0.7
		s-4.3,1-5.9,1.7L668.6,179.4z M682.1,209.9c2.1,0,3.8-0.5,5.1-1.4c1.3-1,2.2-2,2.8-3.1V200c-1.7-0.2-3.3-0.2-4.9-0.1
		c-1.6,0.1-2.9,0.4-4.1,0.7c-1.2,0.4-2.2,0.9-2.9,1.6c-0.7,0.7-1.1,1.6-1.1,2.7c0,1.5,0.5,2.7,1.4,3.6
		C679.3,209.5,680.5,209.9,682.1,209.9z"/>
	<path class="st5" d="M703.2,177h5.7v-7.7l10.7-3V177h10v9h-10v15.7c0,2.8,0.3,4.9,0.9,6.1c0.6,1.2,1.7,1.8,3.2,1.8
		c1.1,0,2-0.1,2.8-0.3c0.8-0.2,1.7-0.5,2.7-1l1.9,8.2c-1.5,0.7-3.2,1.3-5.2,1.8c-2,0.5-4,0.7-6,0.7c-3.8,0-6.5-1-8.3-2.9
		c-1.8-1.9-2.7-5.1-2.7-9.6V186h-5.7V177z"/>
	<path class="st5" d="M733.6,165.4c0-1.6,0.6-2.9,1.8-4.1c1.2-1.1,2.8-1.7,4.9-1.7c2.1,0,3.8,0.6,5,1.7c1.3,1.1,1.9,2.5,1.9,4.1
		c0,1.6-0.6,2.9-1.9,4c-1.3,1.1-3,1.6-5,1.6c-2.1,0-3.7-0.5-4.9-1.6S733.6,167,733.6,165.4z M735.1,177h10.7v41h-10.7V177z"/>
	<path class="st5" d="M752.3,197.5c0-6.9,1.7-12.3,5.1-16c3.4-3.7,8.1-5.6,14.3-5.6c3.3,0,6.1,0.5,8.5,1.6c2.4,1,4.4,2.5,6,4.4
		c1.6,1.9,2.8,4.2,3.6,6.8c0.8,2.7,1.2,5.6,1.2,8.9c0,6.9-1.7,12.3-5,16c-3.4,3.7-8.1,5.6-14.2,5.6c-3.3,0-6.1-0.5-8.5-1.6
		c-2.4-1-4.4-2.5-6-4.4c-1.6-1.9-2.8-4.2-3.6-6.8C752.7,203.7,752.3,200.7,752.3,197.5z M763.3,197.5c0,1.8,0.2,3.5,0.5,5
		c0.3,1.5,0.8,2.9,1.5,4c0.7,1.1,1.5,2,2.6,2.7c1.1,0.6,2.3,0.9,3.8,0.9c2.8,0,4.9-1,6.2-3c1.4-2,2-5.2,2-9.6c0-3.8-0.6-6.8-1.9-9.1
		c-1.3-2.3-3.4-3.5-6.4-3.5c-2.6,0-4.7,1-6.1,3C764,189.8,763.3,193,763.3,197.5z"/>
	<path class="st5" d="M821.4,218v-23.3c0-3.3-0.5-5.7-1.4-7.2c-1-1.5-2.6-2.2-4.9-2.2c-2,0-3.7,0.6-5.1,1.8c-1.4,1.2-2.4,2.6-3,4.4
		V218h-10.7v-41h8.4l1.2,5.4h0.3c1.3-1.7,2.9-3.3,5-4.6c2.1-1.3,4.8-2,8-2c2,0,3.8,0.3,5.4,0.8c1.6,0.5,2.9,1.4,4,2.7
		c1.1,1.3,1.9,3,2.5,5.1c0.5,2.2,0.8,4.8,0.8,8V218H821.4z"/>
</g>
</svg>
