<svg version="1.1" id="Layer_1" xmlns="http://www.w3.org/2000/svg" xmlns:xlink="http://www.w3.org/1999/xlink" x="0px" y="0px"
	 viewBox="0 0 381 167.4" style="enable-background:new 0 0 381 167.4;" xml:space="preserve">
<style type="text/css">
	.st0{fill:#7D8E88;}
	.st1{fill:#4A5256;}
</style>
<g>
	<path class="st0" d="M191.3,59.8h-16v-9h16V25.7c0-5,0.7-9.1,2.2-12.4s3.4-5.9,5.6-7.9s4.7-3.4,7.4-4.2s5.3-1.2,7.7-1.2
		c4.7,0,8.5,0.7,11.5,2l-2,8.6c-2.2-1.1-5.2-1.7-9-1.7c-9,0-13.5,6.8-13.5,20.5v21.5h18v9h-18v67.9h-10L191.3,59.8L191.3,59.8z"/>
	<path class="st0" d="M224.7,89.2c0-5.9,1-11.3,3-16.2c2-4.9,4.8-9.2,8.3-12.8s7.8-6.4,12.8-8.4s10.4-3,16.3-3s11.3,1,16.2,3
		c4.9,2,9.2,4.8,12.8,8.4c3.6,3.6,6.4,7.9,8.4,12.8s3,10.3,3,16.2s-1,11.3-3,16.2c-2,4.9-4.8,9.2-8.4,12.8
		c-3.6,3.6-7.9,6.4-12.8,8.4c-4.9,2-10.3,3-16.2,3c-5.9,0-11.3-1-16.3-3s-9.3-4.8-12.8-8.4s-6.3-7.9-8.3-12.8S224.7,95.1,224.7,89.2
		z M234.7,89.2c0,4.3,0.7,8.4,2.1,12.2c1.4,3.8,3.4,7.2,6.1,10s5.9,5.1,9.6,6.7c3.8,1.7,8,2.5,12.6,2.5c4.7,0,8.9-0.8,12.6-2.5
		c3.8-1.7,7-3.9,9.6-6.7c2.7-2.8,4.7-6.2,6.1-10s2.1-7.9,2.1-12.2c0-4.3-0.7-8.4-2.1-12.2c-1.4-3.8-3.4-7.2-6.1-10s-5.9-5.1-9.6-6.7
		c-3.8-1.7-8-2.5-12.6-2.5c-4.7,0-8.9,0.8-12.6,2.5c-3.8,1.7-7,3.9-9.6,6.7c-2.7,2.8-4.7,6.2-6.1,10
		C235.4,80.8,234.7,84.9,234.7,89.2z"/>
	<path class="st0" d="M335,86.1l-27.5-35.3h12.8l21.3,29.1l21.1-29.1h12.5l-27.1,35.3l32.9,41.6h-13l-26.8-34.8l-56.1,74.5h-12
		L335,86.1z"/>
	<path class="st1" d="M82.1,122.7c0,14.2-3.6,25-10.9,32.4s-17.8,11.1-31.5,11.1c-7.7,0-14.6-1.1-20.7-3.3c-6.2-2.2-12-6-17.6-11.5
		l9.3-10.6c4.1,4.4,8.5,7.8,13.1,10.1s9.9,3.4,15.9,3.4c5.8,0,10.6-0.9,14.4-2.6s6.8-4,9.1-7c2.2-2.9,3.8-6.3,4.7-10.1
		c0.9-3.8,1.3-7.7,1.3-11.8v-10h-0.3c-3.1,5-7.2,8.7-12.2,11s-10.1,3.5-15.3,3.5c-6.1,0-11.7-1-16.8-3s-9.5-4.8-13.1-8.3
		c-3.7-3.5-6.5-7.8-8.5-12.6c-2-4.9-3-10.2-3-16c0-6.3,1-12,3-17.1s4.8-9.4,8.4-12.9s8-6.2,13.1-8.1c5.1-1.9,10.8-2.8,17-2.8
		c2.7,0,5.3,0.3,8,0.9s5.2,1.6,7.7,2.8c2.5,1.3,4.7,2.9,6.7,4.8c2,1.9,3.7,4.2,5,6.7h0.3V48.4h13L82.1,122.7
		C82.2,122.7,82.1,122.7,82.1,122.7z M13.9,87.2c0,4,0.7,7.7,2.2,11.1c1.4,3.4,3.4,6.3,5.9,8.8s5.4,4.5,8.7,5.9s6.9,2.2,10.6,2.2
		c4.4,0,8.4-0.8,11.8-2.3c3.4-1.6,6.4-3.6,8.7-6.2c2.4-2.6,4.2-5.6,5.4-9c1.2-3.4,1.8-7,1.8-10.7c0-4.2-0.7-8.1-2-11.6
		s-3.2-6.5-5.7-9.1s-5.4-4.5-8.8-5.9s-7.2-2.1-11.3-2.1s-7.8,0.8-11.2,2.2c-3.4,1.5-6.3,3.5-8.7,6.2c-2.4,2.6-4.2,5.7-5.6,9.2
		C14.5,79.3,13.9,83.1,13.9,87.2z"/>
	<path class="st1" d="M89.1,87.2c0-6.1,1.1-11.6,3.2-16.6s5-9.3,8.7-12.9s8-6.4,13.1-8.4s10.6-3,16.6-3c6,0,11.5,1,16.6,3
		s9.5,4.8,13.1,8.4c3.7,3.6,6.5,7.9,8.7,12.9c2.1,5,3.2,10.5,3.2,16.6s-1.1,11.7-3.2,16.6c-2.1,5-5,9.3-8.7,12.9s-8,6.4-13.1,8.4
		s-10.6,3-16.6,3s-11.5-1-16.6-3s-9.5-4.8-13.1-8.4c-3.7-3.6-6.5-7.9-8.7-12.9C90.1,98.9,89.1,93.3,89.1,87.2z M103.1,87.2
		c0,4.1,0.6,7.9,1.9,11.4s3.1,6.5,5.6,9.1c2.4,2.6,5.4,4.7,8.7,6.2c3.4,1.5,7.2,2.2,11.4,2.2c4.2,0,8-0.7,11.4-2.2s6.3-3.5,8.7-6.2
		c2.4-2.6,4.3-5.7,5.6-9.1c1.3-3.5,1.9-7.3,1.9-11.4s-0.6-7.9-1.9-11.4s-3.1-6.5-5.6-9.2c-2.4-2.6-5.4-4.7-8.7-6.2
		c-3.4-1.5-7.2-2.2-11.4-2.2s-8,0.8-11.4,2.2c-3.4,1.5-6.3,3.5-8.7,6.2c-2.4,2.6-4.3,5.7-5.6,9.2C103.7,79.3,103.1,83.1,103.1,87.2z
		"/>
</g>
</svg>
