<?xml version="1.0" encoding="utf-8"?>
<!-- Generator: Adobe Illustrator 22.1.0, SVG Export Plug-In . SVG Version: 6.00 Build 0)  -->
<svg version="1.1" id="Layer_1" xmlns="http://www.w3.org/2000/svg" xmlns:xlink="http://www.w3.org/1999/xlink" x="0px" y="0px"
	 viewBox="0 0 100.1 90.3" style="enable-background:new 0 0 100.1 90.3;" xml:space="preserve">
<style type="text/css">
	.st0{fill:#BF8BAD;}
</style>
<g>
	<g>
		<path class="st0" d="M100.1,12l-0.1-2l-3,0.1V6.7H86.7v3.8L77,10.7v-4H66.7V17h4.2v23h-4.2v4.2H57V40h-4.2v-9.7H57V20H46.7v4.2
			c-3.1,0-6.8,0.1-9.7,0.1V20h-4.3c0-2.8,0.1-6.6,0.1-9.7H37V0H26.7v4.2L17,4.3V0H6.7v4.4L0,4.4l0,2c0,0,2.8,0,6.7-0.1v4H17v-4
			c3.6,0,7.1-0.1,9.7-0.1v4.1h4.1c0,2.8-0.1,6.5-0.1,9.7h-4v10.3H37v-4c3.2,0,6.9-0.1,9.7-0.1v4.1h4.2V40h-4.2v10.3H57v-4.2h9.7v4.2
			H77V40h-4.2V17H77v-4.3c2.9-0.1,6.7-0.2,9.7-0.2V17H97v-4.8L100.1,12z"/>
	</g>
</g>
<g>
	<g>
		<path class="st0" d="M100,66l0-2l-3,0V60H86.7v4.2H77V60H66.7v10.3h4.2V80h-4.2v4.3c-2.9,0.1-6.8,0.2-9.7,0.3V80H53
			c0-2.9-0.1-6.6-0.1-9.7H57V60H46.7v4.2l-9.7,0V60H26.7v4.2c-2.9,0-6.7,0.1-9.7,0.1V60h-4.5c0.1-2.9,0.1-6.6,0.2-9.7H17V40H6.7v4.2
			L0,44.3l0,2c0,0,3.6,0,6.7-0.1v4.1h4c-0.1,2.8-0.1,6.5-0.2,9.7H6.7v10.3H17v-4l9.7-0.1v4.1H37v-4.1c3.1,0,6.8,0,9.7,0v4.1h4.2
			c0,2.8,0.1,6.5,0.1,9.7h-4.4v10.3H57v-3.6l9.7-0.3v4H77V80h-4.2v-9.7H77v-4.2h9.7v4.2H97v-4.2L100,66z"/>
	</g>
</g>
</svg>
