<?xml version="1.0" encoding="utf-8"?>
<!-- Generator: Adobe Illustrator 22.1.0, SVG Export Plug-In . SVG Version: 6.00 Build 0)  -->
<svg version="1.1" id="Layer_1" xmlns="http://www.w3.org/2000/svg" xmlns:xlink="http://www.w3.org/1999/xlink" x="0px" y="0px"
	 viewBox="0 0 288.9 234.7" style="enable-background:new 0 0 288.9 234.7;" xml:space="preserve">
<style type="text/css">
	.st0{fill:#8BBFBD;}
</style>
<g>
	<path class="st0" d="M156.5,117.7c-0.3-1.7-0.6-3.4-1-5.1l-0.4-1.9L26.3,173.6l3.5,7.2l127-61.9L156.5,117.7z"/>
	<path class="st0" d="M249.1,94.5L261,63.6l-31.7-9.6l-2.3,7.6l17.9,5.4l-69.1,33.7l0.2,1.1c0.3,1.7,0.6,3.4,1,5.1l0.4,1.9
		l71.1-34.7l-6.7,17.4L249.1,94.5z"/>
	<path class="st0" d="M191.8,35L222,20.3l-6.7,17.4l7.5,2.9l11.9-30.9L203,0l-2.3,7.6l17.9,5.4l-30.3,14.8
		c-38.4,18.7-32,51.5-25.9,83.1c5.8,29.6,11.2,57.6-20.8,73.2l-89,43.4l3.5,7.2l89-43.4c37.5-18.3,31.2-50.6,25.1-81.9
		C164.4,79.4,158.9,51.1,191.8,35z"/>
	<path class="st0" d="M150.1,97.8l3.3,3.4l-0.7-4.7c-0.4-2.8-0.8-5.5-1.1-8l-0.1-0.5l-0.4-0.4C137.5,74.9,118.1,62,89,76.3L0,119.7
		l3.5,7.2l89-43.4C107.9,75.9,125.5,72.5,150.1,97.8z"/>
	<path class="st0" d="M253.3,115.5l17.9,5.4l-30.3,14.8c-15.7,7.7-33.7,11.3-58.5-14l-3.3-3.4l0.7,4.6c0.5,3.1,0.8,5.6,1.1,8
		l0.1,0.6l0.4,0.4c13.7,12.7,33.2,25.4,62.9,11l30.3-14.8l-6.7,17.4l7.5,2.9l11.9-30.9l-31.7-9.6L253.3,115.5z"/>
</g>
</svg>
