<?xml version="1.0" encoding="utf-8"?>
<!-- Generator: Adobe Illustrator 22.1.0, SVG Export Plug-In . SVG Version: 6.00 Build 0)  -->
<svg version="1.1" id="Layer_1" xmlns="http://www.w3.org/2000/svg" xmlns:xlink="http://www.w3.org/1999/xlink" x="0px" y="0px"
	 viewBox="0 0 49.5 49.5" style="enable-background:new 0 0 49.5 49.5;" xml:space="preserve">
<style type="text/css">
	.st0{clip-path:url(#SVGID_2_);fill:#B0CFD3;}
	.st1{clip-path:url(#SVGID_4_);fill:#4A4D4B;}
	.st2{clip-path:url(#SVGID_6_);fill:#4A4D4B;}
	.st3{clip-path:url(#SVGID_8_);fill:#4A4D4B;}
	.st4{clip-path:url(#SVGID_10_);fill:#4A4D4B;}
</style>
<g>
	<g>
		<g>
			<defs>
				<path id="SVGID_1_" d="M42.7,49.6H7c-3.8,0-6.9-3.1-6.9-6.9V6.9C0.1,3.1,3.2,0,7,0h35.7c3.8,0,6.9,3.1,6.9,6.9v35.7
					C49.6,46.4,46.4,49.6,42.7,49.6"/>
			</defs>
			<clipPath id="SVGID_2_">
				<use xlink:href="#SVGID_1_"  style="overflow:visible;"/>
			</clipPath>
			<rect x="-4.8" y="-4.8" class="st0" width="59.2" height="59.2"/>
		</g>
	</g>
	<g>
		<g>
			<defs>
				<path id="SVGID_3_" d="M15.5,21.7c2.5,0,4.7-2,4.7-4.7s-2-4.7-4.7-4.7c-2.6,0-4.7,2-4.7,4.7S13,21.7,15.5,21.7z M15.5,14.1
					c1.7,0,3,1.4,3,3c0,1.7-1.4,3-3,3s-3-1.4-3-3C12.5,15.5,13.8,14.1,15.5,14.1z"/>
			</defs>
			<clipPath id="SVGID_4_">
				<use xlink:href="#SVGID_3_"  style="overflow:visible;"/>
			</clipPath>
			<rect x="6.1" y="7.5" class="st1" width="19" height="19"/>
		</g>
	</g>
	<g>
		<g>
			<defs>
				<path id="SVGID_5_" d="M34.1,21.7c2.5,0,4.7-2,4.7-4.7s-2-4.7-4.7-4.7c-2.6,0-4.7,2-4.7,4.7S31.5,21.7,34.1,21.7z M34.1,14.1
					c1.7,0,3,1.4,3,3c0,1.7-1.4,3-3,3c-1.7,0-3-1.4-3-3C31.1,15.5,32.5,14.1,34.1,14.1z"/>
			</defs>
			<clipPath id="SVGID_6_">
				<use xlink:href="#SVGID_5_"  style="overflow:visible;"/>
			</clipPath>
			<rect x="24.6" y="7.5" class="st2" width="19" height="19"/>
		</g>
	</g>
	<g>
		<g>
			<defs>
				<rect id="SVGID_7_" x="15.5" y="32.6" width="18.5" height="1.6"/>
			</defs>
			<clipPath id="SVGID_8_">
				<use xlink:href="#SVGID_7_"  style="overflow:visible;"/>
			</clipPath>
			<rect x="10.6" y="27.7" class="st3" width="28.2" height="11.3"/>
		</g>
	</g>
	<g>
		<g>
			<defs>
				<path id="SVGID_9_" d="M7,49.6h35.5c3.9,0,7-3.1,7-7V7c0-3.9-3.1-7-7-7H7C3.1,0,0,3.1,0,7v35.5C0,46.4,3.2,49.6,7,49.6z M7,48
					c-0.1,0-0.2,0-0.3,0c4.5-2.5,11.1-4,18.1-4s13.6,1.5,18.1,4c-0.1,0-0.2,0-0.3,0H7z M42.6,1.6c0.1,0,0.2,0,0.3,0
					c-4.5,2.5-11.1,4-18.1,4s-13.6-1.5-18.1-4c0.1,0,0.2,0,0.3,0L42.6,1.6L42.6,1.6z M1.6,7c0-2.1,1.3-4,3-4.9
					c4.7,3.1,12.2,5,20.2,5s15.5-1.8,20.2-5C46.7,3,48,4.8,48,7v35.5c0,2.1-1.3,4-3,4.9c-4.7-3.1-12.2-5-20.2-5s-15.5,1.8-20.2,5
					c-1.7-0.9-3-2.7-3-4.9V7z"/>
			</defs>
			<clipPath id="SVGID_10_">
				<use xlink:href="#SVGID_9_"  style="overflow:visible;"/>
			</clipPath>
			<rect x="-4.8" y="-4.8" class="st4" width="59.2" height="59.2"/>
		</g>
	</g>
</g>
</svg>
