<?xml version="1.0" encoding="utf-8"?>
<!-- Generator: Adobe Illustrator 22.1.0, SVG Export Plug-In . SVG Version: 6.00 Build 0)  -->
<svg version="1.1" id="Layer_1" xmlns="http://www.w3.org/2000/svg" xmlns:xlink="http://www.w3.org/1999/xlink" x="0px" y="0px"
	 viewBox="0 0 49.5 49.5" style="enable-background:new 0 0 49.5 49.5;" xml:space="preserve">
<style type="text/css">
	.st0{clip-path:url(#SVGID_2_);fill:#ECE290;}
	.st1{clip-path:url(#SVGID_4_);fill:#4A4D4B;}
	.st2{clip-path:url(#SVGID_6_);fill:#4A4D4B;}
	.st3{clip-path:url(#SVGID_8_);fill:#4A4D4B;}
	.st4{clip-path:url(#SVGID_10_);fill:#4A4D4B;}
</style>
<g>
	<g>
		<g>
			<defs>
				<path id="SVGID_1_" d="M42.6,49.5H6.9c-3.8,0-6.9-3.1-6.9-6.9V6.9C0,3.1,3.1,0,6.9,0h35.7c3.8,0,6.9,3.1,6.9,6.9v35.7
					C49.5,46.4,46.4,49.5,42.6,49.5"/>
			</defs>
			<clipPath id="SVGID_2_">
				<use xlink:href="#SVGID_1_"  style="overflow:visible;"/>
			</clipPath>
			<rect x="-5" y="-5" class="st0" width="59.5" height="59.5"/>
		</g>
	</g>
	<g>
		<g>
			<defs>
				<path id="SVGID_3_" d="M16,22c2.4,0,4.3-1.9,4.3-4.3s-1.9-4.3-4.3-4.3c-2.4,0-4.3,1.9-4.3,4.3C11.6,20.1,13.6,22,16,22z M16,15
					c1.5,0,2.8,1.2,2.8,2.8c0,1.5-1.2,2.8-2.8,2.8c-1.5,0-2.8-1.2-2.8-2.8S14.4,15,16,15z"/>
			</defs>
			<clipPath id="SVGID_4_">
				<use xlink:href="#SVGID_3_"  style="overflow:visible;"/>
			</clipPath>
			<rect x="6.6" y="8.4" class="st1" width="18.6" height="18.6"/>
		</g>
	</g>
	<g>
		<g>
			<defs>
				<path id="SVGID_5_" d="M33.6,22c2.4,0,4.3-1.9,4.3-4.3s-1.9-4.3-4.3-4.3s-4.3,1.9-4.3,4.3S31.2,22,33.6,22z M33.6,15
					c1.5,0,2.8,1.2,2.8,2.8c0,1.5-1.2,2.8-2.8,2.8c-1.5,0-2.8-1.2-2.8-2.8S32.1,15,33.6,15z"/>
			</defs>
			<clipPath id="SVGID_6_">
				<use xlink:href="#SVGID_5_"  style="overflow:visible;"/>
			</clipPath>
			<rect x="24.3" y="8.4" class="st2" width="18.6" height="18.6"/>
		</g>
	</g>
	<g>
		<g>
			<defs>
				<path id="SVGID_7_" d="M12.6,32.2c0.1,0.1,5.5,4,12.7,4c3.6,0,7.7-1,11.7-4L36.1,31c-11.2,8.3-22.1,0.3-22.6,0L12.6,32.2"/>
			</defs>
			<clipPath id="SVGID_8_">
				<use xlink:href="#SVGID_7_"  style="overflow:visible;"/>
			</clipPath>
			<rect x="7.6" y="26" class="st3" width="34.4" height="15.3"/>
		</g>
	</g>
	<g>
		<g>
			<defs>
				<path id="SVGID_9_" d="M7,49.5h35.5c3.8,0,7-3.1,7-7V7c0-3.8-3.1-7-7-7H7C3.2,0,0,3.1,0,7v35.5C0,46.3,3.2,49.5,7,49.5z M7,47.9
					c-0.1,0-0.2,0-0.3,0c4.5-2.5,11.1-4,18.1-4s13.6,1.5,18.1,4c-0.1,0-0.2,0-0.3,0H7z M42.5,1.6c0.1,0,0.2,0,0.3,0
					c-4.5,2.5-11.1,4-18.1,4s-13.6-1.5-18.1-4c0.1,0,0.2,0,0.3,0H42.5L42.5,1.6z M1.6,7c0-2.1,1.2-4,3-4.8c4.7,3.1,12.2,5,20.2,5
					s15.5-1.9,20.2-5c1.8,0.9,3,2.7,3,4.8v35.5c0,2.1-1.2,4-3,4.8c-4.7-3.1-12.2-5-20.2-5s-15.5,1.9-20.2,5c-1.8-0.9-3-2.7-3-4.8V7z
					"/>
			</defs>
			<clipPath id="SVGID_10_">
				<use xlink:href="#SVGID_9_"  style="overflow:visible;"/>
			</clipPath>
			<rect x="-5" y="-5" class="st4" width="59.5" height="59.5"/>
		</g>
	</g>
</g>
</svg>
