<?xml version="1.0" encoding="utf-8"?>
<!-- Generator: Adobe Illustrator 22.1.0, SVG Export Plug-In . SVG Version: 6.00 Build 0)  -->
<svg version="1.1" id="Layer_1" xmlns="http://www.w3.org/2000/svg" xmlns:xlink="http://www.w3.org/1999/xlink" x="0px" y="0px"
	 viewBox="0 0 49.5 49.5" style="enable-background:new 0 0 49.5 49.5;" xml:space="preserve">
<style type="text/css">
	.st0{clip-path:url(#SVGID_2_);fill:#FFEA5C;}
	.st1{clip-path:url(#SVGID_4_);fill:#4A4D4B;}
	.st2{clip-path:url(#SVGID_6_);fill:#4A4D4B;}
	.st3{clip-path:url(#SVGID_8_);fill:#4A4D4B;}
	.st4{clip-path:url(#SVGID_10_);fill:#4A4D4B;}
</style>
<g>
	<g>
		<g>
			<defs>
				<path id="SVGID_1_" d="M42.6,49.5H6.9c-3.8,0-6.9-3.1-6.9-6.9V6.9C0,3.1,3.1,0,6.9,0h35.7c3.8,0,6.9,3.1,6.9,6.9v35.7
					C49.5,46.4,46.4,49.5,42.6,49.5"/>
			</defs>
			<clipPath id="SVGID_2_">
				<use xlink:href="#SVGID_1_"  style="overflow:visible;"/>
			</clipPath>
			<rect x="-5" y="-5" class="st0" width="59.5" height="59.5"/>
		</g>
	</g>
	<g>
		<g>
			<defs>
				<path id="SVGID_3_" d="M24.8,37.9c-5.7,0-10.4-4.7-10.4-10.4h-1.5c0,6.6,5.3,11.9,11.9,11.9c6.6,0,11.9-5.3,11.9-11.9h-1.5
					C35.1,33.2,30.5,37.9,24.8,37.9"/>
			</defs>
			<clipPath id="SVGID_4_">
				<use xlink:href="#SVGID_3_"  style="overflow:visible;"/>
			</clipPath>
			<rect x="7.9" y="22.5" class="st1" width="33.8" height="21.9"/>
		</g>
	</g>
	<g>
		<g>
			<defs>
				<path id="SVGID_5_" d="M16,22c2.4,0,4.3-1.9,4.3-4.3s-1.9-4.3-4.3-4.3c-2.4,0-4.3,1.9-4.3,4.3C11.6,20.1,13.6,22,16,22z M16,15
					c1.5,0,2.8,1.2,2.8,2.8c0,1.5-1.2,2.8-2.8,2.8c-1.5,0-2.8-1.2-2.8-2.8S14.4,15,16,15z"/>
			</defs>
			<clipPath id="SVGID_6_">
				<use xlink:href="#SVGID_5_"  style="overflow:visible;"/>
			</clipPath>
			<rect x="6.6" y="8.4" class="st2" width="18.6" height="18.6"/>
		</g>
	</g>
	<g>
		<g>
			<defs>
				<path id="SVGID_7_" d="M33.6,13.4c-2.4,0-4.3,1.9-4.3,4.3s1.9,4.3,4.3,4.3s4.3-1.9,4.3-4.3C37.9,15.3,36,13.4,33.6,13.4z
					 M33.6,20.5c-1.5,0-2.8-1.2-2.8-2.8c0-1.5,1.2-2.8,2.8-2.8c1.5,0,2.8,1.2,2.8,2.8C36.3,19.2,35.1,20.5,33.6,20.5z"/>
			</defs>
			<clipPath id="SVGID_8_">
				<use xlink:href="#SVGID_7_"  style="overflow:visible;"/>
			</clipPath>
			<rect x="24.3" y="8.4" class="st3" width="18.6" height="18.6"/>
		</g>
	</g>
	<g>
		<g>
			<defs>
				<path id="SVGID_9_" d="M42.5,0H7C3.2,0,0,3.1,0,7v35.5c0,3.8,3.1,7,7,7h35.5c3.8,0,7-3.1,7-7V7C49.5,3.1,46.4,0,42.5,0z
					 M42.5,1.6c0.1,0,0.2,0,0.3,0c-4.5,2.5-11,4-18.1,4c-7,0-13.6-1.5-18.1-4c0.1,0,0.2,0,0.3,0H42.5L42.5,1.6z M7,47.9
					c-0.1,0-0.2,0-0.3,0c4.5-2.5,11.1-4,18.1-4s13.6,1.5,18.1,4c-0.1,0-0.2,0-0.3,0H7z M47.9,42.5c0,2.1-1.2,4-3,4.8
					c-4.7-3.1-12.2-5-20.2-5s-15.5,1.9-20.2,5c-1.8-0.9-3-2.7-3-4.8V7c0-2.1,1.2-4,3-4.8c4.6,3.1,12.2,5,20.2,5s15.5-1.9,20.2-5
					c1.8,0.9,3,2.7,3,4.8V42.5z"/>
			</defs>
			<clipPath id="SVGID_10_">
				<use xlink:href="#SVGID_9_"  style="overflow:visible;"/>
			</clipPath>
			<rect x="-5" y="-5" class="st4" width="59.5" height="59.5"/>
		</g>
	</g>
</g>
</svg>
