<?xml version="1.0" encoding="utf-8"?>
<!-- Generator: Adobe Illustrator 22.1.0, SVG Export Plug-In . SVG Version: 6.00 Build 0)  -->
<svg version="1.1" id="Layer_1" xmlns="http://www.w3.org/2000/svg" xmlns:xlink="http://www.w3.org/1999/xlink" x="0px" y="0px"
	 viewBox="0 0 49.5 49.5" style="enable-background:new 0 0 49.5 49.5;" xml:space="preserve">
<style type="text/css">
	.st0{clip-path:url(#SVGID_2_);fill:#E99080;}
	.st1{clip-path:url(#SVGID_4_);fill:#4A4D4B;}
	.st2{clip-path:url(#SVGID_6_);fill:#4A4D4B;}
	.st3{clip-path:url(#SVGID_8_);fill:#4A4D4B;}
	.st4{clip-path:url(#SVGID_10_);fill:#4A4D4B;}
</style>
<g>
	<g>
		<g>
			<defs>
				<path id="SVGID_1_" d="M42.6,49.5H6.9c-3.8,0-6.9-3.1-6.9-6.9V6.9C0,3.1,3.1,0,6.9,0h35.7c3.8,0,6.9,3.1,6.9,6.9v35.7
					C49.5,46.4,46.4,49.5,42.6,49.5"/>
			</defs>
			<clipPath id="SVGID_2_">
				<use xlink:href="#SVGID_1_"  style="overflow:visible;"/>
			</clipPath>
			<rect x="-5" y="-5" class="st0" width="59.5" height="59.5"/>
		</g>
	</g>
	<g>
		<g>
			<defs>
				<path id="SVGID_3_" d="M24.8,25.1c-6.2,0-11.1,5-11.1,11.1H36C35.9,30.1,30.9,25.1,24.8,25.1z M15.3,34.7
					c0.7-4.6,4.7-8.1,9.5-8.1s8.7,3.5,9.5,8.1H15.3z"/>
			</defs>
			<clipPath id="SVGID_4_">
				<use xlink:href="#SVGID_3_"  style="overflow:visible;"/>
			</clipPath>
			<rect x="8.6" y="20.1" class="st1" width="32.3" height="21.1"/>
		</g>
	</g>
	<g>
		<g>
			<defs>
				<polyline id="SVGID_5_" points="13.4,12.8 12.5,14.1 18.1,17.7 12.5,21.4 13.4,22.7 21,17.7 13.4,12.8 				"/>
			</defs>
			<clipPath id="SVGID_6_">
				<use xlink:href="#SVGID_5_"  style="overflow:visible;"/>
			</clipPath>
			<rect x="7.5" y="7.8" class="st2" width="18.5" height="19.9"/>
		</g>
	</g>
	<g>
		<g>
			<defs>
				<polyline id="SVGID_7_" points="36.2,12.8 28.6,17.7 36.2,22.7 37,21.4 31.4,17.7 37,14.1 36.2,12.8 				"/>
			</defs>
			<clipPath id="SVGID_8_">
				<use xlink:href="#SVGID_7_"  style="overflow:visible;"/>
			</clipPath>
			<rect x="23.6" y="7.8" class="st3" width="18.5" height="19.9"/>
		</g>
	</g>
	<g>
		<g>
			<defs>
				<path id="SVGID_9_" d="M42.5,0H7C3.2,0,0,3.1,0,7v35.5c0,3.8,3.1,7,7,7h35.5c3.8,0,7-3.1,7-7V7C49.5,3.1,46.4,0,42.5,0z
					 M42.5,1.6c0.1,0,0.2,0,0.3,0c-4.5,2.5-11.1,4-18.1,4s-13.6-1.5-18.1-4c0.1,0,0.2,0,0.3,0H42.5L42.5,1.6z M7,47.9
					c-0.1,0-0.2,0-0.3,0c4.5-2.5,11.1-4,18.1-4s13.6,1.5,18.1,4c-0.1,0-0.2,0-0.3,0H7z M47.9,42.5c0,2.1-1.2,4-3,4.8
					c-4.7-3.1-12.2-5-20.2-5s-15.5,1.9-20.2,5c-1.8-0.9-3-2.7-3-4.8V7c0-2.1,1.2-4,3-4.8c4.7,3.1,12.2,5,20.2,5s15.5-1.9,20.2-5
					c1.8,0.9,3,2.7,3,4.8V42.5z"/>
			</defs>
			<clipPath id="SVGID_10_">
				<use xlink:href="#SVGID_9_"  style="overflow:visible;"/>
			</clipPath>
			<rect x="-5" y="-5" class="st4" width="59.5" height="59.5"/>
		</g>
	</g>
</g>
</svg>
