<?xml version="1.0" encoding="utf-8"?>
<!-- Generator: Adobe Illustrator 22.1.0, SVG Export Plug-In . SVG Version: 6.00 Build 0)  -->
<svg version="1.1" id="Layer_1" xmlns="http://www.w3.org/2000/svg" xmlns:xlink="http://www.w3.org/1999/xlink" x="0px" y="0px"
	 viewBox="0 0 769.5 30.1" style="enable-background:new 0 0 769.5 30.1;" xml:space="preserve">
<style type="text/css">
	.st0{fill:#2686B8;}
	.st1{fill:#E9EDF0;}
	.st2{fill:#2586B8;}
</style>
<path class="st0" d="M19.5,19.9H4.9C2.2,19.9,0,17.7,0,15c0-1.3,0.5-2.5,1.4-3.4s2.2-1.4,3.5-1.4h14.6"/>
<path class="st1" d="M46,15c0,6.7-5.5,12.2-12.2,12.2c-6,0-11.1-4.4-12-10.2H4.9c-1.1,0-2-0.9-2-2c0-0.6,0.2-1.1,0.6-1.4
	C3.9,13.2,4.4,13,4.9,13h16.8c1-5.8,6-10.2,12-10.2C40.5,2.8,46,8.3,46,15z"/>
<path class="st1" d="M767.6,13h-16.8c-1-5.8-6-10.2-12-10.2c-6.1,0-11.1,4.4-12,10.2h-117c-1-5.8-6-10.2-12-10.2
	c-6.1,0-11.1,4.4-12,10.2h-117c-1-5.8-6-10.2-12-10.2c-6.1,0-11.1,4.4-12,10.2h-117c-1-5.8-6-10.2-12-10.2c-6.1,0-11.1,4.4-12,10.2
	h-117c-1-5.8-6-10.2-12-10.2s-11.1,4.4-12,10.2h-117c-1-5.8-6-10.2-12-10.2c-6.1,0-11.1,4.4-12,10.2H4.9c-1.1,0-2,0.9-2,2l0,0
	c0,1.1,0.9,2,2,2h16.8c1,5.8,6,10.2,12,10.2c6.1,0,11.1-4.4,12-10.2h116.9c1,5.8,6,10.2,12,10.2s11.1-4.4,12-10.2h116.9
	c1,5.8,6,10.2,12,10.2c6.1,0,11.1-4.4,12-10.2h116.9c1,5.8,6,10.2,12,10.2c6.1,0,11.1-4.4,12-10.2h116.9c1,5.8,6,10.2,12,10.2
	c6.1,0,11.1-4.4,12-10.2h116.9c1,5.8,6,10.2,12,10.2c6.1,0,11.1-4.4,12-10.2H767c1.1,0,2-0.9,2-2l0,0C769.6,13.9,768.7,13,767.6,13z
	"/>
<path class="st2" d="M33.7,0c-8.3,0-15.1,6.8-15.1,15c0,8.3,6.8,15.1,15.1,15.1s15-6.8,15-15.1C48.8,6.7,42,0,33.7,0z M33.7,27.2
	c-6.7,0-12.2-5.5-12.2-12.2c0-6.8,5.5-12.2,12.2-12.2c6.8,0,12.2,5.5,12.2,12.2C46,21.8,40.5,27.2,33.7,27.2z"/>
<path class="st1" d="M37.6,17H4.9c-1.1,0-2-0.9-2-2l0,0c0-1.1,0.9-2,2-2h32.7c1.1,0,2,0.9,2,2l0,0C39.6,16,38.7,17,37.6,17z"/>
</svg>
