<?xml version="1.0" encoding="utf-8"?>
<!-- Generator: Adobe Illustrator 22.1.0, SVG Export Plug-In . SVG Version: 6.00 Build 0)  -->
<svg version="1.1" id="Layer_1" xmlns="http://www.w3.org/2000/svg" xmlns:xlink="http://www.w3.org/1999/xlink" x="0px" y="0px"
	 viewBox="0 0 769.5 30.1" style="enable-background:new 0 0 769.5 30.1;" xml:space="preserve">
<style type="text/css">
	.st0{fill:#2586B8;}
	.st1{fill:#E9EDF0;}
</style>
<g>
	<path class="st0" d="M738.7,30.1c-6.5,0-12.2-4.2-14.2-10.2H612c-2,6-7.7,10.2-14.2,10.2s-12.2-4.2-14.2-10.2H471
		c-2,6-7.7,10.2-14.2,10.2s-12.2-4.2-14.2-10.2H330c-2,6-7.7,10.2-14.2,10.2s-12.2-4.2-14.2-10.2H189c-2,6-7.7,10.2-14.2,10.2
		s-12.2-4.2-14.2-10.2H48c-2,6-7.7,10.2-14.2,10.2s-12.2-4.2-14.2-10.2H4.9C2.2,19.9,0,17.7,0,15s2.2-4.9,4.9-4.9h14.6
		c2-6,7.7-10.2,14.2-10.2S45.9,4.2,48,10.2h112.5c2-6,7.7-10.2,14.2-10.2s12.2,4.2,14.2,10.2h112.5c2-6,7.7-10.2,14.2-10.2
		s12.2,4.2,14.2,10.2h112.5c2-6,7.7-10.2,14.2-10.2s12.2,4.2,14.2,10.2h112.5c2-6,7.7-10.2,14.2-10.2s12.2,4.2,14.2,10.2h112.5
		c2-6,7.7-10.2,14.2-10.2s12.2,4.2,14.2,10.2h14.6c2.7,0,4.9,2.2,4.9,4.9s-2.2,4.9-4.9,4.9h-14.6C750.9,25.9,745.3,30.1,738.7,30.1z
		"/>
	<path class="st1" d="M767.6,13h-16.8c-1-5.8-6-10.2-12-10.2c-6.1,0-11.1,4.4-12,10.2h-117c-1-5.8-6-10.2-12-10.2
		c-6.1,0-11.1,4.4-12,10.2h-117c-1-5.8-6-10.2-12-10.2c-6.1,0-11.1,4.4-12,10.2h-117c-1-5.8-6-10.2-12-10.2c-6.1,0-11.1,4.4-12,10.2
		h-117c-1-5.8-6-10.2-12-10.2s-11.1,4.4-12,10.2h-117c-1-5.8-6-10.2-12-10.2c-6.1,0-11.1,4.4-12,10.2H4.9c-1.1,0-2,0.9-2,2
		s0.9,2,2,2h16.8c1,5.8,6,10.2,12,10.2c6.1,0,11.1-4.4,12-10.2h116.9c1,5.8,6,10.2,12,10.2s11.1-4.4,12-10.2h116.9
		c1,5.8,6,10.2,12,10.2c6.1,0,11.1-4.4,12-10.2h116.9c1,5.8,6,10.2,12,10.2c6.1,0,11.1-4.4,12-10.2h116.9c1,5.8,6,10.2,12,10.2
		c6.1,0,11.1-4.4,12-10.2h116.9c1,5.8,6,10.2,12,10.2c6.1,0,11.1-4.4,12-10.2H767c1.1,0,2-0.9,2-2S768.7,13,767.6,13z"/>
</g>
</svg>
