<svg version="1.1" id="Layer_1" xmlns="http://www.w3.org/2000/svg" xmlns:xlink="http://www.w3.org/1999/xlink" x="0px" y="0px"
	 viewBox="0 0 769.5 30.1" style="enable-background:new 0 0 769.5 30.1;" xml:space="preserve">
<style type="text/css">
	.st0{fill:#2586B8;}
	.st1{fill:#E9EDF0;}
</style>
<path class="st0" d="M584.6,19.9H471c-2,6-7.7,10.2-14.2,10.2s-12.2-4.2-14.2-10.2H330c-2,6-7.7,10.2-14.2,10.2s-12.2-4.2-14.2-10.2
	H189c-2,6-7.7,10.2-14.2,10.2s-12.2-4.2-14.2-10.2H48c-2,6-7.7,10.2-14.2,10.2s-12.2-4.2-14.2-10.2H4.9C2.2,19.9,0,17.7,0,15
	s2.2-4.9,4.9-4.9h14.6c2-6,7.7-10.2,14.2-10.2S45.9,4.2,48,10.2h112.5c2-6,7.7-10.2,14.2-10.2s12.2,4.2,14.2,10.2h112.5
	c2-6,7.7-10.2,14.2-10.2s12.2,4.2,14.2,10.2h112.5c2-6,7.7-10.2,14.2-10.2s12.2,4.2,14.2,10.2h113.6"/>
<path class="st1" d="M767.6,13.1h-16.8c-1-5.8-6-10.2-12-10.2c-6.1,0-11.1,4.4-12,10.2h-117c-1-5.8-6-10.2-12-10.2
	c-6.1,0-11.1,4.4-12,10.2h-117c-1-5.8-6-10.2-12-10.2c-6.1,0-11.1,4.4-12,10.2h-117c-1-5.8-6-10.2-12-10.2c-6.1,0-11.1,4.4-12,10.2
	h-117c-1-5.8-6-10.2-12-10.2s-11.1,4.4-12,10.2h-117c-1-5.8-6-10.2-12-10.2c-6.1,0-11.1,4.4-12,10.2H4.9c-1.1,0-2,0.9-2,2l0,0
	c0,1.1,0.9,2,2,2h16.8c1,5.8,6,10.2,12,10.2c6.1,0,11.1-4.4,12-10.2h116.9c1,5.8,6,10.2,12,10.2s11.1-4.4,12-10.2h116.9
	c1,5.8,6,10.2,12,10.2c6.1,0,11.1-4.4,12-10.2h116.9c1,5.8,6,10.2,12,10.2c6.1,0,11.1-4.4,12-10.2h116.9c1,5.8,6,10.2,12,10.2
	c6.1,0,12-4.4,12.9-10.2h116c1,5.8,6,10.2,12,10.2c6.1,0,11.1-4.4,12-10.2H767c1.1,0,2-0.9,2-2l0,0C769.6,14,768.7,13.1,767.6,13.1z
	"/>
<path class="st0" d="M597.7,0c-8.3,0-15.1,6.8-15.1,15c0,8.3,6.8,15.1,15.1,15.1s15-6.8,15-15.1C612.8,6.8,606,0,597.7,0z
	 M597.7,27.3c-6.7,0-12.2-5.5-12.2-12.2c0-6.8,5.5-12.2,12.2-12.2c6.8,0,12.2,5.5,12.2,12.2C610,21.8,604.5,27.3,597.7,27.3z"/>
<path class="st1" d="M590,17.1h-12.7c-1.1,0-2-0.9-2-2l0,0c0-1.1,0.9-2,2-2H590c1.1,0,2,0.9,2,2l0,0C592,16.2,591.1,17.1,590,17.1z"
	/>
</svg>
