<?xml version="1.0" encoding="utf-8"?>
<!-- Generator: Adobe Illustrator 22.1.0, SVG Export Plug-In . SVG Version: 6.00 Build 0)  -->
<svg version="1.1" id="Layer_1" xmlns="http://www.w3.org/2000/svg" xmlns:xlink="http://www.w3.org/1999/xlink" x="0px" y="0px"
	 viewBox="0 0 769.5 30.1" style="enable-background:new 0 0 769.5 30.1;" xml:space="preserve">
<style type="text/css">
	.st0{fill:#2586B8;}
	.st1{fill:#E8ECEF;}
</style>
<path class="st0" d="M174.7,30.1c-6.6,0-12.2-4.2-14.2-10.2H48c-2,6-7.7,10.2-14.3,10.2c-6.6,0-12.2-4.2-14.2-10.2H4.9
	c-2.7,0-4.9-2.2-4.9-4.9c0-1.3,0.5-2.5,1.4-3.4c0.9-0.9,2.1-1.4,3.4-1.4h14.6c2-6,7.7-10.2,14.2-10.2C40.3,0,45.9,4.2,48,10.2h112.5
	c2-6,7.7-10.2,14.2-10.2c8.3,0,15.1,6.8,15.1,15.1C189.8,23.4,183,30.1,174.7,30.1z"/>
<path class="st1" d="M174.7,2.8c-6,0-11.1,4.4-12,10.2H45.8c-1-5.8-6-10.2-12-10.2c-6,0-11.1,4.4-12,10.2H4.9
	c-0.6,0-1.1,0.2-1.4,0.6c-0.4,0.4-0.6,0.9-0.6,1.4c0,1.1,0.9,2,2,2h16.8c1,5.8,6,10.2,12,10.2c6.1,0,11.1-4.4,12-10.2h116.9
	c1,5.8,6,10.2,12,10.2c6.8,0,12.2-5.5,12.2-12.2C186.9,8.3,181.5,2.8,174.7,2.8z"/>
<path class="st1" d="M767.5,13.1h-16.8c-1-5.8-6-10.2-12-10.2c-6.1,0-11.1,4.4-12,10.2H609.7c-1-5.8-6-10.2-12-10.2
	c-6.1,0-11.1,4.4-12,10.2H468.7c-1-5.8-6-10.2-12-10.2c-6.1,0-11.1,4.4-12,10.2H327.7c-1-5.8-6-10.2-12-10.2
	c-6.1,0-11.1,4.4-12,10.2H186.7c-1-5.8-6-10.2-12-10.2s-11.1,4.4-12,10.2H45.7c-1-5.8-6-10.2-12-10.2c-6.1,0-11.1,4.4-12,10.2H4.8
	c-1.1,0-2,0.9-2,2v0c0,1.1,0.9,2,2,2h16.8c1,5.8,6,10.2,12,10.2c6.1,0,11.1-4.4,12-10.2h116.9c1,5.8,6,10.2,12,10.2
	s11.1-4.4,12-10.2h116.9c1,5.8,6,10.2,12,10.2c6.1,0,11.1-4.4,12-10.2h116.9c1,5.8,6,10.2,12,10.2c6.1,0,11.1-4.4,12-10.2h116.9
	c1,5.8,6,10.2,12,10.2c6.1,0,11.1-4.4,12-10.2h116.9c1,5.8,6,10.2,12,10.2c6.1,0,11.1-4.4,12-10.2h16.8c1.1,0,2-0.9,2-2v0
	C769.5,14,768.6,13.1,767.5,13.1z"/>
<path class="st0" d="M174.7,0c-7.6,0-13.9,5.7-14.9,13h2.9c1-5.8,6-10.2,12-10.2c6.8,0,12.2,5.5,12.2,12.2c0,6.7-5.5,12.2-12.2,12.2
	c-6,0-11-4.4-12-10.1h-2.9c1,7.3,7.3,12.9,14.9,12.9c8.3,0,15-6.8,15-15S183,0,174.7,0z"/>
</svg>
