<?xml version="1.0" encoding="utf-8"?>
<!-- Generator: Adobe Illustrator 22.1.0, SVG Export Plug-In . SVG Version: 6.00 Build 0)  -->
<svg version="1.1" id="Layer_1" xmlns="http://www.w3.org/2000/svg" xmlns:xlink="http://www.w3.org/1999/xlink" x="0px" y="0px"
	 viewBox="0 0 772.4 48" style="enable-background:new 0 0 772.4 48;" xml:space="preserve">
<style type="text/css">
	.st0{fill:#E9EDF0;}
	.st1{fill:#2586B8;}
</style>
<g>
	<path class="st0" d="M767.9,19.5h-47.7c-2-7.9-9.2-13.8-17.7-13.8c-8.6,0-15.7,5.9-17.7,13.8h-89.9c-2-7.9-9.2-13.8-17.7-13.8
		s-15.7,5.9-17.7,13.8h-89.9c-2-7.9-9.2-13.8-17.7-13.8c-8.6,0-15.7,5.9-17.7,13.8h-89.9c-2-7.9-9.2-13.8-17.7-13.8
		s-15.7,5.9-17.7,13.8h-89.9c-2-7.9-9.2-13.8-17.7-13.8c-8.6,0-15.7,5.9-17.7,13.8H93.4c-2-7.9-9.2-13.8-17.7-13.8
		c-8.6,0-15.7,5.9-17.7,13.8H10.2c-2.5,0-4.5,2-4.5,4.5c0,2.5,2,4.5,4.5,4.5h47.7c2,7.9,9.2,13.8,17.7,13.8
		c8.6,0,15.7-5.9,17.7-13.8h89.9c2,7.9,9.2,13.8,17.7,13.8c8.6,0,15.7-5.9,17.7-13.8h89.9c2,7.9,9.2,13.8,17.7,13.8
		s15.7-5.9,17.7-13.8H434c2,7.9,9.2,13.8,17.7,13.8c8.6,0,15.7-5.9,17.7-13.8h89.9c2,7.9,9.2,13.8,17.7,13.8s15.7-5.9,17.7-13.8
		h89.9c2,7.9,9.2,13.8,17.7,13.8s15.7-5.9,17.7-13.8h47.7c2.5,0,4.5-2,4.5-4.5C772.4,21.5,770.4,19.5,767.9,19.5z"/>
	<path class="st1" d="M577,48c-9.4,0-17.8-5.5-21.7-13.8h-81.9c-3.9,8.3-12.3,13.8-21.7,13.8c-9.4,0-17.8-5.5-21.7-13.8h-81.9
		c-3.9,8.3-12.3,13.8-21.7,13.8s-17.8-5.5-21.7-13.8h-81.9C218.8,42.5,210.4,48,201,48c-9.4,0-17.8-5.5-21.7-13.8H97.4
		C93.5,42.5,85.1,48,75.7,48c-9.4,0-17.8-5.5-21.7-13.8H10.2C4.6,34.2,0,29.6,0,24s4.6-10.2,10.2-10.2H54C57.9,5.5,66.2,0,75.7,0
		c9.4,0,17.8,5.5,21.7,13.8h81.9C183.2,5.5,191.6,0,201,0c9.4,0,17.8,5.5,21.7,13.8h81.9C308.5,5.5,316.9,0,326.4,0
		c9.4,0,17.8,5.5,21.7,13.8H430C433.9,5.5,442.3,0,451.7,0s17.8,5.5,21.7,13.8h81.9C559.2,5.5,567.6,0,577,0c13.2,0,24,10.8,24,24
		S590.3,48,577,48z"/>
	<path class="st0" d="M577,5.7c-8.6,0-15.7,5.9-17.7,13.8h-89.9c-2-7.9-9.2-13.8-17.7-13.8c-8.6,0-15.7,5.9-17.7,13.8h-89.9
		c-2-7.9-9.2-13.8-17.7-13.8s-15.7,5.9-17.7,13.8h-89.9c-2-7.9-9.2-13.8-17.7-13.8c-8.6,0-15.7,5.9-17.7,13.8H93.4
		c-2-7.9-9.2-13.8-17.7-13.8c-8.6,0-15.7,5.9-17.7,13.8H10.2c-2.5,0-4.5,2-4.5,4.5c0,2.5,2,4.5,4.5,4.5h47.7
		c2,7.9,9.2,13.8,17.7,13.8c8.6,0,15.7-5.9,17.7-13.8h89.9c2,7.9,9.2,13.8,17.7,13.8c8.6,0,15.7-5.9,17.7-13.8h89.9
		c2,7.9,9.2,13.8,17.7,13.8s15.7-5.9,17.7-13.8H434c2,7.9,9.2,13.8,17.7,13.8c8.6,0,15.7-5.9,17.7-13.8h89.9
		c2,7.9,9.2,13.8,17.7,13.8c10.1,0,18.3-8.2,18.3-18.3S587.2,5.7,577,5.7z"/>
</g>
</svg>
