<?xml version="1.0" encoding="utf-8"?>
<!-- Generator: Adobe Illustrator 22.1.0, SVG Export Plug-In . SVG Version: 6.00 Build 0)  -->
<svg version="1.1" id="Layer_1" xmlns="http://www.w3.org/2000/svg" xmlns:xlink="http://www.w3.org/1999/xlink" x="0px" y="0px"
	 viewBox="0 0 769.5 30.1" style="enable-background:new 0 0 769.5 30.1;" xml:space="preserve">
<style type="text/css">
	.st0{fill:#2586B8;}
	.st1{fill:#E9EDF0;}
</style>
<path class="st0" d="M452.7,19.9H330.2c-2,6-7.7,10.2-14.2,10.2s-12.2-4.2-14.2-10.2H189.2c-2,6-7.7,10.2-14.2,10.2
	s-12.2-4.2-14.2-10.2H48.2c-2,6-7.7,10.2-14.2,10.2s-12.2-4.2-14.2-10.2H5.1c-2.7,0-4.9-2.2-4.9-4.9s2.2-4.9,4.9-4.9h14.6
	c2-6,7.7-10.2,14.2-10.2s12.2,4.2,14.2,10.2h112.5c2-6,7.7-10.2,14.2-10.2S187,4.2,189,10.1h112.5c2-6,7.7-10.2,14.2-10.2
	s12.2,4.2,14.2,10.2h122.5"/>
<path class="st1" d="M767.8,13H751c-1-5.8-6-10.2-12-10.2c-6.1,0-11.1,4.4-12,10.2H610c-1-5.8-6-10.2-12-10.2
	c-6.1,0-11.1,4.4-12,10.2H469c-1-5.8-6-10.2-12-10.2c-6.1,0-11.1,4.4-12,10.2H328c-1-5.8-6-10.2-12-10.2c-6.1,0-11.1,4.4-12,10.2
	H187c-1-5.8-6-10.2-12-10.2S163.9,7.2,163,13H46C45,7.2,40,2.8,34,2.8c-6.1,0-11.1,4.4-12,10.2H5.1c-1.1,0-2,0.9-2,2l0,0
	c0,1.1,0.9,2,2,2h16.8c1,5.8,6,10.2,12,10.2c6.1,0,11.1-4.4,12-10.2h116.9c1,5.8,6,10.2,12,10.2s11.1-4.4,12-10.2h116.9
	c1,5.8,6,10.2,12,10.2c6.1,0,11.1-4.4,12-10.2h116.9c1,5.8,6,10.2,12,10.2c6.1,0,11.1-4.4,12-10.2h116.9c1,5.8,6,10.2,12,10.2
	c6.1,0,11.1-4.4,12-10.2h116.9c1,5.8,6,10.2,12,10.2c6.1,0,11.1-4.4,12-10.2h16.8c1.1,0,2-0.9,2-2l0,0C769.8,13.9,768.9,13,767.8,13
	z"/>
<path class="st0" d="M456.9,0.1c-7.6,0-13.9,5.7-14.9,13h2.9c1-5.8,6-10.2,12-10.2c6.8,0,12.2,5.5,12.2,12.2s-5.5,12.2-12.2,12.2
	c-6.1,0-11.1-4.4-12-10.2H442c1,7.3,7.3,13,14.9,13c8.3,0,15.1-6.8,15.1-15.1C472,6.8,465.2,0.1,456.9,0.1z"/>
<path class="st1" d="M469.2,15.1c0,6.7-5.5,12.2-12.2,12.2c-6.1,0-11.1-4.5-12-10.3h-9.1c-1.6,0-2.9-0.8-2.9-1.9
	c0-0.6,0.4-1.2,0.9-1.5c0.5-0.4,1.2-0.6,2-0.6h9c1-5.8,5.9-10.1,11.9-10.1C463.7,2.9,469.2,8.3,469.2,15.1z"/>
</svg>
