<?xml version="1.0" encoding="utf-8"?>
<!-- Generator: Adobe Illustrator 22.1.0, SVG Export Plug-In . SVG Version: 6.00 Build 0)  -->
<svg version="1.1" id="Layer_1" xmlns="http://www.w3.org/2000/svg" xmlns:xlink="http://www.w3.org/1999/xlink" x="0px" y="0px"
	 viewBox="0 0 772.4 48" style="enable-background:new 0 0 772.4 48;" xml:space="preserve">
<style type="text/css">
	.st0{fill:#E9EDF0;}
	.st1{fill:#2586B8;}
</style>
<g>
	<path class="st0" d="M767.8,19.5h-47.7c-2-7.9-9.2-13.8-17.7-13.8c-8.6,0-15.7,5.9-17.7,13.8h-89.9c-2-7.9-9.2-13.8-17.7-13.8
		s-15.7,5.9-17.7,13.8h-89.9c-2-7.9-9.2-13.8-17.7-13.8c-8.6,0-15.7,5.9-17.7,13.8h-89.9c-2-7.9-9.2-13.8-17.7-13.8
		s-15.7,5.9-17.7,13.8h-89.9c-2-7.9-9.2-13.8-17.7-13.8c-8.6,0-15.7,5.9-17.7,13.8H93.4c-2-7.9-9.2-13.8-17.7-13.8
		c-8.6,0-15.7,5.9-17.7,13.8H10.2c-2.5,0-4.5,2-4.5,4.5c0,2.5,2,4.5,4.5,4.5h47.7c2,7.9,9.2,13.8,17.7,13.8
		c8.6,0,15.7-5.9,17.7-13.8h89.9c2,7.9,9.2,13.8,17.7,13.8c8.6,0,15.7-5.9,17.7-13.8h89.9c2,7.9,9.2,13.8,17.7,13.8
		s15.7-5.9,17.7-13.8H434c2,7.9,9.2,13.8,17.7,13.8c8.6,0,15.7-5.9,17.7-13.8h89.9c2,7.9,9.2,13.8,17.7,13.8s15.7-5.9,17.7-13.8
		h89.9c2,7.9,9.2,13.8,17.7,13.8s15.7-5.9,17.7-13.8h47.7c2.5,0,4.5-2,4.5-4.5C772.4,21.5,770.4,19.5,767.8,19.5z"/>
	<path class="st1" d="M75.7,48c-9.4,0-17.8-5.5-21.7-13.8H10.2C4.6,34.2,0,29.6,0,24s4.6-10.2,10.2-10.2H54C57.9,5.5,66.2,0,75.7,0
		c13.2,0,24,10.8,24,24C99.7,37.2,88.9,48,75.7,48z"/>
	<path class="st0" d="M94,24C94,24,94,24,94,24c0-10.1-8.2-18.3-18.3-18.3c-8.6,0-15.7,5.9-17.7,13.8H10.2c-2.5,0-4.5,2-4.5,4.5
		c0,2.5,2,4.5,4.5,4.5h47.7c2,7.9,9.2,13.8,17.7,13.8C85.8,42.3,94,34.1,94,24C94,24,94,24,94,24C94,24,94,24,94,24z"/>
</g>
</svg>
