<?xml version="1.0" encoding="utf-8"?>
<!-- Generator: Adobe Illustrator 22.1.0, SVG Export Plug-In . SVG Version: 6.00 Build 0)  -->
<svg version="1.1" id="Layer_1" xmlns="http://www.w3.org/2000/svg" xmlns:xlink="http://www.w3.org/1999/xlink" x="0px" y="0px"
	 viewBox="0 0 769.5 30.1" style="enable-background:new 0 0 769.5 30.1;" xml:space="preserve">
<style type="text/css">
	.st0{fill:#2586B8;}
	.st1{fill:#E9EDF0;}
</style>
<path class="st0" d="M301.5,19.9H189c-2,6-7.7,10.2-14.2,10.2s-12.2-4.2-14.2-10.2H48c-2,6-7.7,10.2-14.2,10.2s-12.2-4.2-14.2-10.2
	H4.9C2.2,19.9,0,17.7,0,15s2.2-4.9,4.9-4.9h14.6c2-6,7.7-10.2,14.2-10.2S45.9,4.2,48,10.2h112.5c2-6,7.7-10.2,14.2-10.2
	s12.2,4.2,14.2,10.2h112.5"/>
<path class="st1" d="M767.6,13h-16.8c-1-5.8-6-10.2-12-10.2c-6.1,0-11.1,4.4-12,10.2h-117c-1-5.8-6-10.2-12-10.2
	c-6.1,0-11.1,4.4-12,10.2h-117c-1-5.8-6-10.2-12-10.2c-6.1,0-11.1,4.4-12,10.2h-117c-1-5.8-6-10.2-12-10.2c-6.1,0-11.1,4.4-12,10.2
	h-117c-1-5.8-6-10.2-12-10.2s-11.1,4.4-12,10.2h-117c-1-5.8-6-10.2-12-10.2c-6.1,0-11.1,4.4-12,10.2H4.9c-1.1,0-2,0.9-2,2l0,0
	c0,1.1,0.9,2,2,2h16.8c1,5.8,6,10.2,12,10.2c6.1,0,11.1-4.4,12-10.2h116.9c1,5.8,6,10.2,12,10.2s11.1-4.4,12-10.2h116.9
	c1,5.8,6,10.2,12,10.2c6.1,0,11.1-4.4,12-10.2h116.9c1,5.8,6,10.2,12,10.2c6.1,0,11.1-4.4,12-10.2h116.9c1,5.8,6,10.2,12,10.2
	c6.1,0,11.1-4.4,12-10.2h116.9c1,5.8,6,10.2,12,10.2c6.1,0,11.1-4.4,12-10.2H767c1.1,0,2-0.9,2-2l0,0C769.6,13.9,768.7,13,767.6,13z
	"/>
<path class="st0" d="M315.7,0.1c-8.3,0-15.1,6.8-15.1,15c0,8.3,6.8,15.1,15.1,15.1c8.3,0,15-6.8,15-15.1
	C330.8,6.8,324,0.1,315.7,0.1z M315.7,27.4c-6.7,0-12.2-5.5-12.2-12.2C303.5,8.4,309,3,315.7,3c6.8,0,12.2,5.5,12.2,12.2
	C328,21.9,322.5,27.4,315.7,27.4z"/>
<path class="st1" d="M317.6,17h-32.7c-1.1,0-2-0.9-2-2l0,0c0-1.1,0.9-2,2-2h32.7c1.1,0,2,0.9,2,2l0,0C319.6,16.1,318.7,17,317.6,17z
	"/>
</svg>
